G04 start of page 3 for group 1 idx 1 *
G04 Title: (unknown), solder *
G04 Creator: pcb 20110918 *
G04 CreationDate: Mon 25 Mar 2013 04:22:40 AM GMT UTC *
G04 For: ndholmes *
G04 Format: Gerber/RS-274X *
G04 PCB-Dimensions: 83000 80000 *
G04 PCB-Coordinate-Origin: lower left *
%MOIN*%
%FSLAX25Y25*%
%LNBOTTOM*%
%ADD25C,0.0480*%
%ADD24C,0.0200*%
%ADD23C,0.0360*%
%ADD22C,0.0001*%
%ADD21C,0.0800*%
%ADD20C,0.0250*%
G54D20*X42000Y25500D02*X49000Y32500D01*
Y55500D01*
X51500Y58000D01*
X44500Y39500D02*X8500D01*
X5500Y36500D01*
Y33500D01*
X12000Y25500D02*X42000D01*
X51500Y58000D02*Y66000D01*
X61000Y50000D02*Y35000D01*
X47000Y21000D01*
X18500D01*
X11500Y14000D01*
G54D21*D03*
G54D22*G36*
X7500Y70000D02*Y62000D01*
X15500D01*
Y70000D01*
X7500D01*
G37*
G54D21*X31500Y66000D03*
G54D22*G36*
X47500Y70000D02*Y62000D01*
X55500D01*
Y70000D01*
X47500D01*
G37*
G36*
X67500Y18000D02*Y10000D01*
X75500D01*
Y18000D01*
X67500D01*
G37*
G54D21*X51500Y14000D03*
G54D22*G36*
X27500Y18000D02*Y10000D01*
X35500D01*
Y18000D01*
X27500D01*
G37*
G54D21*X71500Y66000D03*
G54D23*X44500Y39500D03*
X5500Y33500D03*
X12000Y25500D03*
X61000Y50000D03*
G54D24*G54D25*M02*
