G04 start of page 8 for group -4078 idx -4078 *
G04 Title: (unknown), bottomsilk *
G04 Creator: pcb 20110918 *
G04 CreationDate: Mon 25 Mar 2013 04:22:40 AM GMT UTC *
G04 For: ndholmes *
G04 Format: Gerber/RS-274X *
G04 PCB-Dimensions: 83000 80000 *
G04 PCB-Coordinate-Origin: lower left *
%MOIN*%
%FSLAX25Y25*%
%LNBOTTOMSILK*%
%ADD36C,0.0100*%
G54D36*X55000Y37000D02*X54500Y36500D01*
X55000Y37000D02*X56500D01*
X57000Y36500D02*X56500Y37000D01*
X57000Y33500D02*Y36500D01*
Y33500D02*X56500Y33000D01*
X55000D02*X56500D01*
X55000D02*X54500Y33500D01*
Y34500D01*
X55000Y35000D02*X54500Y34500D01*
X55000Y35000D02*X56000D01*
X53300Y33000D02*Y37000D01*
X50800Y33000D01*
Y37000D01*
X49100Y33000D02*Y37000D01*
X47800D02*X47100Y36300D01*
Y33700D02*Y36300D01*
X47800Y33000D02*X47100Y33700D01*
X47800Y33000D02*X49600D01*
X47800Y37000D02*X49600D01*
X75500Y33000D02*X76800D01*
X77500Y33700D02*X76800Y33000D01*
X77500Y33700D02*Y36300D01*
X76800Y37000D01*
X75500D02*X76800D01*
X72300D02*X74300D01*
X73300Y33000D02*Y37000D01*
X69100D02*X71100D01*
X69100D02*X68600Y36500D01*
Y35500D02*Y36500D01*
X69100Y35000D02*X68600Y35500D01*
X69100Y35000D02*X70600D01*
Y33000D02*Y37000D01*
X69800Y35000D02*X68600Y33000D01*
X67400D02*Y37000D01*
X65400Y33000D02*X67400D01*
X14500Y37000D02*X14000Y36500D01*
X14500Y37000D02*X16000D01*
X16500Y36500D02*X16000Y37000D01*
X16500Y33500D02*Y36500D01*
Y33500D02*X16000Y33000D01*
X14500D02*X16000D01*
X14500D02*X14000Y33500D01*
Y34500D01*
X14500Y35000D02*X14000Y34500D01*
X14500Y35000D02*X15500D01*
X12800Y33000D02*Y37000D01*
X10300Y33000D01*
Y37000D01*
X8600Y33000D02*Y37000D01*
X7300D02*X6600Y36300D01*
Y33700D02*Y36300D01*
X7300Y33000D02*X6600Y33700D01*
X7300Y33000D02*X9100D01*
X7300Y37000D02*X9100D01*
X35000Y33000D02*X36300D01*
X37000Y33700D02*X36300Y33000D01*
X37000Y33700D02*Y36300D01*
X36300Y37000D01*
X35000D02*X36300D01*
X31800D02*X33800D01*
X32800Y33000D02*Y37000D01*
X28600D02*X30600D01*
X28600D02*X28100Y36500D01*
Y35500D02*Y36500D01*
X28600Y35000D02*X28100Y35500D01*
X28600Y35000D02*X30100D01*
Y33000D02*Y37000D01*
X29300Y35000D02*X28100Y33000D01*
X26900D02*Y37000D01*
X24900Y33000D02*X26900D01*
X8500Y44400D02*X13100D01*
X10800Y42100D02*Y46700D01*
X29500Y44300D02*X33700D01*
X17700Y43000D02*X19000D01*
X17000Y42300D02*X17700Y43000D01*
X17000Y39700D02*Y42300D01*
Y39700D02*X17700Y39000D01*
X19000D01*
X20200D02*Y43000D01*
Y41500D02*X20700Y41000D01*
X21700D01*
X22200Y41500D01*
Y43000D01*
X25200Y39800D02*X26000Y39000D01*
Y43000D01*
X25200D02*X26700D01*
X49000Y44400D02*X53600D01*
X51300Y42100D02*Y46700D01*
X70000Y44300D02*X74200D01*
X57200Y43500D02*X58500D01*
X56500Y42800D02*X57200Y43500D01*
X56500Y40200D02*Y42800D01*
Y40200D02*X57200Y39500D01*
X58500D01*
X59700D02*Y43500D01*
Y42000D02*X60200Y41500D01*
X61200D01*
X61700Y42000D01*
Y43500D01*
X64700Y40000D02*X65200Y39500D01*
X66700D01*
X67200Y40000D01*
Y41000D01*
X64700Y43500D02*X67200Y41000D01*
X64700Y43500D02*X67200D01*
X1500Y1200D02*X41500D01*
X1500Y31200D02*X41500D01*
X1500Y26800D02*X41500D01*
Y1200D02*Y31200D01*
X1500Y1200D02*Y31200D01*
Y78800D02*X41500D01*
X1500Y48800D02*X41500D01*
X1500Y53200D02*X41500D01*
X1500Y48800D02*Y78800D01*
X41500Y48800D02*Y78800D01*
Y1200D02*X81500D01*
X41500Y31200D02*X81500D01*
X41500Y26800D02*X81500D01*
Y1200D02*Y31200D01*
X41500Y1200D02*Y31200D01*
Y78800D02*X81500D01*
X41500Y48800D02*X81500D01*
X41500Y53200D02*X81500D01*
X41500Y48800D02*Y78800D01*
X81500Y48800D02*Y78800D01*
M02*
