M48
INCH
T27C0.020
T26C0.048
%
T27
X001500Y041400
X001500Y032400
X001500Y023400
X001500Y014400
X001500Y005400
X002150Y040600
X002150Y031600
X002150Y022600
X002150Y013600
X002150Y004600
X005400Y042000
X005400Y033000
X005400Y024000
X005400Y015000
X005400Y006000
X007050Y043050
X007050Y034050
X007050Y025050
X007050Y016050
X007050Y007050
T26
X002100Y044650
X002100Y039450
X002100Y035650
X002100Y030450
X002100Y026650
X002100Y021450
X002100Y017650
X002100Y012450
X002100Y008650
X002100Y003450
X004100Y044650
X004100Y039450
X004100Y035650
X004100Y030450
X004100Y026650
X004100Y021450
X004100Y017650
X004100Y012450
X004100Y008650
X004100Y003450
X006100Y044650
X006100Y039450
X006100Y035650
X006100Y030450
X006100Y026650
X006100Y021450
X006100Y017650
X006100Y012450
X006100Y008650
X006100Y003450
X008100Y044650
X008100Y039450
X008100Y035650
X008100Y030450
X008100Y026650
X008100Y021450
X008100Y017650
X008100Y012450
X008100Y008650
X008100Y003450
M30
