G04 start of page 10 for group -4078 idx -4078 *
G04 Title: (unknown), bottomsilk *
G04 Creator: pcb 4.0.2 *
G04 CreationDate: Thu Sep  9 05:11:40 2021 UTC *
G04 For: ndholmes *
G04 Format: Gerber/RS-274X *
G04 PCB-Dimensions (mil): 1020.00 4700.00 *
G04 PCB-Coordinate-Origin: lower left *
%MOIN*%
%FSLAX25Y25*%
%LNBOTTOMSILK*%
%ADD34C,0.0100*%
G54D34*X24000Y327500D02*X23500Y327000D01*
X24000Y327500D02*X25500D01*
X26000Y327000D02*X25500Y327500D01*
X26000Y324000D02*Y327000D01*
Y324000D02*X25500Y323500D01*
X24000D02*X25500D01*
X24000D02*X23500Y324000D01*
Y325000D01*
X24000Y325500D02*X23500Y325000D01*
X24000Y325500D02*X25000D01*
X22300Y323500D02*Y327500D01*
X19800Y323500D01*
Y327500D01*
X18100Y323500D02*Y327500D01*
X16800D02*X16100Y326800D01*
Y324200D02*Y326800D01*
X16800Y323500D02*X16100Y324200D01*
X16800Y323500D02*X18600D01*
X16800Y327500D02*X18600D01*
X44500Y323500D02*X45800D01*
X46500Y324200D02*X45800Y323500D01*
X46500Y324200D02*Y326800D01*
X45800Y327500D01*
X44500D02*X45800D01*
X41300D02*X43300D01*
X42300Y323500D02*Y327500D01*
X38100D02*X40100D01*
X38100D02*X37600Y327000D01*
Y326000D02*Y327000D01*
X38100Y325500D02*X37600Y326000D01*
X38100Y325500D02*X39600D01*
Y323500D02*Y327500D01*
X38800Y325500D02*X37600Y323500D01*
X36400D02*Y327500D01*
X34400Y323500D02*X36400D01*
X18000Y334900D02*X22600D01*
X20300Y332600D02*Y337200D01*
X39000Y334800D02*X43200D01*
X27200Y333500D02*X28500D01*
X26500Y332800D02*X27200Y333500D01*
X26500Y330200D02*Y332800D01*
Y330200D02*X27200Y329500D01*
X28500D01*
X29700D02*Y333500D01*
Y332000D02*X30200Y331500D01*
X31200D01*
X31700Y332000D01*
Y333500D01*
X34700Y330300D02*X35500Y329500D01*
Y333500D01*
X34700D02*X36200D01*
X64500Y327500D02*X64000Y327000D01*
X64500Y327500D02*X66000D01*
X66500Y327000D02*X66000Y327500D01*
X66500Y324000D02*Y327000D01*
Y324000D02*X66000Y323500D01*
X64500D02*X66000D01*
X64500D02*X64000Y324000D01*
Y325000D01*
X64500Y325500D02*X64000Y325000D01*
X64500Y325500D02*X65500D01*
X62800Y323500D02*Y327500D01*
X60300Y323500D01*
Y327500D01*
X58600Y323500D02*Y327500D01*
X57300D02*X56600Y326800D01*
Y324200D02*Y326800D01*
X57300Y323500D02*X56600Y324200D01*
X57300Y323500D02*X59100D01*
X57300Y327500D02*X59100D01*
X85000Y323500D02*X86300D01*
X87000Y324200D02*X86300Y323500D01*
X87000Y324200D02*Y326800D01*
X86300Y327500D01*
X85000D02*X86300D01*
X81800D02*X83800D01*
X82800Y323500D02*Y327500D01*
X78600D02*X80600D01*
X78600D02*X78100Y327000D01*
Y326000D02*Y327000D01*
X78600Y325500D02*X78100Y326000D01*
X78600Y325500D02*X80100D01*
Y323500D02*Y327500D01*
X79300Y325500D02*X78100Y323500D01*
X76900D02*Y327500D01*
X74900Y323500D02*X76900D01*
X58500Y334900D02*X63100D01*
X60800Y332600D02*Y337200D01*
X79500Y334800D02*X83700D01*
X66700Y334000D02*X68000D01*
X66000Y333300D02*X66700Y334000D01*
X66000Y330700D02*Y333300D01*
Y330700D02*X66700Y330000D01*
X68000D01*
X69200D02*Y334000D01*
Y332500D02*X69700Y332000D01*
X70700D01*
X71200Y332500D01*
Y334000D01*
X74200Y330500D02*X74700Y330000D01*
X76200D01*
X76700Y330500D01*
Y331500D01*
X74200Y334000D02*X76700Y331500D01*
X74200Y334000D02*X76700D01*
X64500Y417500D02*X64000Y417000D01*
X64500Y417500D02*X66000D01*
X66500Y417000D02*X66000Y417500D01*
X66500Y414000D02*Y417000D01*
Y414000D02*X66000Y413500D01*
X64500D02*X66000D01*
X64500D02*X64000Y414000D01*
Y415000D01*
X64500Y415500D02*X64000Y415000D01*
X64500Y415500D02*X65500D01*
X62800Y413500D02*Y417500D01*
X60300Y413500D01*
Y417500D01*
X58600Y413500D02*Y417500D01*
X57300D02*X56600Y416800D01*
Y414200D02*Y416800D01*
X57300Y413500D02*X56600Y414200D01*
X57300Y413500D02*X59100D01*
X57300Y417500D02*X59100D01*
X85000Y413500D02*X86300D01*
X87000Y414200D02*X86300Y413500D01*
X87000Y414200D02*Y416800D01*
X86300Y417500D01*
X85000D02*X86300D01*
X81800D02*X83800D01*
X82800Y413500D02*Y417500D01*
X78600D02*X80600D01*
X78600D02*X78100Y417000D01*
Y416000D02*Y417000D01*
X78600Y415500D02*X78100Y416000D01*
X78600Y415500D02*X80100D01*
Y413500D02*Y417500D01*
X79300Y415500D02*X78100Y413500D01*
X76900D02*Y417500D01*
X74900Y413500D02*X76900D01*
X24000Y417500D02*X23500Y417000D01*
X24000Y417500D02*X25500D01*
X26000Y417000D02*X25500Y417500D01*
X26000Y414000D02*Y417000D01*
Y414000D02*X25500Y413500D01*
X24000D02*X25500D01*
X24000D02*X23500Y414000D01*
Y415000D01*
X24000Y415500D02*X23500Y415000D01*
X24000Y415500D02*X25000D01*
X22300Y413500D02*Y417500D01*
X19800Y413500D01*
Y417500D01*
X18100Y413500D02*Y417500D01*
X16800D02*X16100Y416800D01*
Y414200D02*Y416800D01*
X16800Y413500D02*X16100Y414200D01*
X16800Y413500D02*X18600D01*
X16800Y417500D02*X18600D01*
X44500Y413500D02*X45800D01*
X46500Y414200D02*X45800Y413500D01*
X46500Y414200D02*Y416800D01*
X45800Y417500D01*
X44500D02*X45800D01*
X41300D02*X43300D01*
X42300Y413500D02*Y417500D01*
X38100D02*X40100D01*
X38100D02*X37600Y417000D01*
Y416000D02*Y417000D01*
X38100Y415500D02*X37600Y416000D01*
X38100Y415500D02*X39600D01*
Y413500D02*Y417500D01*
X38800Y415500D02*X37600Y413500D01*
X36400D02*Y417500D01*
X34400Y413500D02*X36400D01*
X18000Y424900D02*X22600D01*
X20300Y422600D02*Y427200D01*
X39000Y424800D02*X43200D01*
X27200Y423500D02*X28500D01*
X26500Y422800D02*X27200Y423500D01*
X26500Y420200D02*Y422800D01*
Y420200D02*X27200Y419500D01*
X28500D01*
X29700D02*Y423500D01*
Y422000D02*X30200Y421500D01*
X31200D01*
X31700Y422000D01*
Y423500D01*
X34700Y420300D02*X35500Y419500D01*
Y423500D01*
X34700D02*X36200D01*
X58500Y424900D02*X63100D01*
X60800Y422600D02*Y427200D01*
X79500Y424800D02*X83700D01*
X66700Y424000D02*X68000D01*
X66000Y423300D02*X66700Y424000D01*
X66000Y420700D02*Y423300D01*
Y420700D02*X66700Y420000D01*
X68000D01*
X69200D02*Y424000D01*
Y422500D02*X69700Y422000D01*
X70700D01*
X71200Y422500D01*
Y424000D01*
X74200Y420500D02*X74700Y420000D01*
X76200D01*
X76700Y420500D01*
Y421500D01*
X74200Y424000D02*X76700Y421500D01*
X74200Y424000D02*X76700D01*
X24000Y237500D02*X23500Y237000D01*
X24000Y237500D02*X25500D01*
X26000Y237000D02*X25500Y237500D01*
X26000Y234000D02*Y237000D01*
Y234000D02*X25500Y233500D01*
X24000D02*X25500D01*
X24000D02*X23500Y234000D01*
Y235000D01*
X24000Y235500D02*X23500Y235000D01*
X24000Y235500D02*X25000D01*
X22300Y233500D02*Y237500D01*
X19800Y233500D01*
Y237500D01*
X18100Y233500D02*Y237500D01*
X16800D02*X16100Y236800D01*
Y234200D02*Y236800D01*
X16800Y233500D02*X16100Y234200D01*
X16800Y233500D02*X18600D01*
X16800Y237500D02*X18600D01*
X44500Y233500D02*X45800D01*
X46500Y234200D02*X45800Y233500D01*
X46500Y234200D02*Y236800D01*
X45800Y237500D01*
X44500D02*X45800D01*
X41300D02*X43300D01*
X42300Y233500D02*Y237500D01*
X38100D02*X40100D01*
X38100D02*X37600Y237000D01*
Y236000D02*Y237000D01*
X38100Y235500D02*X37600Y236000D01*
X38100Y235500D02*X39600D01*
Y233500D02*Y237500D01*
X38800Y235500D02*X37600Y233500D01*
X36400D02*Y237500D01*
X34400Y233500D02*X36400D01*
X18000Y244900D02*X22600D01*
X20300Y242600D02*Y247200D01*
X39000Y244800D02*X43200D01*
X27200Y243500D02*X28500D01*
X26500Y242800D02*X27200Y243500D01*
X26500Y240200D02*Y242800D01*
Y240200D02*X27200Y239500D01*
X28500D01*
X29700D02*Y243500D01*
Y242000D02*X30200Y241500D01*
X31200D01*
X31700Y242000D01*
Y243500D01*
X34700Y240300D02*X35500Y239500D01*
Y243500D01*
X34700D02*X36200D01*
X64500Y237500D02*X64000Y237000D01*
X64500Y237500D02*X66000D01*
X66500Y237000D02*X66000Y237500D01*
X66500Y234000D02*Y237000D01*
Y234000D02*X66000Y233500D01*
X64500D02*X66000D01*
X64500D02*X64000Y234000D01*
Y235000D01*
X64500Y235500D02*X64000Y235000D01*
X64500Y235500D02*X65500D01*
X62800Y233500D02*Y237500D01*
X60300Y233500D01*
Y237500D01*
X58600Y233500D02*Y237500D01*
X57300D02*X56600Y236800D01*
Y234200D02*Y236800D01*
X57300Y233500D02*X56600Y234200D01*
X57300Y233500D02*X59100D01*
X57300Y237500D02*X59100D01*
X85000Y233500D02*X86300D01*
X87000Y234200D02*X86300Y233500D01*
X87000Y234200D02*Y236800D01*
X86300Y237500D01*
X85000D02*X86300D01*
X81800D02*X83800D01*
X82800Y233500D02*Y237500D01*
X78600D02*X80600D01*
X78600D02*X78100Y237000D01*
Y236000D02*Y237000D01*
X78600Y235500D02*X78100Y236000D01*
X78600Y235500D02*X80100D01*
Y233500D02*Y237500D01*
X79300Y235500D02*X78100Y233500D01*
X76900D02*Y237500D01*
X74900Y233500D02*X76900D01*
X58500Y244900D02*X63100D01*
X60800Y242600D02*Y247200D01*
X79500Y244800D02*X83700D01*
X66700Y244000D02*X68000D01*
X66000Y243300D02*X66700Y244000D01*
X66000Y240700D02*Y243300D01*
Y240700D02*X66700Y240000D01*
X68000D01*
X69200D02*Y244000D01*
Y242500D02*X69700Y242000D01*
X70700D01*
X71200Y242500D01*
Y244000D01*
X74200Y240500D02*X74700Y240000D01*
X76200D01*
X76700Y240500D01*
Y241500D01*
X74200Y244000D02*X76700Y241500D01*
X74200Y244000D02*X76700D01*
X24000Y147500D02*X23500Y147000D01*
X24000Y147500D02*X25500D01*
X26000Y147000D02*X25500Y147500D01*
X26000Y144000D02*Y147000D01*
Y144000D02*X25500Y143500D01*
X24000D02*X25500D01*
X24000D02*X23500Y144000D01*
Y145000D01*
X24000Y145500D02*X23500Y145000D01*
X24000Y145500D02*X25000D01*
X22300Y143500D02*Y147500D01*
X19800Y143500D01*
Y147500D01*
X18100Y143500D02*Y147500D01*
X16800D02*X16100Y146800D01*
Y144200D02*Y146800D01*
X16800Y143500D02*X16100Y144200D01*
X16800Y143500D02*X18600D01*
X16800Y147500D02*X18600D01*
X44500Y143500D02*X45800D01*
X46500Y144200D02*X45800Y143500D01*
X46500Y144200D02*Y146800D01*
X45800Y147500D01*
X44500D02*X45800D01*
X41300D02*X43300D01*
X42300Y143500D02*Y147500D01*
X38100D02*X40100D01*
X38100D02*X37600Y147000D01*
Y146000D02*Y147000D01*
X38100Y145500D02*X37600Y146000D01*
X38100Y145500D02*X39600D01*
Y143500D02*Y147500D01*
X38800Y145500D02*X37600Y143500D01*
X36400D02*Y147500D01*
X34400Y143500D02*X36400D01*
X18000Y154900D02*X22600D01*
X20300Y152600D02*Y157200D01*
X39000Y154800D02*X43200D01*
X27200Y153500D02*X28500D01*
X26500Y152800D02*X27200Y153500D01*
X26500Y150200D02*Y152800D01*
Y150200D02*X27200Y149500D01*
X28500D01*
X29700D02*Y153500D01*
Y152000D02*X30200Y151500D01*
X31200D01*
X31700Y152000D01*
Y153500D01*
X34700Y150300D02*X35500Y149500D01*
Y153500D01*
X34700D02*X36200D01*
X64500Y147500D02*X64000Y147000D01*
X64500Y147500D02*X66000D01*
X66500Y147000D02*X66000Y147500D01*
X66500Y144000D02*Y147000D01*
Y144000D02*X66000Y143500D01*
X64500D02*X66000D01*
X64500D02*X64000Y144000D01*
Y145000D01*
X64500Y145500D02*X64000Y145000D01*
X64500Y145500D02*X65500D01*
X62800Y143500D02*Y147500D01*
X60300Y143500D01*
Y147500D01*
X58600Y143500D02*Y147500D01*
X57300D02*X56600Y146800D01*
Y144200D02*Y146800D01*
X57300Y143500D02*X56600Y144200D01*
X57300Y143500D02*X59100D01*
X57300Y147500D02*X59100D01*
X85000Y143500D02*X86300D01*
X87000Y144200D02*X86300Y143500D01*
X87000Y144200D02*Y146800D01*
X86300Y147500D01*
X85000D02*X86300D01*
X81800D02*X83800D01*
X82800Y143500D02*Y147500D01*
X78600D02*X80600D01*
X78600D02*X78100Y147000D01*
Y146000D02*Y147000D01*
X78600Y145500D02*X78100Y146000D01*
X78600Y145500D02*X80100D01*
Y143500D02*Y147500D01*
X79300Y145500D02*X78100Y143500D01*
X76900D02*Y147500D01*
X74900Y143500D02*X76900D01*
X58500Y154900D02*X63100D01*
X60800Y152600D02*Y157200D01*
X79500Y154800D02*X83700D01*
X66700Y154000D02*X68000D01*
X66000Y153300D02*X66700Y154000D01*
X66000Y150700D02*Y153300D01*
Y150700D02*X66700Y150000D01*
X68000D01*
X69200D02*Y154000D01*
Y152500D02*X69700Y152000D01*
X70700D01*
X71200Y152500D01*
Y154000D01*
X74200Y150500D02*X74700Y150000D01*
X76200D01*
X76700Y150500D01*
Y151500D01*
X74200Y154000D02*X76700Y151500D01*
X74200Y154000D02*X76700D01*
X24000Y57500D02*X23500Y57000D01*
X24000Y57500D02*X25500D01*
X26000Y57000D02*X25500Y57500D01*
X26000Y54000D02*Y57000D01*
Y54000D02*X25500Y53500D01*
X24000D02*X25500D01*
X24000D02*X23500Y54000D01*
Y55000D01*
X24000Y55500D02*X23500Y55000D01*
X24000Y55500D02*X25000D01*
X22300Y53500D02*Y57500D01*
X19800Y53500D01*
Y57500D01*
X18100Y53500D02*Y57500D01*
X16800D02*X16100Y56800D01*
Y54200D02*Y56800D01*
X16800Y53500D02*X16100Y54200D01*
X16800Y53500D02*X18600D01*
X16800Y57500D02*X18600D01*
X44500Y53500D02*X45800D01*
X46500Y54200D02*X45800Y53500D01*
X46500Y54200D02*Y56800D01*
X45800Y57500D01*
X44500D02*X45800D01*
X41300D02*X43300D01*
X42300Y53500D02*Y57500D01*
X38100D02*X40100D01*
X38100D02*X37600Y57000D01*
Y56000D02*Y57000D01*
X38100Y55500D02*X37600Y56000D01*
X38100Y55500D02*X39600D01*
Y53500D02*Y57500D01*
X38800Y55500D02*X37600Y53500D01*
X36400D02*Y57500D01*
X34400Y53500D02*X36400D01*
X18000Y64900D02*X22600D01*
X20300Y62600D02*Y67200D01*
X39000Y64800D02*X43200D01*
X27200Y63500D02*X28500D01*
X26500Y62800D02*X27200Y63500D01*
X26500Y60200D02*Y62800D01*
Y60200D02*X27200Y59500D01*
X28500D01*
X29700D02*Y63500D01*
Y62000D02*X30200Y61500D01*
X31200D01*
X31700Y62000D01*
Y63500D01*
X34700Y60300D02*X35500Y59500D01*
Y63500D01*
X34700D02*X36200D01*
X64500Y57500D02*X64000Y57000D01*
X64500Y57500D02*X66000D01*
X66500Y57000D02*X66000Y57500D01*
X66500Y54000D02*Y57000D01*
Y54000D02*X66000Y53500D01*
X64500D02*X66000D01*
X64500D02*X64000Y54000D01*
Y55000D01*
X64500Y55500D02*X64000Y55000D01*
X64500Y55500D02*X65500D01*
X62800Y53500D02*Y57500D01*
X60300Y53500D01*
Y57500D01*
X58600Y53500D02*Y57500D01*
X57300D02*X56600Y56800D01*
Y54200D02*Y56800D01*
X57300Y53500D02*X56600Y54200D01*
X57300Y53500D02*X59100D01*
X57300Y57500D02*X59100D01*
X85000Y53500D02*X86300D01*
X87000Y54200D02*X86300Y53500D01*
X87000Y54200D02*Y56800D01*
X86300Y57500D01*
X85000D02*X86300D01*
X81800D02*X83800D01*
X82800Y53500D02*Y57500D01*
X78600D02*X80600D01*
X78600D02*X78100Y57000D01*
Y56000D02*Y57000D01*
X78600Y55500D02*X78100Y56000D01*
X78600Y55500D02*X80100D01*
Y53500D02*Y57500D01*
X79300Y55500D02*X78100Y53500D01*
X76900D02*Y57500D01*
X74900Y53500D02*X76900D01*
X58500Y64900D02*X63100D01*
X60800Y62600D02*Y67200D01*
X79500Y64800D02*X83700D01*
X66700Y64000D02*X68000D01*
X66000Y63300D02*X66700Y64000D01*
X66000Y60700D02*Y63300D01*
Y60700D02*X66700Y60000D01*
X68000D01*
X69200D02*Y64000D01*
Y62500D02*X69700Y62000D01*
X70700D01*
X71200Y62500D01*
Y64000D01*
X74200Y60500D02*X74700Y60000D01*
X76200D01*
X76700Y60500D01*
Y61500D01*
X74200Y64000D02*X76700Y61500D01*
X74200Y64000D02*X76700D01*
X51000Y291700D02*X91000D01*
X51000Y321700D02*X91000D01*
X51000Y317300D02*X91000D01*
Y291700D02*Y321700D01*
X51000Y291700D02*Y321700D01*
Y201700D02*X91000D01*
X51000Y231700D02*X91000D01*
X51000Y227300D02*X91000D01*
Y201700D02*Y231700D01*
X51000Y201700D02*Y231700D01*
Y279300D02*X91000D01*
X51000Y249300D02*X91000D01*
X51000Y253700D02*X91000D01*
X51000Y249300D02*Y279300D01*
X91000Y249300D02*Y279300D01*
X11000Y291700D02*X51000D01*
X11000Y321700D02*X51000D01*
X11000Y317300D02*X51000D01*
Y291700D02*Y321700D01*
X11000Y291700D02*Y321700D01*
Y201700D02*X51000D01*
X11000Y231700D02*X51000D01*
X11000Y227300D02*X51000D01*
Y201700D02*Y231700D01*
X11000Y201700D02*Y231700D01*
Y279300D02*X51000D01*
X11000Y249300D02*X51000D01*
X11000Y253700D02*X51000D01*
X11000Y249300D02*Y279300D01*
X51000Y249300D02*Y279300D01*
X11000Y381700D02*X51000D01*
X11000Y411700D02*X51000D01*
X11000Y407300D02*X51000D01*
Y381700D02*Y411700D01*
X11000Y381700D02*Y411700D01*
Y459300D02*X51000D01*
X11000Y429300D02*X51000D01*
X11000Y433700D02*X51000D01*
X11000Y429300D02*Y459300D01*
X51000Y429300D02*Y459300D01*
Y381700D02*X91000D01*
X51000Y411700D02*X91000D01*
X51000Y407300D02*X91000D01*
Y381700D02*Y411700D01*
X51000Y381700D02*Y411700D01*
Y459300D02*X91000D01*
X51000Y429300D02*X91000D01*
X51000Y433700D02*X91000D01*
X51000Y429300D02*Y459300D01*
X91000Y429300D02*Y459300D01*
X11000Y369300D02*X51000D01*
X11000Y339300D02*X51000D01*
X11000Y343700D02*X51000D01*
X11000Y339300D02*Y369300D01*
X51000Y339300D02*Y369300D01*
X91000D01*
X51000Y339300D02*X91000D01*
X51000Y343700D02*X91000D01*
X51000Y339300D02*Y369300D01*
X91000Y339300D02*Y369300D01*
X51000Y111700D02*X91000D01*
X51000Y141700D02*X91000D01*
X51000Y137300D02*X91000D01*
Y111700D02*Y141700D01*
X51000Y111700D02*Y141700D01*
Y21700D02*X91000D01*
X51000Y51700D02*X91000D01*
X51000Y47300D02*X91000D01*
Y21700D02*Y51700D01*
X51000Y21700D02*Y51700D01*
Y99300D02*X91000D01*
X51000Y69300D02*X91000D01*
X51000Y73700D02*X91000D01*
X51000Y69300D02*Y99300D01*
X91000Y69300D02*Y99300D01*
X11000Y111700D02*X51000D01*
X11000Y141700D02*X51000D01*
X11000Y137300D02*X51000D01*
Y111700D02*Y141700D01*
X11000Y111700D02*Y141700D01*
Y189300D02*X51000D01*
X11000Y159300D02*X51000D01*
X11000Y163700D02*X51000D01*
X11000Y159300D02*Y189300D01*
X51000Y159300D02*Y189300D01*
X91000D01*
X51000Y159300D02*X91000D01*
X51000Y163700D02*X91000D01*
X51000Y159300D02*Y189300D01*
X91000Y159300D02*Y189300D01*
X11000Y21700D02*X51000D01*
X11000Y51700D02*X51000D01*
X11000Y47300D02*X51000D01*
Y21700D02*Y51700D01*
X11000Y21700D02*Y51700D01*
Y99300D02*X51000D01*
X11000Y69300D02*X51000D01*
X11000Y73700D02*X51000D01*
X11000Y69300D02*Y99300D01*
X51000Y69300D02*Y99300D01*
M02*
