G04 start of page 11 for group -4015 idx -4015 *
G04 Title: (unknown), toppaste *
G04 Creator: pcb 4.0.2 *
G04 CreationDate: Thu Sep  9 05:11:40 2021 UTC *
G04 For: ndholmes *
G04 Format: Gerber/RS-274X *
G04 PCB-Dimensions (mil): 1020.00 4700.00 *
G04 PCB-Coordinate-Origin: lower left *
%MOIN*%
%FSLAX25Y25*%
%LNTOPPASTE*%
%ADD35C,0.0001*%
G54D35*G36*
X37500Y438000D02*Y432000D01*
X51500D01*
Y438000D01*
X37500D01*
G37*
G36*
X75500D02*Y432000D01*
X89500D01*
Y438000D01*
X75500D01*
G37*
G36*
X37500Y428000D02*Y422000D01*
X51500D01*
Y428000D01*
X37500D01*
G37*
G36*
X75500D02*Y422000D01*
X89500D01*
Y428000D01*
X75500D01*
G37*
G36*
X37500Y418000D02*Y412000D01*
X51500D01*
Y418000D01*
X37500D01*
G37*
G36*
X75500D02*Y412000D01*
X89500D01*
Y418000D01*
X75500D01*
G37*
G36*
X37500Y408000D02*Y402000D01*
X51500D01*
Y408000D01*
X37500D01*
G37*
G36*
X75500D02*Y402000D01*
X89500D01*
Y408000D01*
X75500D01*
G37*
G36*
X22249Y438814D02*X17131D01*
Y428186D01*
X22249D01*
Y438814D01*
G37*
G36*
X34059D02*X28941D01*
Y428186D01*
X34059D01*
Y438814D01*
G37*
G36*
X19500Y425105D02*Y422705D01*
X23500D01*
Y425105D01*
X19500D01*
G37*
G36*
Y421205D02*Y418805D01*
X23500D01*
Y421205D01*
X19500D01*
G37*
G36*
Y417305D02*Y414905D01*
X23500D01*
Y417305D01*
X19500D01*
G37*
G36*
X27700D02*Y414905D01*
X31700D01*
Y417305D01*
X27700D01*
G37*
G36*
Y421205D02*Y418805D01*
X31700D01*
Y421205D01*
X27700D01*
G37*
G36*
Y425105D02*Y422705D01*
X31700D01*
Y425105D01*
X27700D01*
G37*
G36*
X29964Y411314D02*X24846D01*
Y400686D01*
X29964D01*
Y411314D01*
G37*
G36*
X18154D02*X13036D01*
Y400686D01*
X18154D01*
Y411314D01*
G37*
G36*
X37500Y348000D02*Y342000D01*
X51500D01*
Y348000D01*
X37500D01*
G37*
G36*
X75500D02*Y342000D01*
X89500D01*
Y348000D01*
X75500D01*
G37*
G36*
X37500Y338000D02*Y332000D01*
X51500D01*
Y338000D01*
X37500D01*
G37*
G36*
X75500D02*Y332000D01*
X89500D01*
Y338000D01*
X75500D01*
G37*
G36*
X37500Y328000D02*Y322000D01*
X51500D01*
Y328000D01*
X37500D01*
G37*
G36*
X75500D02*Y322000D01*
X89500D01*
Y328000D01*
X75500D01*
G37*
G36*
X37500Y318000D02*Y312000D01*
X51500D01*
Y318000D01*
X37500D01*
G37*
G36*
X75500D02*Y312000D01*
X89500D01*
Y318000D01*
X75500D01*
G37*
G36*
X22249Y348814D02*X17131D01*
Y338186D01*
X22249D01*
Y348814D01*
G37*
G36*
X34059D02*X28941D01*
Y338186D01*
X34059D01*
Y348814D01*
G37*
G36*
X19500Y335105D02*Y332705D01*
X23500D01*
Y335105D01*
X19500D01*
G37*
G36*
Y331205D02*Y328805D01*
X23500D01*
Y331205D01*
X19500D01*
G37*
G36*
Y327305D02*Y324905D01*
X23500D01*
Y327305D01*
X19500D01*
G37*
G36*
X27700D02*Y324905D01*
X31700D01*
Y327305D01*
X27700D01*
G37*
G36*
Y331205D02*Y328805D01*
X31700D01*
Y331205D01*
X27700D01*
G37*
G36*
Y335105D02*Y332705D01*
X31700D01*
Y335105D01*
X27700D01*
G37*
G36*
X29964Y321314D02*X24846D01*
Y310686D01*
X29964D01*
Y321314D01*
G37*
G36*
X18154D02*X13036D01*
Y310686D01*
X18154D01*
Y321314D01*
G37*
G36*
X37500Y258000D02*Y252000D01*
X51500D01*
Y258000D01*
X37500D01*
G37*
G36*
X75500D02*Y252000D01*
X89500D01*
Y258000D01*
X75500D01*
G37*
G36*
X37500Y248000D02*Y242000D01*
X51500D01*
Y248000D01*
X37500D01*
G37*
G36*
X75500D02*Y242000D01*
X89500D01*
Y248000D01*
X75500D01*
G37*
G36*
X37500Y238000D02*Y232000D01*
X51500D01*
Y238000D01*
X37500D01*
G37*
G36*
X75500D02*Y232000D01*
X89500D01*
Y238000D01*
X75500D01*
G37*
G36*
X37500Y228000D02*Y222000D01*
X51500D01*
Y228000D01*
X37500D01*
G37*
G36*
X75500D02*Y222000D01*
X89500D01*
Y228000D01*
X75500D01*
G37*
G36*
X22249Y258814D02*X17131D01*
Y248186D01*
X22249D01*
Y258814D01*
G37*
G36*
X34059D02*X28941D01*
Y248186D01*
X34059D01*
Y258814D01*
G37*
G36*
X19500Y245105D02*Y242705D01*
X23500D01*
Y245105D01*
X19500D01*
G37*
G36*
Y241205D02*Y238805D01*
X23500D01*
Y241205D01*
X19500D01*
G37*
G36*
Y237305D02*Y234905D01*
X23500D01*
Y237305D01*
X19500D01*
G37*
G36*
X27700D02*Y234905D01*
X31700D01*
Y237305D01*
X27700D01*
G37*
G36*
Y241205D02*Y238805D01*
X31700D01*
Y241205D01*
X27700D01*
G37*
G36*
Y245105D02*Y242705D01*
X31700D01*
Y245105D01*
X27700D01*
G37*
G36*
X29964Y231314D02*X24846D01*
Y220686D01*
X29964D01*
Y231314D01*
G37*
G36*
X18154D02*X13036D01*
Y220686D01*
X18154D01*
Y231314D01*
G37*
G36*
X37500Y168000D02*Y162000D01*
X51500D01*
Y168000D01*
X37500D01*
G37*
G36*
X75500D02*Y162000D01*
X89500D01*
Y168000D01*
X75500D01*
G37*
G36*
X37500Y158000D02*Y152000D01*
X51500D01*
Y158000D01*
X37500D01*
G37*
G36*
X75500D02*Y152000D01*
X89500D01*
Y158000D01*
X75500D01*
G37*
G36*
X37500Y148000D02*Y142000D01*
X51500D01*
Y148000D01*
X37500D01*
G37*
G36*
X75500D02*Y142000D01*
X89500D01*
Y148000D01*
X75500D01*
G37*
G36*
X37500Y138000D02*Y132000D01*
X51500D01*
Y138000D01*
X37500D01*
G37*
G36*
X75500D02*Y132000D01*
X89500D01*
Y138000D01*
X75500D01*
G37*
G36*
X22249Y168814D02*X17131D01*
Y158186D01*
X22249D01*
Y168814D01*
G37*
G36*
X34059D02*X28941D01*
Y158186D01*
X34059D01*
Y168814D01*
G37*
G36*
X19500Y155105D02*Y152705D01*
X23500D01*
Y155105D01*
X19500D01*
G37*
G36*
Y151205D02*Y148805D01*
X23500D01*
Y151205D01*
X19500D01*
G37*
G36*
Y147305D02*Y144905D01*
X23500D01*
Y147305D01*
X19500D01*
G37*
G36*
X27700D02*Y144905D01*
X31700D01*
Y147305D01*
X27700D01*
G37*
G36*
Y151205D02*Y148805D01*
X31700D01*
Y151205D01*
X27700D01*
G37*
G36*
Y155105D02*Y152705D01*
X31700D01*
Y155105D01*
X27700D01*
G37*
G36*
X29964Y141314D02*X24846D01*
Y130686D01*
X29964D01*
Y141314D01*
G37*
G36*
X18154D02*X13036D01*
Y130686D01*
X18154D01*
Y141314D01*
G37*
G36*
X37500Y78000D02*Y72000D01*
X51500D01*
Y78000D01*
X37500D01*
G37*
G36*
X75500D02*Y72000D01*
X89500D01*
Y78000D01*
X75500D01*
G37*
G36*
X37500Y68000D02*Y62000D01*
X51500D01*
Y68000D01*
X37500D01*
G37*
G36*
X75500D02*Y62000D01*
X89500D01*
Y68000D01*
X75500D01*
G37*
G36*
X37500Y58000D02*Y52000D01*
X51500D01*
Y58000D01*
X37500D01*
G37*
G36*
X75500D02*Y52000D01*
X89500D01*
Y58000D01*
X75500D01*
G37*
G36*
X37500Y48000D02*Y42000D01*
X51500D01*
Y48000D01*
X37500D01*
G37*
G36*
X75500D02*Y42000D01*
X89500D01*
Y48000D01*
X75500D01*
G37*
G36*
X22249Y78814D02*X17131D01*
Y68186D01*
X22249D01*
Y78814D01*
G37*
G36*
X34059D02*X28941D01*
Y68186D01*
X34059D01*
Y78814D01*
G37*
G36*
X19500Y65105D02*Y62705D01*
X23500D01*
Y65105D01*
X19500D01*
G37*
G36*
Y61205D02*Y58805D01*
X23500D01*
Y61205D01*
X19500D01*
G37*
G36*
Y57305D02*Y54905D01*
X23500D01*
Y57305D01*
X19500D01*
G37*
G36*
X27700D02*Y54905D01*
X31700D01*
Y57305D01*
X27700D01*
G37*
G36*
Y61205D02*Y58805D01*
X31700D01*
Y61205D01*
X27700D01*
G37*
G36*
Y65105D02*Y62705D01*
X31700D01*
Y65105D01*
X27700D01*
G37*
G36*
X29964Y51314D02*X24846D01*
Y40686D01*
X29964D01*
Y51314D01*
G37*
G36*
X18154D02*X13036D01*
Y40686D01*
X18154D01*
Y51314D01*
G37*
M02*
