G04 start of page 8 for group -4062 idx -4062 *
G04 Title: (unknown), soldermask *
G04 Creator: pcb 4.0.2 *
G04 CreationDate: Thu Sep  9 05:11:40 2021 UTC *
G04 For: ndholmes *
G04 Format: Gerber/RS-274X *
G04 PCB-Dimensions (mil): 1020.00 4700.00 *
G04 PCB-Coordinate-Origin: lower left *
%MOIN*%
%FSLAX25Y25*%
%LNBOTTOMMASK*%
%ADD32C,0.0860*%
%ADD31C,0.0001*%
G54D31*G36*
X76700Y308800D02*Y300200D01*
X85300D01*
Y308800D01*
X76700D01*
G37*
G54D32*X81000Y356500D03*
G54D31*G36*
X76700Y218800D02*Y210200D01*
X85300D01*
Y218800D01*
X76700D01*
G37*
G54D32*X81000Y266500D03*
Y176500D03*
X61000Y304500D03*
G54D31*G36*
X56700Y360800D02*Y352200D01*
X65300D01*
Y360800D01*
X56700D01*
G37*
G54D32*X61000Y214500D03*
G54D31*G36*
X56700Y270800D02*Y262200D01*
X65300D01*
Y270800D01*
X56700D01*
G37*
G36*
X36700Y308800D02*Y300200D01*
X45300D01*
Y308800D01*
X36700D01*
G37*
G54D32*X21000Y304500D03*
G54D31*G36*
X16700Y360800D02*Y352200D01*
X25300D01*
Y360800D01*
X16700D01*
G37*
G54D32*X41000Y356500D03*
G54D31*G36*
X36700Y218800D02*Y210200D01*
X45300D01*
Y218800D01*
X36700D01*
G37*
G54D32*X21000Y214500D03*
G54D31*G36*
X16700Y270800D02*Y262200D01*
X25300D01*
Y270800D01*
X16700D01*
G37*
G54D32*X41000Y266500D03*
G54D31*G36*
X16700Y180800D02*Y172200D01*
X25300D01*
Y180800D01*
X16700D01*
G37*
G54D32*X41000Y176500D03*
X21000Y394500D03*
G54D31*G36*
X16700Y450800D02*Y442200D01*
X25300D01*
Y450800D01*
X16700D01*
G37*
G54D32*X41000Y446500D03*
G54D31*G36*
X56700Y450800D02*Y442200D01*
X65300D01*
Y450800D01*
X56700D01*
G37*
G36*
X76700Y398800D02*Y390200D01*
X85300D01*
Y398800D01*
X76700D01*
G37*
G54D32*X61000Y394500D03*
G54D31*G36*
X36700Y398800D02*Y390200D01*
X45300D01*
Y398800D01*
X36700D01*
G37*
G54D32*X81000Y446500D03*
G54D31*G36*
X76700Y128800D02*Y120200D01*
X85300D01*
Y128800D01*
X76700D01*
G37*
G36*
X16700Y90800D02*Y82200D01*
X25300D01*
Y90800D01*
X16700D01*
G37*
G54D32*X41000Y86500D03*
X81000D03*
X61000Y124500D03*
G54D31*G36*
X36700Y128800D02*Y120200D01*
X45300D01*
Y128800D01*
X36700D01*
G37*
G54D32*X21000Y124500D03*
G54D31*G36*
X56700Y180800D02*Y172200D01*
X65300D01*
Y180800D01*
X56700D01*
G37*
G54D32*X61000Y34500D03*
G54D31*G36*
X56700Y90800D02*Y82200D01*
X65300D01*
Y90800D01*
X56700D01*
G37*
G36*
X76700Y38800D02*Y30200D01*
X85300D01*
Y38800D01*
X76700D01*
G37*
G36*
X36700D02*Y30200D01*
X45300D01*
Y38800D01*
X36700D01*
G37*
G54D32*X21000Y34500D03*
M02*
