M48
INCH
T28C0.031
%
T28
X004600Y037950
X004600Y037150
X004600Y028950
X004600Y028150
X004600Y019950
X004600Y019150
X004600Y010950
X004600Y010150
X005100Y037950
X005100Y037150
X005100Y028950
X005100Y028150
X005100Y019950
X005100Y019150
X005100Y010950
X005100Y010150
X005600Y037950
X005600Y037150
X005600Y028950
X005600Y028150
X005600Y019950
X005600Y019150
X005600Y010950
X005600Y010150
M30
