G04 start of page 3 for group 1 idx 1 *
G04 Title: (unknown), solder *
G04 Creator: pcb 4.0.2 *
G04 CreationDate: Thu Sep  9 05:11:40 2021 UTC *
G04 For: ndholmes *
G04 Format: Gerber/RS-274X *
G04 PCB-Dimensions (mil): 1020.00 4700.00 *
G04 PCB-Coordinate-Origin: lower left *
%MOIN*%
%FSLAX25Y25*%
%LNBOTTOM*%
%ADD24C,0.0480*%
%ADD23C,0.0310*%
%ADD22C,0.0200*%
%ADD21C,0.0360*%
%ADD20C,0.0800*%
%ADD19C,0.0001*%
%ADD18C,0.0250*%
G54D18*X54000Y330000D02*X18000D01*
X21500Y316000D02*X51500D01*
X58500Y323000D01*
X56500Y311500D02*X28000D01*
X58500Y323000D02*Y346000D01*
X61000Y348500D01*
Y356500D01*
X70500Y340500D02*Y325500D01*
X56500Y311500D01*
X51500Y406000D02*X58500Y413000D01*
Y436000D01*
X61000Y438500D01*
X54000Y420000D02*X18000D01*
X15000Y417000D01*
Y414000D01*
X21500Y406000D02*X51500D01*
X61000Y438500D02*Y446500D01*
X70500Y430500D02*Y415500D01*
X56500Y401500D01*
X28000D01*
X21000Y394500D01*
X18000Y330000D02*X15000Y327000D01*
Y324000D01*
X28000Y311500D02*X21000Y304500D01*
X54000Y240000D02*X18000D01*
X15000Y237000D01*
Y234000D01*
X51500Y226000D02*X58500Y233000D01*
Y256000D01*
X61000Y258500D01*
Y266500D01*
X70500Y250500D02*Y235500D01*
X56500Y221500D01*
X21500Y226000D02*X51500D01*
X56500Y221500D02*X28000D01*
X21000Y214500D01*
X58500Y143000D02*Y166000D01*
X70500Y160500D02*Y145500D01*
X56500Y131500D01*
X58500Y166000D02*X61000Y168500D01*
Y176500D01*
X54000Y150000D02*X18000D01*
X15000Y147000D01*
Y144000D01*
X21500Y136000D02*X51500D01*
X56500Y131500D02*X28000D01*
X21000Y124500D01*
X51500Y136000D02*X58500Y143000D01*
X54000Y60000D02*X18000D01*
X15000Y57000D01*
Y54000D01*
X21500Y46000D02*X51500D01*
X58500Y53000D01*
Y76000D01*
X61000Y78500D01*
Y86500D01*
X70500Y70500D02*Y55500D01*
X56500Y41500D01*
X28000D01*
X21000Y34500D01*
G54D19*G36*
X77000Y308500D02*Y300500D01*
X85000D01*
Y308500D01*
X77000D01*
G37*
G54D20*X81000Y356500D03*
G54D19*G36*
X77000Y218500D02*Y210500D01*
X85000D01*
Y218500D01*
X77000D01*
G37*
G54D20*X81000Y266500D03*
Y176500D03*
X61000Y304500D03*
G54D19*G36*
X57000Y360500D02*Y352500D01*
X65000D01*
Y360500D01*
X57000D01*
G37*
G54D20*X61000Y214500D03*
G54D19*G36*
X57000Y270500D02*Y262500D01*
X65000D01*
Y270500D01*
X57000D01*
G37*
G36*
X37000Y308500D02*Y300500D01*
X45000D01*
Y308500D01*
X37000D01*
G37*
G54D20*X21000Y304500D03*
G54D19*G36*
X17000Y360500D02*Y352500D01*
X25000D01*
Y360500D01*
X17000D01*
G37*
G54D20*X41000Y356500D03*
G54D19*G36*
X37000Y218500D02*Y210500D01*
X45000D01*
Y218500D01*
X37000D01*
G37*
G54D20*X21000Y214500D03*
G54D19*G36*
X17000Y270500D02*Y262500D01*
X25000D01*
Y270500D01*
X17000D01*
G37*
G54D20*X41000Y266500D03*
G54D19*G36*
X17000Y180500D02*Y172500D01*
X25000D01*
Y180500D01*
X17000D01*
G37*
G54D20*X41000Y176500D03*
X21000Y394500D03*
G54D19*G36*
X17000Y450500D02*Y442500D01*
X25000D01*
Y450500D01*
X17000D01*
G37*
G54D20*X41000Y446500D03*
G54D19*G36*
X57000Y450500D02*Y442500D01*
X65000D01*
Y450500D01*
X57000D01*
G37*
G36*
X77000Y398500D02*Y390500D01*
X85000D01*
Y398500D01*
X77000D01*
G37*
G54D20*X61000Y394500D03*
G54D19*G36*
X37000Y398500D02*Y390500D01*
X45000D01*
Y398500D01*
X37000D01*
G37*
G54D20*X81000Y446500D03*
G54D19*G36*
X77000Y128500D02*Y120500D01*
X85000D01*
Y128500D01*
X77000D01*
G37*
G36*
X17000Y90500D02*Y82500D01*
X25000D01*
Y90500D01*
X17000D01*
G37*
G54D20*X41000Y86500D03*
X81000D03*
X61000Y124500D03*
G54D19*G36*
X37000Y128500D02*Y120500D01*
X45000D01*
Y128500D01*
X37000D01*
G37*
G54D20*X21000Y124500D03*
G54D19*G36*
X57000Y180500D02*Y172500D01*
X65000D01*
Y180500D01*
X57000D01*
G37*
G54D20*X61000Y34500D03*
G54D19*G36*
X57000Y90500D02*Y82500D01*
X65000D01*
Y90500D01*
X57000D01*
G37*
G36*
X77000Y38500D02*Y30500D01*
X85000D01*
Y38500D01*
X77000D01*
G37*
G36*
X37000D02*Y30500D01*
X45000D01*
Y38500D01*
X37000D01*
G37*
G54D20*X21000Y34500D03*
G54D21*X54000Y330000D03*
X70500Y340500D03*
X15000Y324000D03*
X21500Y316000D03*
X15000Y414000D03*
X21500Y406000D03*
X54000Y420000D03*
X70500Y430500D03*
X54000Y240000D03*
X70500Y250500D03*
X15000Y234000D03*
X21500Y226000D03*
X54000Y150000D03*
X70500Y160500D03*
X15000Y144000D03*
X21500Y136000D03*
X54000Y60000D03*
X70500Y70500D03*
X15000Y54000D03*
X21500Y46000D03*
G54D22*G54D23*G54D22*G54D23*G54D22*G54D23*G54D22*G54D23*G54D22*G54D24*M02*
