G04 start of page 5 for group -4063 idx -4063 *
G04 Title: (unknown), componentmask *
G04 Creator: pcb 20110918 *
G04 CreationDate: Mon 25 Mar 2013 04:24:27 AM GMT UTC *
G04 For: ndholmes *
G04 Format: Gerber/RS-274X *
G04 PCB-Dimensions: 240000 80000 *
G04 PCB-Coordinate-Origin: lower left *
%MOIN*%
%FSLAX25Y25*%
%LNTOPMASK*%
%ADD45R,0.0300X0.0300*%
%ADD44R,0.0572X0.0572*%
%ADD43R,0.0720X0.0720*%
%ADD42C,0.1700*%
%ADD41C,0.1950*%
%ADD40C,0.0860*%
%ADD39C,0.0001*%
G54D39*G36*
X223700Y18300D02*Y9700D01*
X232300D01*
Y18300D01*
X223700D01*
G37*
G54D40*X208000Y14000D03*
G54D39*G36*
X183700Y18300D02*Y9700D01*
X192300D01*
Y18300D01*
X183700D01*
G37*
G54D40*X168000Y14000D03*
G54D39*G36*
X143713Y18291D02*Y9691D01*
X152313D01*
Y18291D01*
X143713D01*
G37*
G36*
X203700Y70300D02*Y61700D01*
X212300D01*
Y70300D01*
X203700D01*
G37*
G54D40*X228000Y66000D03*
G54D39*G36*
X163700Y70300D02*Y61700D01*
X172300D01*
Y70300D01*
X163700D01*
G37*
G54D40*X188000Y66000D03*
G54D39*G36*
X123713Y70291D02*Y61691D01*
X132313D01*
Y70291D01*
X123713D01*
G37*
G36*
X83713D02*Y61691D01*
X92313D01*
Y70291D01*
X83713D01*
G37*
G54D40*X108013Y65991D03*
G54D41*X53935Y51200D03*
G54D42*X29935D03*
X41935Y70200D03*
G54D40*X148013Y65991D03*
G54D39*G36*
X103713Y18291D02*Y9691D01*
X112313D01*
Y18291D01*
X103713D01*
G37*
G54D40*X128013Y13991D03*
X88013D03*
G54D39*G36*
X33352Y18232D02*Y9632D01*
X41952D01*
Y18232D01*
X33352D01*
G37*
G54D40*X17652Y13932D03*
G54D43*X187500Y55000D02*X195500D01*
X225500D02*X233500D01*
X225500Y45000D02*X233500D01*
X225500Y35000D02*X233500D01*
X225500Y25000D02*X233500D01*
X187500Y45000D02*X195500D01*
X187500Y35000D02*X195500D01*
X187500Y25000D02*X195500D01*
G54D44*X166595Y55755D02*Y50245D01*
X162595Y28255D02*Y22745D01*
G54D45*X167700Y43500D02*X169300D01*
X167700Y39600D02*X169300D01*
X167700Y35700D02*X169300D01*
X175900Y39600D02*X177500D01*
X175900Y43500D02*X177500D01*
G54D44*X178405Y55755D02*Y50245D01*
G54D45*X175900Y35700D02*X177500D01*
G54D44*X174405Y28255D02*Y22745D01*
G54D43*X145513Y54491D02*X153513D01*
X145513Y44491D02*X153513D01*
X145513Y34491D02*X153513D01*
X145513Y24491D02*X153513D01*
X107513Y54491D02*X115513D01*
X107513Y44491D02*X115513D01*
G54D44*X86703Y55746D02*Y50236D01*
X98513Y55746D02*Y50236D01*
G54D45*X87713Y43396D02*X89313D01*
X95913D02*X97513D01*
G54D43*X107513Y34491D02*X115513D01*
X107513Y24491D02*X115513D01*
G54D45*X87713Y39496D02*X89313D01*
X87713Y35596D02*X89313D01*
G54D44*X82608Y28246D02*Y22736D01*
X94418Y28246D02*Y22736D01*
G54D45*X95913Y35596D02*X97513D01*
X95913Y39496D02*X97513D01*
M02*
