G04 start of page 7 for group -4079 idx -4079 *
G04 Title: (unknown), topsilk *
G04 Creator: pcb 20110918 *
G04 CreationDate: Mon 25 Mar 2013 04:24:27 AM GMT UTC *
G04 For: ndholmes *
G04 Format: Gerber/RS-274X *
G04 PCB-Dimensions: 240000 80000 *
G04 PCB-Coordinate-Origin: lower left *
%MOIN*%
%FSLAX25Y25*%
%LNTOPSILK*%
%ADD51C,0.0100*%
G54D51*X136313Y2991D02*X137613D01*
X135613Y3691D02*X136313Y2991D01*
X135613Y6291D02*Y3691D01*
Y6291D02*X136313Y6991D01*
X137613D01*
X138813D02*Y2991D01*
Y4991D02*X140813Y6991D01*
X138813Y4991D02*X140813Y2991D01*
X142013Y6991D02*X144013D01*
X143013D02*Y2991D01*
X145213Y4991D02*X147213D01*
X148413Y6991D02*Y2991D01*
Y6991D02*X149913Y4991D01*
X151413Y6991D01*
Y2991D01*
X152613Y6991D02*X154613D01*
X155113Y6491D01*
Y5491D01*
X154613Y4991D02*X155113Y5491D01*
X153113Y4991D02*X154613D01*
X153113Y6991D02*Y2991D01*
X153913Y4991D02*X155113Y2991D01*
X156313Y6991D02*X157313D01*
X156813D02*Y2991D01*
X156313D02*X157313D01*
X160513Y6991D02*X161013Y6491D01*
X159013Y6991D02*X160513D01*
X158513Y6491D02*X159013Y6991D01*
X158513Y6491D02*Y5491D01*
X159013Y4991D01*
X160513D01*
X161013Y4491D01*
Y3491D01*
X160513Y2991D02*X161013Y3491D01*
X159013Y2991D02*X160513D01*
X158513Y3491D02*X159013Y2991D01*
X162213Y6491D02*Y3491D01*
Y6491D02*X162713Y6991D01*
X163713D01*
X164213Y6491D01*
Y3491D01*
X163713Y2991D02*X164213Y3491D01*
X162713Y2991D02*X163713D01*
X162213Y3491D02*X162713Y2991D01*
X165413Y4491D02*X167413Y6991D01*
X165413Y4491D02*X167913D01*
X167413Y6991D02*Y2991D01*
X170913Y4991D02*X171913Y2991D01*
X172913Y4991D02*X171913Y2991D01*
X174113Y6191D02*X174913Y6991D01*
Y2991D01*
X174113D02*X175613D01*
X176813D02*X177313D01*
X178513Y3491D02*X179013Y2991D01*
X178513Y6491D02*Y3491D01*
Y6491D02*X179013Y6991D01*
X180013D01*
X180513Y6491D01*
Y3491D01*
X180013Y2991D02*X180513Y3491D01*
X179013Y2991D02*X180013D01*
X178513Y3991D02*X180513Y5991D01*
X128013Y76991D02*X129013D01*
X128513D02*Y72991D01*
X128013D02*X129013D01*
X130213Y74491D02*Y73491D01*
Y74491D02*X130713Y74991D01*
X131713D01*
X132213Y74491D01*
Y73491D01*
X131713Y72991D02*X132213Y73491D01*
X130713Y72991D02*X131713D01*
X130213Y73491D02*X130713Y72991D01*
X133413Y74991D02*Y73491D01*
X133913Y72991D01*
X134413D01*
X134913Y73491D01*
Y74991D02*Y73491D01*
X135413Y72991D01*
X135913D01*
X136413Y73491D01*
Y74991D02*Y73491D01*
X139113Y74991D02*X139613Y74491D01*
X138113Y74991D02*X139113D01*
X137613Y74491D02*X138113Y74991D01*
X137613Y74491D02*Y73491D01*
X138113Y72991D01*
X139613Y74991D02*Y73491D01*
X140113Y72991D01*
X138113D02*X139113D01*
X139613Y73491D01*
X145113Y76991D02*X145613Y76491D01*
X143613Y76991D02*X145113D01*
X143113Y76491D02*X143613Y76991D01*
X143113Y76491D02*Y75491D01*
X143613Y74991D01*
X145113D01*
X145613Y74491D01*
Y73491D01*
X145113Y72991D02*X145613Y73491D01*
X143613Y72991D02*X145113D01*
X143113Y73491D02*X143613Y72991D01*
X147313Y74991D02*X148813D01*
X146813Y74491D02*X147313Y74991D01*
X146813Y74491D02*Y73491D01*
X147313Y72991D01*
X148813D01*
X151513Y74991D02*X152013Y74491D01*
X150513Y74991D02*X151513D01*
X150013Y74491D02*X150513Y74991D01*
X150013Y74491D02*Y73491D01*
X150513Y72991D01*
X152013Y74991D02*Y73491D01*
X152513Y72991D01*
X150513D02*X151513D01*
X152013Y73491D01*
X153713Y76991D02*Y73491D01*
X154213Y72991D01*
X155713D02*X157213D01*
X155213Y73491D02*X155713Y72991D01*
X155213Y74491D02*Y73491D01*
Y74491D02*X155713Y74991D01*
X156713D01*
X157213Y74491D01*
X155213Y73991D02*X157213D01*
Y74491D02*Y73991D01*
X160413Y76991D02*Y72991D01*
X159913D02*X160413Y73491D01*
X158913Y72991D02*X159913D01*
X158413Y73491D02*X158913Y72991D01*
X158413Y74491D02*Y73491D01*
Y74491D02*X158913Y74991D01*
X159913D01*
X160413Y74491D01*
X163413Y75191D02*X164913D01*
X163413Y72991D02*X165413D01*
X163413Y76991D02*Y72991D01*
Y76991D02*X165413D01*
X167113Y74491D02*Y72991D01*
Y74491D02*X167613Y74991D01*
X168113D01*
X168613Y74491D01*
Y72991D01*
X166613Y74991D02*X167113Y74491D01*
X171313Y74991D02*X171813Y74491D01*
X170313Y74991D02*X171313D01*
X169813Y74491D02*X170313Y74991D01*
X169813Y74491D02*Y73491D01*
X170313Y72991D01*
X171313D01*
X171813Y73491D01*
X169813Y71991D02*X170313Y71491D01*
X171313D01*
X171813Y71991D01*
Y74991D02*Y71991D01*
X173013Y75991D02*Y75891D01*
Y74491D02*Y72991D01*
X174513Y74491D02*Y72991D01*
Y74491D02*X175013Y74991D01*
X175513D01*
X176013Y74491D01*
Y72991D01*
X174013Y74991D02*X174513Y74491D01*
X177713Y72991D02*X179213D01*
X177213Y73491D02*X177713Y72991D01*
X177213Y74491D02*Y73491D01*
Y74491D02*X177713Y74991D01*
X178713D01*
X179213Y74491D01*
X177213Y73991D02*X179213D01*
Y74491D02*Y73991D01*
X180913Y72991D02*X182413D01*
X180413Y73491D02*X180913Y72991D01*
X180413Y74491D02*Y73491D01*
Y74491D02*X180913Y74991D01*
X181913D01*
X182413Y74491D01*
X180413Y73991D02*X182413D01*
Y74491D02*Y73991D01*
X184113Y74491D02*Y72991D01*
Y74491D02*X184613Y74991D01*
X185613D01*
X183613D02*X184113Y74491D01*
X186813Y75991D02*Y75891D01*
Y74491D02*Y72991D01*
X188313Y74491D02*Y72991D01*
Y74491D02*X188813Y74991D01*
X189313D01*
X189813Y74491D01*
Y72991D01*
X187813Y74991D02*X188313Y74491D01*
X192513Y74991D02*X193013Y74491D01*
X191513Y74991D02*X192513D01*
X191013Y74491D02*X191513Y74991D01*
X191013Y74491D02*Y73491D01*
X191513Y72991D01*
X192513D01*
X193013Y73491D01*
X191013Y71991D02*X191513Y71491D01*
X192513D01*
X193013Y71991D01*
Y74991D02*Y71991D01*
X165600Y45500D02*X179500D01*
X165600D02*Y33700D01*
X179500D01*
Y45500D02*Y33700D01*
X220500Y22000D02*X200500D01*
X220500D02*Y58000D01*
X200500D02*Y22000D01*
Y58000D02*X220500D01*
X210500Y56000D01*
X200500Y58000D02*X210500Y56000D01*
X166532Y30814D02*X170468D01*
X166532Y20186D02*X170468D01*
X170532Y58314D02*X174468D01*
X170532Y47686D02*X174468D01*
X120513Y21491D02*X140513D01*
Y57491D02*Y21491D01*
X120513Y57491D02*Y21491D01*
Y57491D02*X140513D01*
X130513Y55491D01*
X120513Y57491D02*X130513Y55491D01*
X86545Y30805D02*X90481D01*
X86545Y20177D02*X90481D01*
X90640Y58305D02*X94576D01*
X90640Y47677D02*X94576D01*
X85613Y45396D02*X99513D01*
X85613D02*Y33596D01*
X99513D01*
Y45396D02*Y33596D01*
X159500Y38500D02*X163500D01*
X159500Y39800D02*X160200Y40500D01*
X162800D01*
X163500Y39800D02*X162800Y40500D01*
X163500Y39800D02*Y38000D01*
X159500Y39800D02*Y38000D01*
X160000Y41700D02*X159500Y42200D01*
Y43700D02*Y42200D01*
Y43700D02*X160000Y44200D01*
X161000D01*
X163500Y41700D02*X161000Y44200D01*
X163500D02*Y41700D01*
X175500Y65000D02*X177500D01*
X178000Y64500D01*
Y63500D01*
X177500Y63000D02*X178000Y63500D01*
X176000Y63000D02*X177500D01*
X176000Y65000D02*Y61000D01*
X176800Y63000D02*X178000Y61000D01*
X179200Y64500D02*X179700Y65000D01*
X180700D01*
X181200Y64500D01*
X180700Y61000D02*X181200Y61500D01*
X179700Y61000D02*X180700D01*
X179200Y61500D02*X179700Y61000D01*
Y63200D02*X180700D01*
X181200Y64500D02*Y63700D01*
Y62700D02*Y61500D01*
Y62700D02*X180700Y63200D01*
X181200Y63700D02*X180700Y63200D01*
X191500Y64000D02*Y60500D01*
X192000Y60000D01*
X193000D01*
X193500Y60500D01*
Y64000D02*Y60500D01*
X194700Y63500D02*X195200Y64000D01*
X196700D01*
X197200Y63500D01*
Y62500D01*
X194700Y60000D02*X197200Y62500D01*
X194700Y60000D02*X197200D01*
X154500Y24500D02*Y22500D01*
Y24500D02*X155000Y25000D01*
X156000D01*
X156500Y24500D02*X156000Y25000D01*
X156500Y24500D02*Y23000D01*
X154500D02*X158500D01*
X156500Y23800D02*X158500Y25000D01*
X157000Y26200D02*X154500Y28200D01*
X157000Y28700D02*Y26200D01*
X154500Y28200D02*X158500D01*
X117013Y63991D02*Y60491D01*
X117513Y59991D01*
X118513D01*
X119013Y60491D01*
Y63991D02*Y60491D01*
X120213Y63191D02*X121013Y63991D01*
Y59991D01*
X120213D02*X121713D01*
X95458Y64641D02*X97458D01*
X97958Y64141D01*
Y63141D01*
X97458Y62641D02*X97958Y63141D01*
X95958Y62641D02*X97458D01*
X95958Y64641D02*Y60641D01*
X96758Y62641D02*X97958Y60641D01*
X99158Y63841D02*X99958Y64641D01*
Y60641D01*
X99158D02*X100658D01*
X78118Y37991D02*X82118D01*
X78118Y39291D02*X78818Y39991D01*
X81418D01*
X82118Y39291D02*X81418Y39991D01*
X82118Y39291D02*Y37491D01*
X78118Y39291D02*Y37491D01*
X78918Y41191D02*X78118Y41991D01*
X82118D01*
Y42691D02*Y41191D01*
X74363Y24341D02*Y22341D01*
Y24341D02*X74863Y24841D01*
X75863D01*
X76363Y24341D02*X75863Y24841D01*
X76363Y24341D02*Y22841D01*
X74363D02*X78363D01*
X76363Y23641D02*X78363Y24841D01*
X74863Y26041D02*X74363Y26541D01*
Y28041D02*Y26541D01*
Y28041D02*X74863Y28541D01*
X75863D01*
X78363Y26041D02*X75863Y28541D01*
X78363D02*Y26041D01*
M02*
