M48
INCH
T38C0.020
T37C0.110
T36C0.125
T35C0.048
%
T38
X010211Y003949
X008211Y003499
X004861Y000399
X005211Y002049
X005211Y001549
X018200Y004000
X016861Y002799
X004261Y000399
X003661Y000399
X003061Y000399
X002461Y000399
X001861Y000399
T35
X022800Y001400
X020800Y001400
X018800Y001400
X016800Y001400
X014801Y001399
X020800Y006600
X022800Y006600
X016800Y006600
X018800Y006600
X012801Y006599
X008801Y006599
X010801Y006599
X014801Y006599
X010801Y001399
X012801Y001399
X008801Y001399
X003765Y001393
X001765Y001393
T37
X002994Y005120
X004194Y007020
T36
X005394Y005120
M30
