G04 start of page 3 for group 1 idx 1 *
G04 Title: (unknown), solder *
G04 Creator: pcb 20110918 *
G04 CreationDate: Mon 25 Mar 2013 04:24:27 AM GMT UTC *
G04 For: ndholmes *
G04 Format: Gerber/RS-274X *
G04 PCB-Dimensions: 240000 80000 *
G04 PCB-Coordinate-Origin: lower left *
%MOIN*%
%FSLAX25Y25*%
%LNBOTTOM*%
%ADD34C,0.1100*%
%ADD33C,0.1250*%
%ADD32C,0.0480*%
%ADD31C,0.0200*%
%ADD30C,0.0360*%
%ADD29R,0.0630X0.0630*%
%ADD28C,0.1500*%
%ADD27C,0.1750*%
%ADD26C,0.0800*%
%ADD25C,0.0250*%
%ADD24C,0.0001*%
G54D24*G36*
X53920Y78991D02*X79113D01*
Y39698D01*
X79030Y39562D01*
X78822Y39060D01*
X78695Y38532D01*
X78695Y38532D01*
X78652Y37991D01*
X78663Y37856D01*
Y34991D01*
X78695Y34450D01*
X78822Y33922D01*
X79030Y33420D01*
X79113Y33284D01*
Y25991D01*
X53920D01*
Y41421D01*
X53935Y41420D01*
X55465Y41540D01*
X56957Y41899D01*
X58375Y42486D01*
X59684Y43288D01*
X60851Y44284D01*
X61847Y45451D01*
X62649Y46760D01*
X63236Y48178D01*
X63595Y49670D01*
X63685Y51200D01*
X63595Y52730D01*
X63236Y54222D01*
X62649Y55640D01*
X61847Y56949D01*
X60851Y58116D01*
X59684Y59112D01*
X58375Y59914D01*
X56957Y60501D01*
X55465Y60860D01*
X53935Y60980D01*
X53920Y60979D01*
Y78991D01*
G37*
G36*
X37090Y53445D02*X37254Y52838D01*
X37370Y52188D01*
X37428Y51530D01*
Y50870D01*
X37370Y50212D01*
X37254Y49562D01*
X37090Y48955D01*
Y53445D01*
G37*
G36*
X49090Y72445D02*X49254Y71838D01*
X49370Y71188D01*
X49428Y70530D01*
Y69870D01*
X49370Y69212D01*
X49254Y68562D01*
X49090Y67955D01*
Y72445D01*
G37*
G36*
Y42734D02*X49495Y42486D01*
X50913Y41899D01*
X52405Y41540D01*
X53920Y41421D01*
Y25991D01*
X49090D01*
Y42734D01*
G37*
G36*
Y78991D02*X53920D01*
Y60979D01*
X52405Y60860D01*
X50913Y60501D01*
X49495Y59914D01*
X49090Y59666D01*
Y65596D01*
X49465Y66239D01*
X49784Y66916D01*
X50042Y67619D01*
X50238Y68342D01*
X50369Y69080D01*
X50435Y69826D01*
Y70574D01*
X50369Y71321D01*
X50238Y72058D01*
X50042Y72781D01*
X49784Y73484D01*
X49465Y74161D01*
X49090Y74804D01*
Y78991D01*
G37*
G36*
X37090D02*X49090D01*
Y74804D01*
X49087Y74808D01*
X48654Y75419D01*
X48601Y75479D01*
X48539Y75528D01*
X48469Y75568D01*
X48395Y75596D01*
X48316Y75612D01*
X48237Y75616D01*
X48157Y75607D01*
X48080Y75586D01*
X48008Y75553D01*
X47941Y75509D01*
X47882Y75456D01*
X47832Y75393D01*
X47792Y75324D01*
X47764Y75249D01*
X47748Y75171D01*
X47744Y75091D01*
X47753Y75012D01*
X47774Y74935D01*
X47807Y74862D01*
X47852Y74796D01*
X48240Y74262D01*
X48573Y73692D01*
X48854Y73095D01*
X49082Y72475D01*
X49090Y72445D01*
Y67955D01*
X49082Y67925D01*
X48854Y67305D01*
X48573Y66708D01*
X48240Y66138D01*
X47858Y65599D01*
X47814Y65534D01*
X47781Y65463D01*
X47760Y65387D01*
X47752Y65309D01*
X47755Y65230D01*
X47771Y65153D01*
X47799Y65079D01*
X47838Y65011D01*
X47887Y64949D01*
X47945Y64896D01*
X48011Y64853D01*
X48083Y64821D01*
X48159Y64800D01*
X48237Y64791D01*
X48316Y64795D01*
X48393Y64811D01*
X48466Y64839D01*
X48535Y64878D01*
X48596Y64927D01*
X48648Y64986D01*
X49087Y65592D01*
X49090Y65596D01*
Y59666D01*
X48186Y59112D01*
X47019Y58116D01*
X46023Y56949D01*
X45221Y55640D01*
X44634Y54222D01*
X44275Y52730D01*
X44155Y51200D01*
X44275Y49670D01*
X44634Y48178D01*
X45221Y46760D01*
X46023Y45451D01*
X47019Y44284D01*
X48186Y43288D01*
X49090Y42734D01*
Y25991D01*
X37090D01*
Y46596D01*
X37465Y47239D01*
X37784Y47916D01*
X38042Y48619D01*
X38238Y49342D01*
X38369Y50080D01*
X38435Y50826D01*
Y51574D01*
X38369Y52321D01*
X38238Y53058D01*
X38042Y53781D01*
X37784Y54484D01*
X37465Y55161D01*
X37090Y55804D01*
Y63220D01*
X37327Y63048D01*
X37974Y62670D01*
X38651Y62351D01*
X39354Y62093D01*
X40077Y61897D01*
X40814Y61766D01*
X41561Y61700D01*
X42309D01*
X43056Y61766D01*
X43793Y61897D01*
X44516Y62093D01*
X45219Y62351D01*
X45896Y62670D01*
X46543Y63048D01*
X47154Y63481D01*
X47214Y63534D01*
X47263Y63596D01*
X47303Y63666D01*
X47331Y63740D01*
X47347Y63819D01*
X47351Y63898D01*
X47342Y63978D01*
X47321Y64055D01*
X47288Y64127D01*
X47244Y64194D01*
X47191Y64253D01*
X47128Y64303D01*
X47059Y64343D01*
X46984Y64371D01*
X46906Y64387D01*
X46826Y64391D01*
X46747Y64382D01*
X46670Y64361D01*
X46597Y64328D01*
X46531Y64283D01*
X45997Y63895D01*
X45427Y63562D01*
X44830Y63281D01*
X44210Y63053D01*
X43573Y62881D01*
X42923Y62765D01*
X42265Y62707D01*
X41605D01*
X40947Y62765D01*
X40297Y62881D01*
X39660Y63053D01*
X39040Y63281D01*
X38443Y63562D01*
X37873Y63895D01*
X37334Y64277D01*
X37269Y64321D01*
X37198Y64354D01*
X37122Y64375D01*
X37090Y64378D01*
Y76015D01*
X37123Y76018D01*
X37200Y76039D01*
X37273Y76072D01*
X37339Y76117D01*
X37873Y76505D01*
X38443Y76838D01*
X39040Y77119D01*
X39660Y77347D01*
X40297Y77519D01*
X40947Y77635D01*
X41605Y77693D01*
X42265D01*
X42923Y77635D01*
X43573Y77519D01*
X44210Y77347D01*
X44830Y77119D01*
X45427Y76838D01*
X45997Y76505D01*
X46536Y76123D01*
X46601Y76079D01*
X46672Y76046D01*
X46748Y76025D01*
X46826Y76017D01*
X46905Y76020D01*
X46982Y76036D01*
X47056Y76064D01*
X47124Y76103D01*
X47186Y76152D01*
X47239Y76210D01*
X47282Y76276D01*
X47314Y76348D01*
X47335Y76424D01*
X47344Y76502D01*
X47340Y76581D01*
X47324Y76658D01*
X47296Y76731D01*
X47257Y76800D01*
X47208Y76861D01*
X47149Y76913D01*
X46543Y77352D01*
X45896Y77730D01*
X45219Y78049D01*
X44516Y78307D01*
X43793Y78503D01*
X43056Y78634D01*
X42309Y78700D01*
X41561D01*
X40814Y78634D01*
X40077Y78503D01*
X39354Y78307D01*
X38651Y78049D01*
X37974Y77730D01*
X37327Y77352D01*
X37090Y77184D01*
Y78991D01*
G37*
G36*
X34780D02*X37090D01*
Y77184D01*
X36716Y76919D01*
X36656Y76866D01*
X36607Y76804D01*
X36567Y76734D01*
X36539Y76660D01*
X36523Y76581D01*
X36519Y76502D01*
X36528Y76422D01*
X36549Y76345D01*
X36582Y76273D01*
X36626Y76206D01*
X36679Y76147D01*
X36742Y76097D01*
X36811Y76057D01*
X36886Y76029D01*
X36964Y76013D01*
X37044Y76009D01*
X37090Y76015D01*
Y64378D01*
X37044Y64383D01*
X36965Y64380D01*
X36888Y64364D01*
X36814Y64336D01*
X36746Y64297D01*
X36684Y64248D01*
X36631Y64190D01*
X36588Y64124D01*
X36556Y64052D01*
X36535Y63976D01*
X36526Y63898D01*
X36530Y63819D01*
X36546Y63742D01*
X36574Y63669D01*
X36613Y63600D01*
X36662Y63539D01*
X36721Y63487D01*
X37090Y63220D01*
Y55804D01*
X37087Y55808D01*
X36654Y56419D01*
X36601Y56479D01*
X36539Y56528D01*
X36469Y56568D01*
X36395Y56596D01*
X36316Y56612D01*
X36237Y56616D01*
X36157Y56607D01*
X36080Y56586D01*
X36008Y56553D01*
X35941Y56509D01*
X35882Y56456D01*
X35832Y56393D01*
X35792Y56324D01*
X35764Y56249D01*
X35748Y56171D01*
X35744Y56091D01*
X35753Y56012D01*
X35774Y55935D01*
X35807Y55862D01*
X35852Y55796D01*
X36240Y55262D01*
X36573Y54692D01*
X36854Y54095D01*
X37082Y53475D01*
X37090Y53445D01*
Y48955D01*
X37082Y48925D01*
X36854Y48305D01*
X36573Y47708D01*
X36240Y47138D01*
X35858Y46599D01*
X35814Y46534D01*
X35781Y46463D01*
X35760Y46387D01*
X35752Y46309D01*
X35755Y46230D01*
X35771Y46153D01*
X35799Y46079D01*
X35838Y46011D01*
X35887Y45949D01*
X35945Y45896D01*
X36011Y45853D01*
X36083Y45821D01*
X36159Y45800D01*
X36237Y45791D01*
X36316Y45795D01*
X36393Y45811D01*
X36466Y45839D01*
X36535Y45878D01*
X36596Y45927D01*
X36648Y45986D01*
X37087Y46592D01*
X37090Y46596D01*
Y25991D01*
X34780D01*
Y44216D01*
X35154Y44481D01*
X35214Y44534D01*
X35263Y44596D01*
X35303Y44666D01*
X35331Y44740D01*
X35347Y44819D01*
X35351Y44898D01*
X35342Y44978D01*
X35321Y45055D01*
X35288Y45127D01*
X35244Y45194D01*
X35191Y45253D01*
X35128Y45303D01*
X35059Y45343D01*
X34984Y45371D01*
X34906Y45387D01*
X34826Y45391D01*
X34780Y45386D01*
Y57022D01*
X34826Y57017D01*
X34905Y57020D01*
X34982Y57036D01*
X35056Y57064D01*
X35124Y57103D01*
X35186Y57152D01*
X35239Y57210D01*
X35282Y57276D01*
X35314Y57348D01*
X35335Y57424D01*
X35344Y57502D01*
X35340Y57581D01*
X35324Y57658D01*
X35296Y57731D01*
X35257Y57800D01*
X35208Y57861D01*
X35149Y57913D01*
X34780Y58180D01*
Y65596D01*
X34783Y65592D01*
X35216Y64981D01*
X35269Y64921D01*
X35331Y64872D01*
X35401Y64832D01*
X35475Y64804D01*
X35554Y64788D01*
X35633Y64784D01*
X35713Y64793D01*
X35790Y64814D01*
X35862Y64847D01*
X35929Y64891D01*
X35988Y64944D01*
X36038Y65007D01*
X36078Y65076D01*
X36106Y65151D01*
X36122Y65229D01*
X36126Y65309D01*
X36117Y65388D01*
X36096Y65465D01*
X36063Y65538D01*
X36018Y65604D01*
X35630Y66138D01*
X35297Y66708D01*
X35016Y67305D01*
X34788Y67925D01*
X34780Y67955D01*
Y72445D01*
X34788Y72475D01*
X35016Y73095D01*
X35297Y73692D01*
X35630Y74262D01*
X36012Y74801D01*
X36056Y74866D01*
X36089Y74937D01*
X36110Y75013D01*
X36118Y75091D01*
X36115Y75170D01*
X36099Y75247D01*
X36071Y75321D01*
X36032Y75389D01*
X35983Y75451D01*
X35925Y75504D01*
X35859Y75547D01*
X35787Y75579D01*
X35711Y75600D01*
X35633Y75609D01*
X35554Y75605D01*
X35477Y75589D01*
X35404Y75561D01*
X35335Y75522D01*
X35274Y75473D01*
X35222Y75414D01*
X34783Y74808D01*
X34780Y74804D01*
Y78991D01*
G37*
G36*
Y67955D02*X34616Y68562D01*
X34500Y69212D01*
X34442Y69870D01*
Y70530D01*
X34500Y71188D01*
X34616Y71838D01*
X34780Y72445D01*
Y67955D01*
G37*
G36*
Y45386D02*X34747Y45382D01*
X34670Y45361D01*
X34597Y45328D01*
X34531Y45283D01*
X33997Y44895D01*
X33427Y44562D01*
X32830Y44281D01*
X32210Y44053D01*
X31573Y43881D01*
X30923Y43765D01*
X30265Y43707D01*
X29939D01*
Y58693D01*
X30265D01*
X30923Y58635D01*
X31573Y58519D01*
X32210Y58347D01*
X32830Y58119D01*
X33427Y57838D01*
X33997Y57505D01*
X34536Y57123D01*
X34601Y57079D01*
X34672Y57046D01*
X34748Y57025D01*
X34780Y57022D01*
Y45386D01*
G37*
G36*
Y25991D02*X29939D01*
Y42700D01*
X30309D01*
X31056Y42766D01*
X31793Y42897D01*
X32516Y43093D01*
X33219Y43351D01*
X33896Y43670D01*
X34543Y44048D01*
X34780Y44216D01*
Y25991D01*
G37*
G36*
X29939Y78991D02*X34780D01*
Y74804D01*
X34405Y74161D01*
X34086Y73484D01*
X33828Y72781D01*
X33632Y72058D01*
X33501Y71321D01*
X33435Y70574D01*
Y69826D01*
X33501Y69080D01*
X33632Y68342D01*
X33828Y67619D01*
X34086Y66916D01*
X34405Y66239D01*
X34780Y65596D01*
Y58180D01*
X34543Y58352D01*
X33896Y58730D01*
X33219Y59049D01*
X32516Y59307D01*
X31793Y59503D01*
X31056Y59634D01*
X30309Y59700D01*
X29939D01*
Y78991D01*
G37*
G36*
X22780D02*X29939D01*
Y59700D01*
X29561D01*
X28814Y59634D01*
X28077Y59503D01*
X27354Y59307D01*
X26651Y59049D01*
X25974Y58730D01*
X25327Y58352D01*
X24716Y57919D01*
X24656Y57866D01*
X24607Y57804D01*
X24567Y57734D01*
X24539Y57660D01*
X24523Y57581D01*
X24519Y57502D01*
X24528Y57422D01*
X24549Y57345D01*
X24582Y57273D01*
X24626Y57206D01*
X24679Y57147D01*
X24742Y57097D01*
X24811Y57057D01*
X24886Y57029D01*
X24964Y57013D01*
X25044Y57009D01*
X25123Y57018D01*
X25200Y57039D01*
X25273Y57072D01*
X25339Y57117D01*
X25873Y57505D01*
X26443Y57838D01*
X27040Y58119D01*
X27660Y58347D01*
X28297Y58519D01*
X28947Y58635D01*
X29605Y58693D01*
X29939D01*
Y43707D01*
X29605D01*
X28947Y43765D01*
X28297Y43881D01*
X27660Y44053D01*
X27040Y44281D01*
X26443Y44562D01*
X25873Y44895D01*
X25334Y45277D01*
X25269Y45321D01*
X25198Y45354D01*
X25122Y45375D01*
X25044Y45383D01*
X24965Y45380D01*
X24888Y45364D01*
X24814Y45336D01*
X24746Y45297D01*
X24684Y45248D01*
X24631Y45190D01*
X24588Y45124D01*
X24556Y45052D01*
X24535Y44976D01*
X24526Y44898D01*
X24530Y44819D01*
X24546Y44742D01*
X24574Y44669D01*
X24613Y44600D01*
X24662Y44539D01*
X24721Y44487D01*
X25327Y44048D01*
X25974Y43670D01*
X26651Y43351D01*
X27354Y43093D01*
X28077Y42897D01*
X28814Y42766D01*
X29561Y42700D01*
X29939D01*
Y25991D01*
X22780D01*
Y46596D01*
X22783Y46592D01*
X23216Y45981D01*
X23269Y45921D01*
X23331Y45872D01*
X23401Y45832D01*
X23475Y45804D01*
X23554Y45788D01*
X23633Y45784D01*
X23713Y45793D01*
X23790Y45814D01*
X23862Y45847D01*
X23929Y45891D01*
X23988Y45944D01*
X24038Y46007D01*
X24078Y46076D01*
X24106Y46151D01*
X24122Y46229D01*
X24126Y46309D01*
X24117Y46388D01*
X24096Y46465D01*
X24063Y46538D01*
X24018Y46604D01*
X23630Y47138D01*
X23297Y47708D01*
X23016Y48305D01*
X22788Y48925D01*
X22780Y48955D01*
Y53445D01*
X22788Y53475D01*
X23016Y54095D01*
X23297Y54692D01*
X23630Y55262D01*
X24012Y55801D01*
X24056Y55866D01*
X24089Y55937D01*
X24110Y56013D01*
X24118Y56091D01*
X24115Y56170D01*
X24099Y56247D01*
X24071Y56321D01*
X24032Y56389D01*
X23983Y56451D01*
X23925Y56504D01*
X23859Y56547D01*
X23787Y56579D01*
X23711Y56600D01*
X23633Y56609D01*
X23554Y56605D01*
X23477Y56589D01*
X23404Y56561D01*
X23335Y56522D01*
X23274Y56473D01*
X23222Y56414D01*
X22783Y55808D01*
X22780Y55804D01*
Y78991D01*
G37*
G36*
Y48955D02*X22616Y49562D01*
X22500Y50212D01*
X22442Y50870D01*
Y51530D01*
X22500Y52188D01*
X22616Y52838D01*
X22780Y53445D01*
Y48955D01*
G37*
G36*
X1113Y25991D02*Y78991D01*
X22780D01*
Y55804D01*
X22405Y55161D01*
X22086Y54484D01*
X21828Y53781D01*
X21632Y53058D01*
X21501Y52321D01*
X21435Y51574D01*
Y50826D01*
X21501Y50080D01*
X21632Y49342D01*
X21828Y48619D01*
X22086Y47916D01*
X22405Y47239D01*
X22780Y46596D01*
Y25991D01*
X1113D01*
G37*
G36*
X228000Y78991D02*X238613D01*
Y991D01*
X228000D01*
Y8507D01*
X232235Y8514D01*
X232465Y8569D01*
X232683Y8659D01*
X232884Y8783D01*
X233064Y8936D01*
X233217Y9116D01*
X233341Y9317D01*
X233431Y9535D01*
X233486Y9765D01*
X233500Y10000D01*
X233486Y18235D01*
X233431Y18465D01*
X233341Y18683D01*
X233217Y18884D01*
X233064Y19064D01*
X232884Y19217D01*
X232683Y19341D01*
X232465Y19431D01*
X232235Y19486D01*
X232000Y19500D01*
X228000Y19493D01*
Y59681D01*
X228989Y59758D01*
X229953Y59990D01*
X230869Y60369D01*
X231714Y60887D01*
X232469Y61531D01*
X233113Y62286D01*
X233631Y63131D01*
X234010Y64047D01*
X234242Y65011D01*
X234300Y66000D01*
X234242Y66989D01*
X234010Y67953D01*
X233631Y68869D01*
X233113Y69714D01*
X232469Y70469D01*
X231714Y71113D01*
X230869Y71631D01*
X229953Y72010D01*
X228989Y72242D01*
X228000Y72319D01*
Y78991D01*
G37*
G36*
X212493D02*X228000D01*
Y72319D01*
X227011Y72242D01*
X226047Y72010D01*
X225131Y71631D01*
X224286Y71113D01*
X223531Y70469D01*
X222887Y69714D01*
X222369Y68869D01*
X221990Y67953D01*
X221758Y66989D01*
X221681Y66000D01*
X221758Y65011D01*
X221990Y64047D01*
X222369Y63131D01*
X222887Y62286D01*
X223531Y61531D01*
X224286Y60887D01*
X225131Y60369D01*
X226047Y59990D01*
X227011Y59758D01*
X228000Y59681D01*
Y19493D01*
X223765Y19486D01*
X223535Y19431D01*
X223317Y19341D01*
X223116Y19217D01*
X222936Y19064D01*
X222783Y18884D01*
X222659Y18683D01*
X222569Y18465D01*
X222514Y18235D01*
X222500Y18000D01*
X222514Y9765D01*
X222569Y9535D01*
X222659Y9317D01*
X222783Y9116D01*
X222936Y8936D01*
X223116Y8783D01*
X223317Y8659D01*
X223535Y8569D01*
X223765Y8514D01*
X224000Y8500D01*
X228000Y8507D01*
Y991D01*
X212493D01*
Y11145D01*
X212578Y11181D01*
X212679Y11243D01*
X212769Y11319D01*
X212845Y11409D01*
X212905Y11511D01*
X213122Y11980D01*
X213289Y12469D01*
X213409Y12972D01*
X213482Y13484D01*
X213506Y14000D01*
X213482Y14516D01*
X213409Y15028D01*
X213289Y15531D01*
X213122Y16020D01*
X212910Y16492D01*
X212849Y16593D01*
X212772Y16684D01*
X212682Y16761D01*
X212580Y16823D01*
X212493Y16860D01*
Y59753D01*
X212713Y59806D01*
X213047Y59944D01*
X213356Y60134D01*
X213631Y60369D01*
X213866Y60644D01*
X214056Y60953D01*
X214194Y61287D01*
X214279Y61639D01*
X214300Y62000D01*
X214279Y70361D01*
X214194Y70713D01*
X214056Y71047D01*
X213866Y71356D01*
X213631Y71631D01*
X213356Y71866D01*
X213047Y72056D01*
X212713Y72194D01*
X212493Y72247D01*
Y78991D01*
G37*
G36*
Y991D02*X208002D01*
Y8494D01*
X208516Y8518D01*
X209028Y8591D01*
X209531Y8711D01*
X210020Y8878D01*
X210492Y9090D01*
X210593Y9151D01*
X210684Y9228D01*
X210761Y9318D01*
X210823Y9420D01*
X210869Y9529D01*
X210897Y9645D01*
X210906Y9763D01*
X210897Y9881D01*
X210870Y9997D01*
X210824Y10107D01*
X210762Y10208D01*
X210686Y10298D01*
X210595Y10376D01*
X210494Y10438D01*
X210385Y10484D01*
X210269Y10511D01*
X210151Y10521D01*
X210032Y10512D01*
X209917Y10484D01*
X209808Y10437D01*
X209468Y10279D01*
X209112Y10158D01*
X208747Y10070D01*
X208375Y10018D01*
X208002Y10000D01*
Y18000D01*
X208375Y17982D01*
X208747Y17930D01*
X209112Y17842D01*
X209468Y17721D01*
X209810Y17567D01*
X209918Y17520D01*
X210033Y17493D01*
X210151Y17483D01*
X210268Y17493D01*
X210383Y17521D01*
X210492Y17566D01*
X210593Y17628D01*
X210682Y17705D01*
X210759Y17795D01*
X210820Y17895D01*
X210865Y18004D01*
X210893Y18119D01*
X210902Y18237D01*
X210892Y18355D01*
X210865Y18469D01*
X210819Y18578D01*
X210757Y18679D01*
X210681Y18769D01*
X210591Y18845D01*
X210489Y18905D01*
X210020Y19122D01*
X209531Y19289D01*
X209028Y19409D01*
X208516Y19482D01*
X208002Y19506D01*
Y59710D01*
X212361Y59721D01*
X212493Y59753D01*
Y16860D01*
X212471Y16869D01*
X212355Y16897D01*
X212237Y16906D01*
X212119Y16897D01*
X212003Y16870D01*
X211893Y16824D01*
X211792Y16762D01*
X211702Y16686D01*
X211624Y16595D01*
X211562Y16494D01*
X211516Y16385D01*
X211489Y16269D01*
X211479Y16151D01*
X211488Y16032D01*
X211516Y15917D01*
X211563Y15808D01*
X211721Y15468D01*
X211842Y15112D01*
X211930Y14747D01*
X211982Y14375D01*
X212000Y14000D01*
X211982Y13625D01*
X211930Y13253D01*
X211842Y12888D01*
X211721Y12532D01*
X211567Y12190D01*
X211520Y12082D01*
X211493Y11967D01*
X211483Y11849D01*
X211493Y11732D01*
X211521Y11617D01*
X211566Y11508D01*
X211628Y11407D01*
X211705Y11318D01*
X211795Y11241D01*
X211895Y11180D01*
X212004Y11135D01*
X212119Y11107D01*
X212237Y11098D01*
X212355Y11108D01*
X212469Y11135D01*
X212493Y11145D01*
Y991D01*
G37*
G36*
X208002Y78991D02*X212493D01*
Y72247D01*
X212361Y72279D01*
X212000Y72300D01*
X208002Y72290D01*
Y78991D01*
G37*
G36*
X203507Y59753D02*X203639Y59721D01*
X204000Y59700D01*
X208002Y59710D01*
Y19506D01*
X208000Y19506D01*
X207484Y19482D01*
X206972Y19409D01*
X206469Y19289D01*
X205980Y19122D01*
X205508Y18910D01*
X205407Y18849D01*
X205316Y18772D01*
X205239Y18682D01*
X205177Y18580D01*
X205131Y18471D01*
X205103Y18355D01*
X205094Y18237D01*
X205103Y18119D01*
X205130Y18003D01*
X205176Y17893D01*
X205238Y17792D01*
X205314Y17702D01*
X205405Y17624D01*
X205506Y17562D01*
X205615Y17516D01*
X205731Y17489D01*
X205849Y17479D01*
X205968Y17488D01*
X206083Y17516D01*
X206192Y17563D01*
X206532Y17721D01*
X206888Y17842D01*
X207253Y17930D01*
X207625Y17982D01*
X208000Y18000D01*
X208002Y18000D01*
Y10000D01*
X208000Y10000D01*
X207625Y10018D01*
X207253Y10070D01*
X206888Y10158D01*
X206532Y10279D01*
X206190Y10433D01*
X206082Y10480D01*
X205967Y10507D01*
X205849Y10517D01*
X205732Y10507D01*
X205617Y10479D01*
X205508Y10434D01*
X205407Y10372D01*
X205318Y10295D01*
X205241Y10205D01*
X205180Y10105D01*
X205135Y9996D01*
X205107Y9881D01*
X205098Y9763D01*
X205108Y9645D01*
X205135Y9531D01*
X205181Y9422D01*
X205243Y9321D01*
X205319Y9231D01*
X205409Y9155D01*
X205511Y9095D01*
X205980Y8878D01*
X206469Y8711D01*
X206972Y8591D01*
X207484Y8518D01*
X208000Y8494D01*
X208002Y8494D01*
Y991D01*
X203507D01*
Y11140D01*
X203529Y11131D01*
X203645Y11103D01*
X203763Y11094D01*
X203881Y11103D01*
X203997Y11130D01*
X204107Y11176D01*
X204208Y11238D01*
X204298Y11314D01*
X204376Y11405D01*
X204438Y11506D01*
X204484Y11615D01*
X204511Y11731D01*
X204521Y11849D01*
X204512Y11968D01*
X204484Y12083D01*
X204437Y12192D01*
X204279Y12532D01*
X204158Y12888D01*
X204070Y13253D01*
X204018Y13625D01*
X204000Y14000D01*
X204018Y14375D01*
X204070Y14747D01*
X204158Y15112D01*
X204279Y15468D01*
X204433Y15810D01*
X204480Y15918D01*
X204507Y16033D01*
X204517Y16151D01*
X204507Y16268D01*
X204479Y16383D01*
X204434Y16492D01*
X204372Y16593D01*
X204295Y16682D01*
X204205Y16759D01*
X204105Y16820D01*
X203996Y16865D01*
X203881Y16893D01*
X203763Y16902D01*
X203645Y16892D01*
X203531Y16865D01*
X203507Y16855D01*
Y59753D01*
G37*
G36*
Y78991D02*X208002D01*
Y72290D01*
X203639Y72279D01*
X203507Y72247D01*
Y78991D01*
G37*
G36*
X188000D02*X203507D01*
Y72247D01*
X203287Y72194D01*
X202953Y72056D01*
X202644Y71866D01*
X202369Y71631D01*
X202134Y71356D01*
X201944Y71047D01*
X201806Y70713D01*
X201721Y70361D01*
X201700Y70000D01*
X201721Y61639D01*
X201806Y61287D01*
X201944Y60953D01*
X202134Y60644D01*
X202369Y60369D01*
X202644Y60134D01*
X202953Y59944D01*
X203287Y59806D01*
X203507Y59753D01*
Y16855D01*
X203422Y16819D01*
X203321Y16757D01*
X203231Y16681D01*
X203155Y16591D01*
X203095Y16489D01*
X202878Y16020D01*
X202711Y15531D01*
X202591Y15028D01*
X202518Y14516D01*
X202494Y14000D01*
X202518Y13484D01*
X202591Y12972D01*
X202711Y12469D01*
X202878Y11980D01*
X203090Y11508D01*
X203151Y11407D01*
X203228Y11316D01*
X203318Y11239D01*
X203420Y11177D01*
X203507Y11140D01*
Y991D01*
X188000D01*
Y8507D01*
X192235Y8514D01*
X192465Y8569D01*
X192683Y8659D01*
X192884Y8783D01*
X193064Y8936D01*
X193217Y9116D01*
X193341Y9317D01*
X193431Y9535D01*
X193486Y9765D01*
X193500Y10000D01*
X193486Y18235D01*
X193431Y18465D01*
X193341Y18683D01*
X193217Y18884D01*
X193064Y19064D01*
X192884Y19217D01*
X192683Y19341D01*
X192465Y19431D01*
X192235Y19486D01*
X192000Y19500D01*
X188000Y19493D01*
Y59681D01*
X188989Y59758D01*
X189953Y59990D01*
X190869Y60369D01*
X191714Y60887D01*
X192469Y61531D01*
X193113Y62286D01*
X193631Y63131D01*
X194010Y64047D01*
X194242Y65011D01*
X194300Y66000D01*
X194242Y66989D01*
X194010Y67953D01*
X193631Y68869D01*
X193113Y69714D01*
X192469Y70469D01*
X191714Y71113D01*
X190869Y71631D01*
X189953Y72010D01*
X188989Y72242D01*
X188000Y72319D01*
Y78991D01*
G37*
G36*
X172493D02*X188000D01*
Y72319D01*
X187011Y72242D01*
X186047Y72010D01*
X185131Y71631D01*
X184286Y71113D01*
X183531Y70469D01*
X182887Y69714D01*
X182369Y68869D01*
X181990Y67953D01*
X181758Y66989D01*
X181681Y66000D01*
X181758Y65011D01*
X181990Y64047D01*
X182369Y63131D01*
X182887Y62286D01*
X183531Y61531D01*
X184286Y60887D01*
X185131Y60369D01*
X186047Y59990D01*
X187011Y59758D01*
X188000Y59681D01*
Y19493D01*
X183765Y19486D01*
X183535Y19431D01*
X183317Y19341D01*
X183116Y19217D01*
X182936Y19064D01*
X182783Y18884D01*
X182659Y18683D01*
X182569Y18465D01*
X182514Y18235D01*
X182500Y18000D01*
X182514Y9765D01*
X182569Y9535D01*
X182659Y9317D01*
X182783Y9116D01*
X182936Y8936D01*
X183116Y8783D01*
X183317Y8659D01*
X183535Y8569D01*
X183765Y8514D01*
X184000Y8500D01*
X188000Y8507D01*
Y991D01*
X172493D01*
Y11145D01*
X172578Y11181D01*
X172679Y11243D01*
X172769Y11319D01*
X172845Y11409D01*
X172905Y11511D01*
X173122Y11980D01*
X173289Y12469D01*
X173409Y12972D01*
X173482Y13484D01*
X173506Y14000D01*
X173482Y14516D01*
X173409Y15028D01*
X173289Y15531D01*
X173122Y16020D01*
X172910Y16492D01*
X172849Y16593D01*
X172772Y16684D01*
X172682Y16761D01*
X172580Y16823D01*
X172493Y16860D01*
Y34774D01*
X174459Y36741D01*
X182113D01*
X182623Y36771D01*
X183120Y36891D01*
X183593Y37086D01*
X184029Y37354D01*
X184418Y37686D01*
X184750Y38075D01*
X185018Y38511D01*
X185213Y38984D01*
X185333Y39481D01*
X185373Y39991D01*
X185333Y40501D01*
X185213Y40998D01*
X185018Y41471D01*
X184750Y41907D01*
X184418Y42296D01*
X184029Y42628D01*
X183593Y42896D01*
X183120Y43091D01*
X182623Y43211D01*
X182113Y43241D01*
X173240D01*
X173113Y43251D01*
X172603Y43211D01*
X172493Y43184D01*
Y59753D01*
X172713Y59806D01*
X173047Y59944D01*
X173356Y60134D01*
X173631Y60369D01*
X173866Y60644D01*
X174056Y60953D01*
X174194Y61287D01*
X174279Y61639D01*
X174300Y62000D01*
X174279Y70361D01*
X174194Y70713D01*
X174056Y71047D01*
X173866Y71356D01*
X173631Y71631D01*
X173356Y71866D01*
X173047Y72056D01*
X172713Y72194D01*
X172493Y72247D01*
Y78991D01*
G37*
G36*
Y43184D02*X172106Y43091D01*
X171633Y42896D01*
X171197Y42628D01*
X171197Y42628D01*
X170808Y42296D01*
X170725Y42199D01*
X168002Y39476D01*
Y59710D01*
X172361Y59721D01*
X172493Y59753D01*
Y43184D01*
G37*
G36*
Y991D02*X168002D01*
Y8494D01*
X168516Y8518D01*
X169028Y8591D01*
X169531Y8711D01*
X170020Y8878D01*
X170492Y9090D01*
X170593Y9151D01*
X170684Y9228D01*
X170761Y9318D01*
X170823Y9420D01*
X170869Y9529D01*
X170897Y9645D01*
X170906Y9763D01*
X170897Y9881D01*
X170870Y9997D01*
X170824Y10107D01*
X170762Y10208D01*
X170686Y10298D01*
X170595Y10376D01*
X170494Y10438D01*
X170385Y10484D01*
X170269Y10511D01*
X170151Y10521D01*
X170032Y10512D01*
X169917Y10484D01*
X169808Y10437D01*
X169468Y10279D01*
X169112Y10158D01*
X168747Y10070D01*
X168375Y10018D01*
X168002Y10000D01*
Y18000D01*
X168375Y17982D01*
X168747Y17930D01*
X169112Y17842D01*
X169468Y17721D01*
X169810Y17567D01*
X169918Y17520D01*
X170033Y17493D01*
X170151Y17483D01*
X170268Y17493D01*
X170383Y17521D01*
X170492Y17566D01*
X170593Y17628D01*
X170682Y17705D01*
X170759Y17795D01*
X170820Y17895D01*
X170865Y18004D01*
X170893Y18119D01*
X170902Y18237D01*
X170892Y18355D01*
X170865Y18469D01*
X170819Y18578D01*
X170757Y18679D01*
X170681Y18769D01*
X170591Y18845D01*
X170489Y18905D01*
X170020Y19122D01*
X169531Y19289D01*
X169028Y19409D01*
X168516Y19482D01*
X168002Y19506D01*
Y25001D01*
X168134Y24969D01*
X168613Y24932D01*
X169092Y24969D01*
X169558Y25081D01*
X170002Y25265D01*
X170411Y25516D01*
X170776Y25828D01*
X171088Y26193D01*
X171339Y26602D01*
X171523Y27046D01*
X171635Y27512D01*
X171663Y27991D01*
Y33945D01*
X172493Y34774D01*
Y16860D01*
X172471Y16869D01*
X172355Y16897D01*
X172237Y16906D01*
X172119Y16897D01*
X172003Y16870D01*
X171893Y16824D01*
X171792Y16762D01*
X171702Y16686D01*
X171624Y16595D01*
X171562Y16494D01*
X171516Y16385D01*
X171489Y16269D01*
X171479Y16151D01*
X171488Y16032D01*
X171516Y15917D01*
X171563Y15808D01*
X171721Y15468D01*
X171842Y15112D01*
X171930Y14747D01*
X171982Y14375D01*
X172000Y14000D01*
X171982Y13625D01*
X171930Y13253D01*
X171842Y12888D01*
X171721Y12532D01*
X171567Y12190D01*
X171520Y12082D01*
X171493Y11967D01*
X171483Y11849D01*
X171493Y11732D01*
X171521Y11617D01*
X171566Y11508D01*
X171628Y11407D01*
X171705Y11318D01*
X171795Y11241D01*
X171895Y11180D01*
X172004Y11135D01*
X172119Y11107D01*
X172237Y11098D01*
X172355Y11108D01*
X172469Y11135D01*
X172493Y11145D01*
Y991D01*
G37*
G36*
X168002Y78991D02*X172493D01*
Y72247D01*
X172361Y72279D01*
X172000Y72300D01*
X168002Y72290D01*
Y78991D01*
G37*
G36*
X163507Y59753D02*X163639Y59721D01*
X164000Y59700D01*
X168002Y59710D01*
Y39476D01*
X166315Y37789D01*
X165976Y37407D01*
X165708Y36971D01*
X165513Y36498D01*
X165393Y36001D01*
X165353Y35491D01*
X165393Y34981D01*
X165513Y34484D01*
X165563Y34362D01*
Y27991D01*
X165591Y27512D01*
X165703Y27046D01*
X165887Y26602D01*
X166138Y26193D01*
X166450Y25828D01*
X166815Y25516D01*
X167224Y25265D01*
X167668Y25081D01*
X168002Y25001D01*
Y19506D01*
X168000Y19506D01*
X167484Y19482D01*
X166972Y19409D01*
X166469Y19289D01*
X165980Y19122D01*
X165508Y18910D01*
X165407Y18849D01*
X165316Y18772D01*
X165239Y18682D01*
X165177Y18580D01*
X165131Y18471D01*
X165103Y18355D01*
X165094Y18237D01*
X165103Y18119D01*
X165130Y18003D01*
X165176Y17893D01*
X165238Y17792D01*
X165314Y17702D01*
X165405Y17624D01*
X165506Y17562D01*
X165615Y17516D01*
X165731Y17489D01*
X165849Y17479D01*
X165968Y17488D01*
X166083Y17516D01*
X166192Y17563D01*
X166532Y17721D01*
X166888Y17842D01*
X167253Y17930D01*
X167625Y17982D01*
X168000Y18000D01*
X168002Y18000D01*
Y10000D01*
X168000Y10000D01*
X167625Y10018D01*
X167253Y10070D01*
X166888Y10158D01*
X166532Y10279D01*
X166190Y10433D01*
X166082Y10480D01*
X165967Y10507D01*
X165849Y10517D01*
X165732Y10507D01*
X165617Y10479D01*
X165508Y10434D01*
X165407Y10372D01*
X165318Y10295D01*
X165241Y10205D01*
X165180Y10105D01*
X165135Y9996D01*
X165107Y9881D01*
X165098Y9763D01*
X165108Y9645D01*
X165135Y9531D01*
X165181Y9422D01*
X165243Y9321D01*
X165319Y9231D01*
X165409Y9155D01*
X165511Y9095D01*
X165980Y8878D01*
X166469Y8711D01*
X166972Y8591D01*
X167484Y8518D01*
X168000Y8494D01*
X168002Y8494D01*
Y991D01*
X163507D01*
Y11140D01*
X163529Y11131D01*
X163645Y11103D01*
X163763Y11094D01*
X163881Y11103D01*
X163997Y11130D01*
X164107Y11176D01*
X164208Y11238D01*
X164298Y11314D01*
X164376Y11405D01*
X164438Y11506D01*
X164484Y11615D01*
X164511Y11731D01*
X164521Y11849D01*
X164512Y11968D01*
X164484Y12083D01*
X164437Y12192D01*
X164279Y12532D01*
X164158Y12888D01*
X164070Y13253D01*
X164018Y13625D01*
X164000Y14000D01*
X164018Y14375D01*
X164070Y14747D01*
X164158Y15112D01*
X164279Y15468D01*
X164433Y15810D01*
X164480Y15918D01*
X164507Y16033D01*
X164517Y16151D01*
X164507Y16268D01*
X164479Y16383D01*
X164434Y16492D01*
X164372Y16593D01*
X164295Y16682D01*
X164205Y16759D01*
X164105Y16820D01*
X163996Y16865D01*
X163881Y16893D01*
X163763Y16902D01*
X163645Y16892D01*
X163531Y16865D01*
X163507Y16855D01*
Y59753D01*
G37*
G36*
Y78991D02*X168002D01*
Y72290D01*
X163639Y72279D01*
X163507Y72247D01*
Y78991D01*
G37*
G36*
X148013D02*X163507D01*
Y72247D01*
X163287Y72194D01*
X162953Y72056D01*
X162644Y71866D01*
X162369Y71631D01*
X162134Y71356D01*
X161944Y71047D01*
X161806Y70713D01*
X161721Y70361D01*
X161700Y70000D01*
X161721Y61639D01*
X161806Y61287D01*
X161944Y60953D01*
X162134Y60644D01*
X162369Y60369D01*
X162644Y60134D01*
X162953Y59944D01*
X163287Y59806D01*
X163507Y59753D01*
Y16855D01*
X163422Y16819D01*
X163321Y16757D01*
X163231Y16681D01*
X163155Y16591D01*
X163095Y16489D01*
X162878Y16020D01*
X162711Y15531D01*
X162591Y15028D01*
X162518Y14516D01*
X162494Y14000D01*
X162518Y13484D01*
X162591Y12972D01*
X162711Y12469D01*
X162878Y11980D01*
X163090Y11508D01*
X163151Y11407D01*
X163228Y11316D01*
X163318Y11239D01*
X163420Y11177D01*
X163507Y11140D01*
Y991D01*
X148013D01*
Y8498D01*
X152248Y8505D01*
X152478Y8560D01*
X152696Y8650D01*
X152897Y8774D01*
X153077Y8927D01*
X153230Y9107D01*
X153354Y9308D01*
X153444Y9526D01*
X153499Y9756D01*
X153513Y9991D01*
X153499Y18226D01*
X153444Y18456D01*
X153354Y18674D01*
X153230Y18875D01*
X153077Y19055D01*
X152897Y19208D01*
X152696Y19332D01*
X152478Y19422D01*
X152248Y19477D01*
X152013Y19491D01*
X148013Y19484D01*
Y59672D01*
X149002Y59749D01*
X149966Y59981D01*
X150882Y60360D01*
X151727Y60878D01*
X152482Y61522D01*
X153126Y62277D01*
X153644Y63122D01*
X154023Y64038D01*
X154255Y65002D01*
X154313Y65991D01*
X154255Y66980D01*
X154023Y67944D01*
X153644Y68860D01*
X153126Y69705D01*
X152482Y70460D01*
X151727Y71104D01*
X150882Y71622D01*
X149966Y72001D01*
X149002Y72233D01*
X148013Y72310D01*
Y78991D01*
G37*
G36*
X132506D02*X148013D01*
Y72310D01*
X147024Y72233D01*
X146060Y72001D01*
X145144Y71622D01*
X144299Y71104D01*
X143544Y70460D01*
X142900Y69705D01*
X142382Y68860D01*
X142003Y67944D01*
X141771Y66980D01*
X141694Y65991D01*
X141771Y65002D01*
X142003Y64038D01*
X142382Y63122D01*
X142900Y62277D01*
X143544Y61522D01*
X144299Y60878D01*
X145144Y60360D01*
X146060Y59981D01*
X147024Y59749D01*
X148013Y59672D01*
Y19484D01*
X143778Y19477D01*
X143548Y19422D01*
X143330Y19332D01*
X143129Y19208D01*
X142949Y19055D01*
X142796Y18875D01*
X142672Y18674D01*
X142582Y18456D01*
X142527Y18226D01*
X142513Y17991D01*
X142527Y9756D01*
X142582Y9526D01*
X142672Y9308D01*
X142796Y9107D01*
X142949Y8927D01*
X143129Y8774D01*
X143330Y8650D01*
X143548Y8560D01*
X143778Y8505D01*
X144013Y8491D01*
X148013Y8498D01*
Y991D01*
X132506D01*
Y11136D01*
X132591Y11172D01*
X132692Y11234D01*
X132782Y11310D01*
X132858Y11400D01*
X132918Y11502D01*
X133135Y11971D01*
X133302Y12460D01*
X133422Y12963D01*
X133495Y13475D01*
X133519Y13991D01*
X133495Y14507D01*
X133422Y15019D01*
X133302Y15522D01*
X133135Y16011D01*
X132923Y16483D01*
X132862Y16584D01*
X132785Y16675D01*
X132695Y16752D01*
X132593Y16814D01*
X132506Y16851D01*
Y59744D01*
X132726Y59797D01*
X133060Y59935D01*
X133369Y60125D01*
X133644Y60360D01*
X133879Y60635D01*
X134069Y60944D01*
X134207Y61278D01*
X134292Y61630D01*
X134313Y61991D01*
X134292Y70352D01*
X134207Y70704D01*
X134069Y71038D01*
X133879Y71347D01*
X133644Y71622D01*
X133369Y71857D01*
X133060Y72047D01*
X132726Y72185D01*
X132506Y72238D01*
Y78991D01*
G37*
G36*
Y991D02*X128013D01*
Y8485D01*
X128529Y8509D01*
X129041Y8582D01*
X129544Y8702D01*
X130033Y8869D01*
X130505Y9081D01*
X130606Y9142D01*
X130697Y9219D01*
X130774Y9309D01*
X130836Y9411D01*
X130882Y9520D01*
X130910Y9636D01*
X130919Y9754D01*
X130910Y9872D01*
X130883Y9988D01*
X130837Y10098D01*
X130775Y10199D01*
X130699Y10289D01*
X130608Y10367D01*
X130507Y10429D01*
X130398Y10475D01*
X130282Y10502D01*
X130164Y10512D01*
X130045Y10503D01*
X129930Y10475D01*
X129821Y10428D01*
X129481Y10270D01*
X129125Y10149D01*
X128760Y10061D01*
X128388Y10009D01*
X128013Y9991D01*
Y17991D01*
X128388Y17973D01*
X128760Y17921D01*
X129125Y17833D01*
X129481Y17712D01*
X129823Y17558D01*
X129931Y17511D01*
X130046Y17484D01*
X130164Y17474D01*
X130281Y17484D01*
X130396Y17512D01*
X130505Y17557D01*
X130606Y17619D01*
X130695Y17696D01*
X130772Y17786D01*
X130833Y17886D01*
X130878Y17995D01*
X130906Y18110D01*
X130915Y18228D01*
X130905Y18346D01*
X130878Y18460D01*
X130832Y18569D01*
X130770Y18670D01*
X130694Y18760D01*
X130604Y18836D01*
X130502Y18896D01*
X130033Y19113D01*
X129544Y19280D01*
X129041Y19400D01*
X128529Y19473D01*
X128013Y19497D01*
Y59701D01*
X132374Y59712D01*
X132506Y59744D01*
Y16851D01*
X132484Y16860D01*
X132368Y16888D01*
X132250Y16897D01*
X132132Y16888D01*
X132016Y16861D01*
X131906Y16815D01*
X131805Y16753D01*
X131715Y16677D01*
X131637Y16586D01*
X131575Y16485D01*
X131529Y16376D01*
X131502Y16260D01*
X131492Y16142D01*
X131501Y16023D01*
X131529Y15908D01*
X131576Y15799D01*
X131734Y15459D01*
X131855Y15103D01*
X131943Y14738D01*
X131995Y14366D01*
X132013Y13991D01*
X131995Y13616D01*
X131943Y13244D01*
X131855Y12879D01*
X131734Y12523D01*
X131580Y12181D01*
X131533Y12073D01*
X131506Y11958D01*
X131496Y11840D01*
X131506Y11723D01*
X131534Y11608D01*
X131579Y11499D01*
X131641Y11398D01*
X131718Y11309D01*
X131808Y11232D01*
X131908Y11171D01*
X132017Y11126D01*
X132132Y11098D01*
X132250Y11089D01*
X132368Y11099D01*
X132482Y11126D01*
X132506Y11136D01*
Y991D01*
G37*
G36*
X128013Y78991D02*X132506D01*
Y72238D01*
X132374Y72270D01*
X132013Y72291D01*
X128013Y72281D01*
Y78991D01*
G37*
G36*
X123520Y59744D02*X123652Y59712D01*
X124013Y59691D01*
X128013Y59701D01*
Y19497D01*
X128013D01*
X127497Y19473D01*
X126985Y19400D01*
X126482Y19280D01*
X125993Y19113D01*
X125521Y18901D01*
X125420Y18840D01*
X125329Y18763D01*
X125252Y18673D01*
X125190Y18571D01*
X125144Y18462D01*
X125116Y18346D01*
X125107Y18228D01*
X125116Y18110D01*
X125143Y17994D01*
X125189Y17884D01*
X125251Y17783D01*
X125327Y17693D01*
X125418Y17615D01*
X125519Y17553D01*
X125628Y17507D01*
X125744Y17480D01*
X125862Y17470D01*
X125981Y17479D01*
X126096Y17507D01*
X126205Y17554D01*
X126545Y17712D01*
X126901Y17833D01*
X127266Y17921D01*
X127638Y17973D01*
X128013Y17991D01*
Y9991D01*
X127638Y10009D01*
X127266Y10061D01*
X126901Y10149D01*
X126545Y10270D01*
X126203Y10424D01*
X126095Y10471D01*
X125980Y10498D01*
X125862Y10508D01*
X125745Y10498D01*
X125630Y10470D01*
X125521Y10425D01*
X125420Y10363D01*
X125331Y10286D01*
X125254Y10196D01*
X125193Y10096D01*
X125148Y9987D01*
X125120Y9872D01*
X125111Y9754D01*
X125121Y9636D01*
X125148Y9522D01*
X125194Y9413D01*
X125256Y9312D01*
X125332Y9222D01*
X125422Y9146D01*
X125524Y9086D01*
X125993Y8869D01*
X126482Y8702D01*
X126985Y8582D01*
X127497Y8509D01*
X128013Y8485D01*
Y991D01*
X123520D01*
Y11131D01*
X123542Y11122D01*
X123658Y11094D01*
X123776Y11085D01*
X123894Y11094D01*
X124010Y11121D01*
X124120Y11167D01*
X124221Y11229D01*
X124311Y11305D01*
X124389Y11396D01*
X124451Y11497D01*
X124497Y11606D01*
X124524Y11722D01*
X124534Y11840D01*
X124525Y11959D01*
X124497Y12074D01*
X124450Y12183D01*
X124292Y12523D01*
X124171Y12879D01*
X124083Y13244D01*
X124031Y13616D01*
X124013Y13991D01*
X124031Y14366D01*
X124083Y14738D01*
X124171Y15103D01*
X124292Y15459D01*
X124446Y15801D01*
X124493Y15909D01*
X124520Y16024D01*
X124530Y16142D01*
X124520Y16259D01*
X124492Y16374D01*
X124447Y16483D01*
X124385Y16584D01*
X124308Y16673D01*
X124218Y16750D01*
X124118Y16811D01*
X124009Y16856D01*
X123894Y16884D01*
X123776Y16893D01*
X123658Y16883D01*
X123544Y16856D01*
X123520Y16846D01*
Y59744D01*
G37*
G36*
Y78991D02*X128013D01*
Y72281D01*
X123652Y72270D01*
X123520Y72238D01*
Y78991D01*
G37*
G36*
X108003D02*X123520D01*
Y72238D01*
X123300Y72185D01*
X122966Y72047D01*
X122657Y71857D01*
X122382Y71622D01*
X122147Y71347D01*
X121957Y71038D01*
X121819Y70704D01*
X121734Y70352D01*
X121713Y69991D01*
X121734Y61630D01*
X121819Y61278D01*
X121957Y60944D01*
X122147Y60635D01*
X122382Y60360D01*
X122657Y60125D01*
X122966Y59935D01*
X123300Y59797D01*
X123520Y59744D01*
Y16846D01*
X123435Y16810D01*
X123334Y16748D01*
X123244Y16672D01*
X123168Y16582D01*
X123108Y16480D01*
X122891Y16011D01*
X122724Y15522D01*
X122604Y15019D01*
X122531Y14507D01*
X122507Y13991D01*
X122531Y13475D01*
X122604Y12963D01*
X122724Y12460D01*
X122891Y11971D01*
X123103Y11499D01*
X123164Y11398D01*
X123241Y11307D01*
X123331Y11230D01*
X123433Y11168D01*
X123520Y11131D01*
Y991D01*
X108003D01*
Y8498D01*
X112248Y8505D01*
X112478Y8560D01*
X112696Y8650D01*
X112897Y8774D01*
X113077Y8927D01*
X113230Y9107D01*
X113354Y9308D01*
X113444Y9526D01*
X113499Y9756D01*
X113513Y9991D01*
X113499Y18226D01*
X113444Y18456D01*
X113354Y18674D01*
X113230Y18875D01*
X113077Y19055D01*
X112897Y19208D01*
X112696Y19332D01*
X112478Y19422D01*
X112248Y19477D01*
X112013Y19491D01*
X108003Y19484D01*
Y59672D01*
X108013Y59672D01*
X109002Y59749D01*
X109966Y59981D01*
X110882Y60360D01*
X111727Y60878D01*
X112482Y61522D01*
X113126Y62277D01*
X113644Y63122D01*
X114023Y64038D01*
X114255Y65002D01*
X114313Y65991D01*
X114255Y66980D01*
X114023Y67944D01*
X113644Y68860D01*
X113126Y69705D01*
X112482Y70460D01*
X111727Y71104D01*
X110882Y71622D01*
X109966Y72001D01*
X109002Y72233D01*
X108013Y72310D01*
X108003Y72310D01*
Y78991D01*
G37*
G36*
X92506D02*X108003D01*
Y72310D01*
X107024Y72233D01*
X106060Y72001D01*
X105144Y71622D01*
X104299Y71104D01*
X103544Y70460D01*
X102900Y69705D01*
X102382Y68860D01*
X102003Y67944D01*
X101771Y66980D01*
X101694Y65991D01*
X101771Y65002D01*
X102003Y64038D01*
X102382Y63122D01*
X102900Y62277D01*
X103544Y61522D01*
X104299Y60878D01*
X105144Y60360D01*
X106060Y59981D01*
X107024Y59749D01*
X108003Y59672D01*
Y19484D01*
X103778Y19477D01*
X103548Y19422D01*
X103330Y19332D01*
X103129Y19208D01*
X102949Y19055D01*
X102796Y18875D01*
X102672Y18674D01*
X102582Y18456D01*
X102527Y18226D01*
X102513Y17991D01*
X102527Y9756D01*
X102582Y9526D01*
X102672Y9308D01*
X102796Y9107D01*
X102949Y8927D01*
X103129Y8774D01*
X103330Y8650D01*
X103548Y8560D01*
X103778Y8505D01*
X104013Y8491D01*
X108003Y8498D01*
Y991D01*
X92506D01*
Y11136D01*
X92591Y11172D01*
X92692Y11234D01*
X92782Y11310D01*
X92858Y11400D01*
X92918Y11502D01*
X93135Y11971D01*
X93302Y12460D01*
X93422Y12963D01*
X93495Y13475D01*
X93519Y13991D01*
X93495Y14507D01*
X93422Y15019D01*
X93302Y15522D01*
X93135Y16011D01*
X92923Y16483D01*
X92862Y16584D01*
X92785Y16675D01*
X92695Y16752D01*
X92593Y16814D01*
X92506Y16851D01*
Y36041D01*
X102113D01*
X102654Y36073D01*
X103182Y36200D01*
X103684Y36408D01*
X104147Y36691D01*
X104560Y37044D01*
X104913Y37457D01*
X105196Y37920D01*
X105404Y38422D01*
X105531Y38950D01*
X105574Y39491D01*
X105531Y40032D01*
X105404Y40560D01*
X105196Y41062D01*
X104913Y41525D01*
X104560Y41938D01*
X104147Y42291D01*
X103684Y42574D01*
X103182Y42782D01*
X102654Y42909D01*
X102113Y42941D01*
X92506D01*
Y59744D01*
X92726Y59797D01*
X93060Y59935D01*
X93369Y60125D01*
X93644Y60360D01*
X93879Y60635D01*
X94069Y60944D01*
X94207Y61278D01*
X94292Y61630D01*
X94313Y61991D01*
X94292Y70352D01*
X94207Y70704D01*
X94069Y71038D01*
X93879Y71347D01*
X93644Y71622D01*
X93369Y71857D01*
X93060Y72047D01*
X92726Y72185D01*
X92506Y72238D01*
Y78991D01*
G37*
G36*
Y42941D02*X88013D01*
Y59701D01*
X92374Y59712D01*
X92506Y59744D01*
Y42941D01*
G37*
G36*
Y991D02*X88013D01*
Y8485D01*
X88529Y8509D01*
X89041Y8582D01*
X89544Y8702D01*
X90033Y8869D01*
X90505Y9081D01*
X90606Y9142D01*
X90697Y9219D01*
X90774Y9309D01*
X90836Y9411D01*
X90882Y9520D01*
X90910Y9636D01*
X90919Y9754D01*
X90910Y9872D01*
X90883Y9988D01*
X90837Y10098D01*
X90775Y10199D01*
X90699Y10289D01*
X90608Y10367D01*
X90507Y10429D01*
X90398Y10475D01*
X90282Y10502D01*
X90164Y10512D01*
X90045Y10503D01*
X89930Y10475D01*
X89821Y10428D01*
X89481Y10270D01*
X89125Y10149D01*
X88760Y10061D01*
X88388Y10009D01*
X88013Y9991D01*
Y17991D01*
X88388Y17973D01*
X88760Y17921D01*
X89125Y17833D01*
X89481Y17712D01*
X89823Y17558D01*
X89931Y17511D01*
X90046Y17484D01*
X90164Y17474D01*
X90281Y17484D01*
X90396Y17512D01*
X90505Y17557D01*
X90606Y17619D01*
X90695Y17696D01*
X90772Y17786D01*
X90833Y17886D01*
X90878Y17995D01*
X90906Y18110D01*
X90915Y18228D01*
X90905Y18346D01*
X90878Y18460D01*
X90832Y18569D01*
X90770Y18670D01*
X90694Y18760D01*
X90604Y18836D01*
X90502Y18896D01*
X90033Y19113D01*
X89544Y19280D01*
X89041Y19400D01*
X88529Y19473D01*
X88013Y19497D01*
Y36041D01*
X92506D01*
Y16851D01*
X92484Y16860D01*
X92368Y16888D01*
X92250Y16897D01*
X92132Y16888D01*
X92016Y16861D01*
X91906Y16815D01*
X91805Y16753D01*
X91715Y16677D01*
X91637Y16586D01*
X91575Y16485D01*
X91529Y16376D01*
X91502Y16260D01*
X91492Y16142D01*
X91501Y16023D01*
X91529Y15908D01*
X91576Y15799D01*
X91734Y15459D01*
X91855Y15103D01*
X91943Y14738D01*
X91995Y14366D01*
X92013Y13991D01*
X91995Y13616D01*
X91943Y13244D01*
X91855Y12879D01*
X91734Y12523D01*
X91580Y12181D01*
X91533Y12073D01*
X91506Y11958D01*
X91496Y11840D01*
X91506Y11723D01*
X91534Y11608D01*
X91579Y11499D01*
X91641Y11398D01*
X91718Y11309D01*
X91808Y11232D01*
X91908Y11171D01*
X92017Y11126D01*
X92132Y11098D01*
X92250Y11089D01*
X92368Y11099D01*
X92482Y11126D01*
X92506Y11136D01*
Y991D01*
G37*
G36*
X88013Y78991D02*X92506D01*
Y72238D01*
X92374Y72270D01*
X92013Y72291D01*
X88013Y72281D01*
Y78991D01*
G37*
G36*
X83520Y31840D02*X83684Y31908D01*
X84147Y32191D01*
X84560Y32544D01*
X84913Y32957D01*
X85196Y33420D01*
X85404Y33922D01*
X85531Y34450D01*
X85563Y34991D01*
Y36041D01*
X88013D01*
Y19497D01*
X88013D01*
X87497Y19473D01*
X86985Y19400D01*
X86482Y19280D01*
X85993Y19113D01*
X85521Y18901D01*
X85420Y18840D01*
X85329Y18763D01*
X85252Y18673D01*
X85190Y18571D01*
X85144Y18462D01*
X85116Y18346D01*
X85107Y18228D01*
X85116Y18110D01*
X85143Y17994D01*
X85189Y17884D01*
X85251Y17783D01*
X85327Y17693D01*
X85418Y17615D01*
X85519Y17553D01*
X85628Y17507D01*
X85744Y17480D01*
X85862Y17470D01*
X85981Y17479D01*
X86096Y17507D01*
X86205Y17554D01*
X86545Y17712D01*
X86901Y17833D01*
X87266Y17921D01*
X87638Y17973D01*
X88013Y17991D01*
Y9991D01*
X87638Y10009D01*
X87266Y10061D01*
X86901Y10149D01*
X86545Y10270D01*
X86203Y10424D01*
X86095Y10471D01*
X85980Y10498D01*
X85862Y10508D01*
X85745Y10498D01*
X85630Y10470D01*
X85521Y10425D01*
X85420Y10363D01*
X85331Y10286D01*
X85254Y10196D01*
X85193Y10096D01*
X85148Y9987D01*
X85120Y9872D01*
X85111Y9754D01*
X85121Y9636D01*
X85148Y9522D01*
X85194Y9413D01*
X85256Y9312D01*
X85332Y9222D01*
X85422Y9146D01*
X85524Y9086D01*
X85993Y8869D01*
X86482Y8702D01*
X86985Y8582D01*
X87497Y8509D01*
X88013Y8485D01*
Y991D01*
X83520D01*
Y11131D01*
X83542Y11122D01*
X83658Y11094D01*
X83776Y11085D01*
X83894Y11094D01*
X84010Y11121D01*
X84120Y11167D01*
X84221Y11229D01*
X84311Y11305D01*
X84389Y11396D01*
X84451Y11497D01*
X84497Y11606D01*
X84524Y11722D01*
X84534Y11840D01*
X84525Y11959D01*
X84497Y12074D01*
X84450Y12183D01*
X84292Y12523D01*
X84171Y12879D01*
X84083Y13244D01*
X84031Y13616D01*
X84013Y13991D01*
X84031Y14366D01*
X84083Y14738D01*
X84171Y15103D01*
X84292Y15459D01*
X84446Y15801D01*
X84493Y15909D01*
X84520Y16024D01*
X84530Y16142D01*
X84520Y16259D01*
X84492Y16374D01*
X84447Y16483D01*
X84385Y16584D01*
X84308Y16673D01*
X84218Y16750D01*
X84118Y16811D01*
X84009Y16856D01*
X83894Y16884D01*
X83776Y16893D01*
X83658Y16883D01*
X83544Y16856D01*
X83520Y16846D01*
Y31840D01*
G37*
G36*
Y59744D02*X83652Y59712D01*
X84013Y59691D01*
X88013Y59701D01*
Y42941D01*
X83748D01*
X83613Y42952D01*
X83520Y42944D01*
Y59744D01*
G37*
G36*
Y78991D02*X88013D01*
Y72281D01*
X83652Y72270D01*
X83520Y72238D01*
Y78991D01*
G37*
G36*
X73113D02*X83520D01*
Y72238D01*
X83300Y72185D01*
X82966Y72047D01*
X82657Y71857D01*
X82382Y71622D01*
X82147Y71347D01*
X81957Y71038D01*
X81819Y70704D01*
X81734Y70352D01*
X81713Y69991D01*
X81734Y61630D01*
X81819Y61278D01*
X81957Y60944D01*
X82147Y60635D01*
X82382Y60360D01*
X82657Y60125D01*
X82966Y59935D01*
X83300Y59797D01*
X83520Y59744D01*
Y42944D01*
X83072Y42909D01*
X82544Y42782D01*
X82042Y42574D01*
X81579Y42291D01*
X81579Y42291D01*
X81166Y41938D01*
X81078Y41835D01*
X79769Y40526D01*
X79666Y40438D01*
X79313Y40025D01*
X79030Y39562D01*
X78822Y39060D01*
X78695Y38532D01*
X78695Y38532D01*
X78652Y37991D01*
X78663Y37856D01*
Y34991D01*
X78695Y34450D01*
X78822Y33922D01*
X79030Y33420D01*
X79313Y32957D01*
X79666Y32544D01*
X80079Y32191D01*
X80542Y31908D01*
X81044Y31700D01*
X81572Y31573D01*
X82113Y31530D01*
X82654Y31573D01*
X83182Y31700D01*
X83520Y31840D01*
Y16846D01*
X83435Y16810D01*
X83334Y16748D01*
X83244Y16672D01*
X83168Y16582D01*
X83108Y16480D01*
X82891Y16011D01*
X82724Y15522D01*
X82604Y15019D01*
X82531Y14507D01*
X82507Y13991D01*
X82531Y13475D01*
X82604Y12963D01*
X82724Y12460D01*
X82891Y11971D01*
X83103Y11499D01*
X83164Y11398D01*
X83241Y11307D01*
X83331Y11230D01*
X83433Y11168D01*
X83520Y11131D01*
Y991D01*
X73113D01*
Y78991D01*
G37*
G36*
X69613Y14991D02*Y991D01*
X37652D01*
Y8432D01*
X40152D01*
X40270Y8439D01*
X40384Y8467D01*
X40494Y8512D01*
X40594Y8573D01*
X40684Y8650D01*
X40761Y8740D01*
X40822Y8840D01*
X40867Y8950D01*
X40895Y9064D01*
X40904Y9182D01*
X40895Y9300D01*
X40867Y9414D01*
X40822Y9524D01*
X40761Y9624D01*
X40684Y9714D01*
X40594Y9791D01*
X40494Y9852D01*
X40384Y9897D01*
X40270Y9925D01*
X40152Y9932D01*
X37652D01*
Y14991D01*
X41652D01*
Y11432D01*
X41659Y11314D01*
X41687Y11200D01*
X41732Y11090D01*
X41793Y10990D01*
X41870Y10900D01*
X41960Y10823D01*
X42060Y10762D01*
X42170Y10717D01*
X42284Y10689D01*
X42402Y10680D01*
X42520Y10689D01*
X42634Y10717D01*
X42744Y10762D01*
X42844Y10823D01*
X42934Y10900D01*
X43011Y10990D01*
X43072Y11090D01*
X43117Y11200D01*
X43145Y11314D01*
X43152Y11432D01*
Y14991D01*
X69613D01*
G37*
G36*
X37652Y991D02*X17654D01*
Y8426D01*
X18168Y8450D01*
X18680Y8523D01*
X19183Y8643D01*
X19672Y8810D01*
X20144Y9022D01*
X20245Y9083D01*
X20336Y9160D01*
X20413Y9250D01*
X20475Y9352D01*
X20521Y9461D01*
X20549Y9577D01*
X20558Y9695D01*
X20549Y9813D01*
X20522Y9929D01*
X20476Y10039D01*
X20414Y10140D01*
X20338Y10230D01*
X20247Y10308D01*
X20146Y10370D01*
X20037Y10416D01*
X19921Y10443D01*
X19803Y10453D01*
X19684Y10444D01*
X19569Y10416D01*
X19460Y10369D01*
X19120Y10211D01*
X18764Y10090D01*
X18399Y10002D01*
X18027Y9950D01*
X17654Y9932D01*
Y14991D01*
X21507D01*
X21582Y14679D01*
X21634Y14307D01*
X21652Y13932D01*
X21634Y13557D01*
X21582Y13185D01*
X21494Y12820D01*
X21373Y12464D01*
X21219Y12122D01*
X21172Y12014D01*
X21145Y11899D01*
X21135Y11781D01*
X21145Y11664D01*
X21173Y11549D01*
X21218Y11440D01*
X21280Y11339D01*
X21357Y11250D01*
X21447Y11173D01*
X21547Y11112D01*
X21656Y11067D01*
X21771Y11039D01*
X21889Y11030D01*
X22007Y11040D01*
X22121Y11067D01*
X22230Y11113D01*
X22331Y11175D01*
X22421Y11251D01*
X22497Y11341D01*
X22557Y11443D01*
X22774Y11912D01*
X22941Y12401D01*
X23061Y12904D01*
X23134Y13416D01*
X23158Y13932D01*
X23134Y14448D01*
X23061Y14960D01*
X23054Y14991D01*
X32152D01*
Y11432D01*
X32159Y11314D01*
X32187Y11200D01*
X32232Y11090D01*
X32293Y10990D01*
X32370Y10900D01*
X32460Y10823D01*
X32560Y10762D01*
X32670Y10717D01*
X32784Y10689D01*
X32902Y10680D01*
X33020Y10689D01*
X33134Y10717D01*
X33244Y10762D01*
X33344Y10823D01*
X33434Y10900D01*
X33511Y10990D01*
X33572Y11090D01*
X33617Y11200D01*
X33645Y11314D01*
X33652Y11432D01*
Y14991D01*
X37652D01*
Y9932D01*
X35152D01*
X35034Y9925D01*
X34920Y9897D01*
X34810Y9852D01*
X34710Y9791D01*
X34620Y9714D01*
X34543Y9624D01*
X34482Y9524D01*
X34437Y9414D01*
X34409Y9300D01*
X34400Y9182D01*
X34409Y9064D01*
X34437Y8950D01*
X34482Y8840D01*
X34543Y8740D01*
X34620Y8650D01*
X34710Y8573D01*
X34810Y8512D01*
X34920Y8467D01*
X35034Y8439D01*
X35152Y8432D01*
X37652D01*
Y991D01*
G37*
G36*
X17654D02*X1113D01*
Y14991D01*
X12250D01*
X12243Y14960D01*
X12170Y14448D01*
X12146Y13932D01*
X12170Y13416D01*
X12243Y12904D01*
X12363Y12401D01*
X12530Y11912D01*
X12742Y11440D01*
X12803Y11339D01*
X12880Y11248D01*
X12970Y11171D01*
X13072Y11109D01*
X13181Y11063D01*
X13297Y11035D01*
X13415Y11026D01*
X13533Y11035D01*
X13649Y11062D01*
X13759Y11108D01*
X13860Y11170D01*
X13950Y11246D01*
X14028Y11337D01*
X14090Y11438D01*
X14136Y11547D01*
X14163Y11663D01*
X14173Y11781D01*
X14164Y11900D01*
X14136Y12015D01*
X14089Y12124D01*
X13931Y12464D01*
X13810Y12820D01*
X13722Y13185D01*
X13670Y13557D01*
X13652Y13932D01*
X13670Y14307D01*
X13722Y14679D01*
X13797Y14991D01*
X17654D01*
Y9932D01*
X17652Y9932D01*
X17277Y9950D01*
X16905Y10002D01*
X16540Y10090D01*
X16184Y10211D01*
X15842Y10365D01*
X15734Y10412D01*
X15619Y10439D01*
X15501Y10449D01*
X15384Y10439D01*
X15269Y10411D01*
X15160Y10366D01*
X15059Y10304D01*
X14970Y10227D01*
X14893Y10137D01*
X14832Y10037D01*
X14787Y9928D01*
X14759Y9813D01*
X14750Y9695D01*
X14760Y9577D01*
X14787Y9463D01*
X14833Y9354D01*
X14895Y9253D01*
X14971Y9163D01*
X15061Y9087D01*
X15163Y9027D01*
X15632Y8810D01*
X16121Y8643D01*
X16624Y8523D01*
X17136Y8450D01*
X17652Y8426D01*
X17654Y8426D01*
Y991D01*
G37*
G36*
X42402Y23491D02*X55113D01*
Y9991D01*
X42402D01*
Y10680D01*
X42520Y10689D01*
X42634Y10717D01*
X42744Y10762D01*
X42844Y10823D01*
X42934Y10900D01*
X43011Y10990D01*
X43072Y11090D01*
X43117Y11200D01*
X43145Y11314D01*
X43152Y11432D01*
Y16432D01*
X43145Y16550D01*
X43117Y16664D01*
X43072Y16774D01*
X43011Y16874D01*
X42934Y16964D01*
X42844Y17041D01*
X42744Y17102D01*
X42634Y17147D01*
X42520Y17175D01*
X42402Y17184D01*
Y23491D01*
G37*
G36*
X37652D02*X42402D01*
Y17184D01*
X42284Y17175D01*
X42170Y17147D01*
X42060Y17102D01*
X41960Y17041D01*
X41870Y16964D01*
X41793Y16874D01*
X41732Y16774D01*
X41687Y16664D01*
X41659Y16550D01*
X41652Y16432D01*
Y11432D01*
X41659Y11314D01*
X41687Y11200D01*
X41732Y11090D01*
X41793Y10990D01*
X41870Y10900D01*
X41960Y10823D01*
X42060Y10762D01*
X42170Y10717D01*
X42284Y10689D01*
X42402Y10680D01*
Y9991D01*
X37652D01*
Y17932D01*
X40152D01*
X40270Y17939D01*
X40384Y17967D01*
X40494Y18012D01*
X40594Y18073D01*
X40684Y18150D01*
X40761Y18240D01*
X40822Y18340D01*
X40867Y18450D01*
X40895Y18564D01*
X40904Y18682D01*
X40895Y18800D01*
X40867Y18914D01*
X40822Y19024D01*
X40761Y19124D01*
X40684Y19214D01*
X40594Y19291D01*
X40494Y19352D01*
X40384Y19397D01*
X40270Y19425D01*
X40152Y19432D01*
X37652D01*
Y23491D01*
G37*
G36*
X32902D02*X37652D01*
Y19432D01*
X35152D01*
X35034Y19425D01*
X34920Y19397D01*
X34810Y19352D01*
X34710Y19291D01*
X34620Y19214D01*
X34543Y19124D01*
X34482Y19024D01*
X34437Y18914D01*
X34409Y18800D01*
X34400Y18682D01*
X34409Y18564D01*
X34437Y18450D01*
X34482Y18340D01*
X34543Y18240D01*
X34620Y18150D01*
X34710Y18073D01*
X34810Y18012D01*
X34920Y17967D01*
X35034Y17939D01*
X35152Y17932D01*
X37652D01*
Y9991D01*
X32902D01*
Y10680D01*
X33020Y10689D01*
X33134Y10717D01*
X33244Y10762D01*
X33344Y10823D01*
X33434Y10900D01*
X33511Y10990D01*
X33572Y11090D01*
X33617Y11200D01*
X33645Y11314D01*
X33652Y11432D01*
Y16432D01*
X33645Y16550D01*
X33617Y16664D01*
X33572Y16774D01*
X33511Y16874D01*
X33434Y16964D01*
X33344Y17041D01*
X33244Y17102D01*
X33134Y17147D01*
X33020Y17175D01*
X32902Y17184D01*
Y23491D01*
G37*
G36*
X22145D02*X32902D01*
Y17184D01*
X32784Y17175D01*
X32670Y17147D01*
X32560Y17102D01*
X32460Y17041D01*
X32370Y16964D01*
X32293Y16874D01*
X32232Y16774D01*
X32187Y16664D01*
X32159Y16550D01*
X32152Y16432D01*
Y11432D01*
X32159Y11314D01*
X32187Y11200D01*
X32232Y11090D01*
X32293Y10990D01*
X32370Y10900D01*
X32460Y10823D01*
X32560Y10762D01*
X32670Y10717D01*
X32784Y10689D01*
X32902Y10680D01*
Y9991D01*
X22145D01*
Y11077D01*
X22230Y11113D01*
X22331Y11175D01*
X22421Y11251D01*
X22497Y11341D01*
X22557Y11443D01*
X22774Y11912D01*
X22941Y12401D01*
X23061Y12904D01*
X23134Y13416D01*
X23158Y13932D01*
X23134Y14448D01*
X23061Y14960D01*
X22941Y15463D01*
X22774Y15952D01*
X22562Y16424D01*
X22501Y16525D01*
X22424Y16616D01*
X22334Y16693D01*
X22232Y16755D01*
X22145Y16792D01*
Y23491D01*
G37*
G36*
X17650D02*X22145D01*
Y16792D01*
X22123Y16801D01*
X22007Y16829D01*
X21889Y16838D01*
X21771Y16829D01*
X21655Y16802D01*
X21545Y16756D01*
X21444Y16694D01*
X21354Y16618D01*
X21276Y16527D01*
X21214Y16426D01*
X21168Y16317D01*
X21141Y16201D01*
X21131Y16083D01*
X21140Y15964D01*
X21168Y15849D01*
X21215Y15740D01*
X21373Y15400D01*
X21494Y15044D01*
X21582Y14679D01*
X21634Y14307D01*
X21652Y13932D01*
X21634Y13557D01*
X21582Y13185D01*
X21494Y12820D01*
X21373Y12464D01*
X21219Y12122D01*
X21172Y12014D01*
X21145Y11899D01*
X21135Y11781D01*
X21145Y11664D01*
X21173Y11549D01*
X21218Y11440D01*
X21280Y11339D01*
X21357Y11250D01*
X21447Y11173D01*
X21547Y11112D01*
X21656Y11067D01*
X21771Y11039D01*
X21889Y11030D01*
X22007Y11040D01*
X22121Y11067D01*
X22145Y11077D01*
Y9991D01*
X20496D01*
X20476Y10039D01*
X20414Y10140D01*
X20338Y10230D01*
X20247Y10308D01*
X20146Y10370D01*
X20037Y10416D01*
X19921Y10443D01*
X19803Y10453D01*
X19684Y10444D01*
X19569Y10416D01*
X19460Y10369D01*
X19120Y10211D01*
X18764Y10090D01*
X18399Y10002D01*
X18319Y9991D01*
X17650D01*
Y17932D01*
X17652Y17932D01*
X18027Y17914D01*
X18399Y17862D01*
X18764Y17774D01*
X19120Y17653D01*
X19462Y17499D01*
X19570Y17452D01*
X19685Y17425D01*
X19803Y17415D01*
X19920Y17425D01*
X20035Y17453D01*
X20144Y17498D01*
X20245Y17560D01*
X20334Y17637D01*
X20411Y17727D01*
X20472Y17827D01*
X20517Y17936D01*
X20545Y18051D01*
X20554Y18169D01*
X20544Y18287D01*
X20517Y18401D01*
X20471Y18510D01*
X20409Y18611D01*
X20333Y18701D01*
X20243Y18777D01*
X20141Y18837D01*
X19672Y19054D01*
X19183Y19221D01*
X18680Y19341D01*
X18168Y19414D01*
X17652Y19438D01*
X17650Y19438D01*
Y23491D01*
G37*
G36*
X13159D02*X17650D01*
Y19438D01*
X17136Y19414D01*
X16624Y19341D01*
X16121Y19221D01*
X15632Y19054D01*
X15160Y18842D01*
X15059Y18781D01*
X14968Y18704D01*
X14891Y18614D01*
X14829Y18512D01*
X14783Y18403D01*
X14755Y18287D01*
X14746Y18169D01*
X14755Y18051D01*
X14782Y17935D01*
X14828Y17825D01*
X14890Y17724D01*
X14966Y17634D01*
X15057Y17556D01*
X15158Y17494D01*
X15267Y17448D01*
X15383Y17421D01*
X15501Y17411D01*
X15620Y17420D01*
X15735Y17448D01*
X15844Y17495D01*
X16184Y17653D01*
X16540Y17774D01*
X16905Y17862D01*
X17277Y17914D01*
X17650Y17932D01*
Y9991D01*
X16985D01*
X16905Y10002D01*
X16540Y10090D01*
X16184Y10211D01*
X15842Y10365D01*
X15734Y10412D01*
X15619Y10439D01*
X15501Y10449D01*
X15384Y10439D01*
X15269Y10411D01*
X15160Y10366D01*
X15059Y10304D01*
X14970Y10227D01*
X14893Y10137D01*
X14832Y10037D01*
X14813Y9991D01*
X13159D01*
Y11072D01*
X13181Y11063D01*
X13297Y11035D01*
X13415Y11026D01*
X13533Y11035D01*
X13649Y11062D01*
X13759Y11108D01*
X13860Y11170D01*
X13950Y11246D01*
X14028Y11337D01*
X14090Y11438D01*
X14136Y11547D01*
X14163Y11663D01*
X14173Y11781D01*
X14164Y11900D01*
X14136Y12015D01*
X14089Y12124D01*
X13931Y12464D01*
X13810Y12820D01*
X13722Y13185D01*
X13670Y13557D01*
X13652Y13932D01*
X13670Y14307D01*
X13722Y14679D01*
X13810Y15044D01*
X13931Y15400D01*
X14085Y15742D01*
X14132Y15850D01*
X14159Y15965D01*
X14169Y16083D01*
X14159Y16200D01*
X14131Y16315D01*
X14086Y16424D01*
X14024Y16525D01*
X13947Y16614D01*
X13857Y16691D01*
X13757Y16752D01*
X13648Y16797D01*
X13533Y16825D01*
X13415Y16834D01*
X13297Y16824D01*
X13183Y16797D01*
X13159Y16787D01*
Y23491D01*
G37*
G36*
X1113Y9991D02*Y23491D01*
X13159D01*
Y16787D01*
X13074Y16751D01*
X12973Y16689D01*
X12883Y16613D01*
X12807Y16523D01*
X12747Y16421D01*
X12530Y15952D01*
X12363Y15463D01*
X12243Y14960D01*
X12170Y14448D01*
X12146Y13932D01*
X12170Y13416D01*
X12243Y12904D01*
X12363Y12401D01*
X12530Y11912D01*
X12742Y11440D01*
X12803Y11339D01*
X12880Y11248D01*
X12970Y11171D01*
X13072Y11109D01*
X13159Y11072D01*
Y9991D01*
X1113D01*
G37*
G54D25*X128113Y65891D02*X128013Y65991D01*
X82113Y34991D02*Y37991D01*
X83613Y39491D01*
X102113D01*
X208113Y65887D02*X208000Y66000D01*
X168613Y27991D02*Y35491D01*
X173113Y39991D01*
X182113D01*
X30113Y40491D02*Y62491D01*
X40113Y50991D02*X18613D01*
X22113Y43491D02*X37613Y58991D01*
X37113Y44491D02*X22613Y58991D01*
X30613Y69991D02*X56113D01*
X49113Y77491D02*X35113Y63491D01*
X49613Y62991D02*X49113D01*
X35113Y76991D01*
X42113Y60491D02*Y77491D01*
G54D24*G36*
X224000Y18000D02*Y10000D01*
X232000D01*
Y18000D01*
X224000D01*
G37*
G54D26*X208000Y14000D03*
G54D24*G36*
X184000Y18000D02*Y10000D01*
X192000D01*
Y18000D01*
X184000D01*
G37*
G54D26*X168000Y14000D03*
G54D24*G36*
X144013Y17991D02*Y9991D01*
X152013D01*
Y17991D01*
X144013D01*
G37*
G36*
X204000Y70000D02*Y62000D01*
X212000D01*
Y70000D01*
X204000D01*
G37*
G54D26*X228000Y66000D03*
G54D24*G36*
X164000Y70000D02*Y62000D01*
X172000D01*
Y70000D01*
X164000D01*
G37*
G54D26*X188000Y66000D03*
G54D24*G36*
X124013Y69991D02*Y61991D01*
X132013D01*
Y69991D01*
X124013D01*
G37*
G36*
X84013D02*Y61991D01*
X92013D01*
Y69991D01*
X84013D01*
G37*
G54D26*X108013Y65991D03*
G54D27*X53935Y51200D03*
G54D28*X29935D03*
X41935Y70200D03*
G54D26*X148013Y65991D03*
G54D24*G36*
X104013Y17991D02*Y9991D01*
X112013D01*
Y17991D01*
X104013D01*
G37*
G54D26*X128013Y13991D03*
X88013D03*
G54D24*G36*
X33652Y17932D02*Y9932D01*
X41652D01*
Y17932D01*
X33652D01*
G37*
G54D26*X17652Y13932D03*
G54D29*X62056Y10963D02*Y4664D01*
Y30648D02*Y24349D01*
G54D30*X102113Y39491D03*
X82113Y34991D03*
X48613Y3991D03*
X52113Y20491D03*
Y15491D03*
X182000Y40000D03*
X168613Y27991D03*
X42613Y3991D03*
X36613D03*
X30613D03*
X24613D03*
X18613D03*
G54D31*G54D32*G54D33*G54D34*G54D32*M02*
