G04 start of page 2 for group 0 idx 0 *
G04 Title: (unknown), component *
G04 Creator: pcb 20110918 *
G04 CreationDate: Mon 25 Mar 2013 04:24:27 AM GMT UTC *
G04 For: ndholmes *
G04 Format: Gerber/RS-274X *
G04 PCB-Dimensions: 240000 80000 *
G04 PCB-Coordinate-Origin: lower left *
%MOIN*%
%FSLAX25Y25*%
%LNTOP*%
%ADD23C,0.1100*%
%ADD22C,0.1250*%
%ADD21C,0.0480*%
%ADD20C,0.0200*%
%ADD19C,0.0360*%
%ADD18R,0.0240X0.0240*%
%ADD17R,0.0512X0.0512*%
%ADD16R,0.0600X0.0600*%
%ADD15C,0.1500*%
%ADD14C,0.1750*%
%ADD13C,0.0800*%
%ADD12C,0.0250*%
%ADD11C,0.0001*%
G54D11*G36*
X62159Y54164D02*X62252Y53920D01*
X62463Y53159D01*
X62605Y52382D01*
X62676Y51595D01*
Y50805D01*
X62605Y50018D01*
X62463Y49241D01*
X62252Y48480D01*
X62159Y48236D01*
Y54164D01*
G37*
G36*
Y78991D02*X69613D01*
Y991D01*
X62159D01*
Y45957D01*
X62516Y46549D01*
X62900Y47342D01*
X63211Y48166D01*
X63447Y49015D01*
X63606Y49882D01*
X63685Y50759D01*
Y51641D01*
X63606Y52518D01*
X63447Y53385D01*
X63211Y54234D01*
X62900Y55058D01*
X62516Y55851D01*
X62159Y56443D01*
Y78991D01*
G37*
G36*
X53939D02*X62159D01*
Y56443D01*
X62061Y56606D01*
X61541Y57316D01*
X61486Y57375D01*
X61423Y57424D01*
X61352Y57462D01*
X61277Y57489D01*
X61198Y57504D01*
X61118Y57507D01*
X61039Y57497D01*
X60962Y57474D01*
X60890Y57440D01*
X60823Y57395D01*
X60765Y57340D01*
X60716Y57276D01*
X60678Y57206D01*
X60651Y57131D01*
X60636Y57052D01*
X60633Y56972D01*
X60644Y56892D01*
X60666Y56815D01*
X60700Y56743D01*
X60747Y56678D01*
X61220Y56046D01*
X61628Y55369D01*
X61972Y54659D01*
X62159Y54164D01*
Y48236D01*
X61972Y47741D01*
X61628Y47031D01*
X61220Y46354D01*
X60754Y45717D01*
X60708Y45652D01*
X60674Y45581D01*
X60652Y45506D01*
X60642Y45428D01*
X60645Y45349D01*
X60659Y45272D01*
X60686Y45198D01*
X60724Y45129D01*
X60772Y45066D01*
X60829Y45012D01*
X60894Y44968D01*
X60965Y44934D01*
X61041Y44912D01*
X61119Y44902D01*
X61197Y44905D01*
X61275Y44919D01*
X61349Y44946D01*
X61418Y44983D01*
X61480Y45032D01*
X61533Y45090D01*
X62061Y45794D01*
X62159Y45957D01*
Y991D01*
X53939D01*
Y41450D01*
X54376D01*
X55253Y41529D01*
X56120Y41688D01*
X56969Y41924D01*
X57793Y42235D01*
X58586Y42619D01*
X59341Y43074D01*
X60051Y43594D01*
X60110Y43649D01*
X60159Y43712D01*
X60197Y43783D01*
X60224Y43858D01*
X60239Y43937D01*
X60242Y44017D01*
X60232Y44096D01*
X60209Y44173D01*
X60175Y44245D01*
X60130Y44312D01*
X60075Y44370D01*
X60011Y44419D01*
X59941Y44457D01*
X59866Y44484D01*
X59787Y44499D01*
X59707Y44502D01*
X59627Y44491D01*
X59550Y44469D01*
X59478Y44435D01*
X59413Y44388D01*
X58781Y43915D01*
X58104Y43507D01*
X57394Y43163D01*
X56655Y42883D01*
X55894Y42672D01*
X55117Y42530D01*
X54330Y42459D01*
X53939D01*
Y59941D01*
X54330D01*
X55117Y59870D01*
X55894Y59728D01*
X56655Y59517D01*
X57394Y59237D01*
X58104Y58893D01*
X58781Y58485D01*
X59418Y58019D01*
X59483Y57973D01*
X59554Y57939D01*
X59629Y57917D01*
X59707Y57907D01*
X59786Y57910D01*
X59863Y57924D01*
X59937Y57951D01*
X60006Y57989D01*
X60069Y58037D01*
X60123Y58094D01*
X60167Y58159D01*
X60201Y58230D01*
X60223Y58306D01*
X60233Y58384D01*
X60230Y58462D01*
X60216Y58540D01*
X60189Y58614D01*
X60152Y58683D01*
X60103Y58745D01*
X60045Y58798D01*
X59341Y59326D01*
X58586Y59781D01*
X57793Y60165D01*
X56969Y60476D01*
X56120Y60712D01*
X55253Y60871D01*
X54376Y60950D01*
X53939D01*
Y78991D01*
G37*
G36*
X45711D02*X53939D01*
Y60950D01*
X53494D01*
X52617Y60871D01*
X51750Y60712D01*
X50901Y60476D01*
X50077Y60165D01*
X49284Y59781D01*
X48529Y59326D01*
X47819Y58806D01*
X47760Y58751D01*
X47711Y58688D01*
X47673Y58617D01*
X47646Y58542D01*
X47631Y58463D01*
X47628Y58383D01*
X47638Y58304D01*
X47661Y58227D01*
X47695Y58155D01*
X47740Y58088D01*
X47795Y58030D01*
X47859Y57981D01*
X47929Y57943D01*
X48004Y57916D01*
X48083Y57901D01*
X48163Y57898D01*
X48243Y57909D01*
X48320Y57931D01*
X48392Y57965D01*
X48457Y58012D01*
X49089Y58485D01*
X49766Y58893D01*
X50476Y59237D01*
X51215Y59517D01*
X51976Y59728D01*
X52753Y59870D01*
X53540Y59941D01*
X53939D01*
Y42459D01*
X53540D01*
X52753Y42530D01*
X51976Y42672D01*
X51215Y42883D01*
X50476Y43163D01*
X49766Y43507D01*
X49089Y43915D01*
X48452Y44381D01*
X48387Y44427D01*
X48316Y44461D01*
X48241Y44483D01*
X48163Y44493D01*
X48084Y44490D01*
X48007Y44476D01*
X47933Y44449D01*
X47864Y44411D01*
X47801Y44363D01*
X47747Y44306D01*
X47703Y44241D01*
X47669Y44170D01*
X47647Y44094D01*
X47637Y44016D01*
X47640Y43938D01*
X47654Y43860D01*
X47681Y43786D01*
X47718Y43717D01*
X47767Y43655D01*
X47825Y43602D01*
X48529Y43074D01*
X49284Y42619D01*
X50077Y42235D01*
X50901Y41924D01*
X51750Y41688D01*
X52617Y41529D01*
X53494Y41450D01*
X53939D01*
Y991D01*
X45711D01*
Y45957D01*
X45809Y45794D01*
X46329Y45084D01*
X46384Y45025D01*
X46447Y44976D01*
X46518Y44938D01*
X46593Y44911D01*
X46672Y44896D01*
X46752Y44893D01*
X46831Y44903D01*
X46908Y44926D01*
X46980Y44960D01*
X47047Y45005D01*
X47105Y45060D01*
X47154Y45124D01*
X47192Y45194D01*
X47219Y45269D01*
X47234Y45348D01*
X47237Y45428D01*
X47226Y45508D01*
X47204Y45585D01*
X47170Y45657D01*
X47123Y45722D01*
X46650Y46354D01*
X46242Y47031D01*
X45898Y47741D01*
X45711Y48236D01*
Y54164D01*
X45898Y54659D01*
X46242Y55369D01*
X46650Y56046D01*
X47116Y56683D01*
X47162Y56748D01*
X47196Y56819D01*
X47218Y56894D01*
X47228Y56972D01*
X47225Y57051D01*
X47211Y57128D01*
X47184Y57202D01*
X47146Y57271D01*
X47098Y57334D01*
X47041Y57388D01*
X46976Y57432D01*
X46905Y57466D01*
X46829Y57488D01*
X46751Y57498D01*
X46673Y57495D01*
X46595Y57481D01*
X46521Y57454D01*
X46452Y57417D01*
X46390Y57368D01*
X46337Y57310D01*
X45809Y56606D01*
X45711Y56443D01*
Y62564D01*
X45806Y62603D01*
X46947Y63302D01*
X47964Y64171D01*
X48833Y65188D01*
X49532Y66329D01*
X50044Y67565D01*
X50356Y68866D01*
X50435Y70200D01*
X50356Y71534D01*
X50044Y72835D01*
X49532Y74071D01*
X48833Y75212D01*
X47964Y76229D01*
X46947Y77098D01*
X45806Y77797D01*
X45711Y77836D01*
Y78991D01*
G37*
G36*
Y48236D02*X45618Y48480D01*
X45407Y49241D01*
X45265Y50018D01*
X45194Y50805D01*
Y51595D01*
X45265Y52382D01*
X45407Y53159D01*
X45618Y53920D01*
X45711Y54164D01*
Y48236D01*
G37*
G36*
X42402Y61711D02*X43269Y61779D01*
X44570Y62091D01*
X45711Y62564D01*
Y56443D01*
X45354Y55851D01*
X44970Y55058D01*
X44659Y54234D01*
X44423Y53385D01*
X44264Y52518D01*
X44185Y51641D01*
Y50759D01*
X44264Y49882D01*
X44423Y49015D01*
X44659Y48166D01*
X44970Y47342D01*
X45354Y46549D01*
X45711Y45957D01*
Y991D01*
X42402D01*
Y10680D01*
X42520Y10689D01*
X42634Y10717D01*
X42744Y10762D01*
X42844Y10823D01*
X42934Y10900D01*
X43011Y10990D01*
X43072Y11090D01*
X43117Y11200D01*
X43145Y11314D01*
X43152Y11432D01*
Y16432D01*
X43145Y16550D01*
X43117Y16664D01*
X43072Y16774D01*
X43011Y16874D01*
X42934Y16964D01*
X42844Y17041D01*
X42744Y17102D01*
X42634Y17147D01*
X42520Y17175D01*
X42402Y17184D01*
Y61711D01*
G37*
G36*
X37652Y62856D02*X38064Y62603D01*
X39300Y62091D01*
X40601Y61779D01*
X41935Y61674D01*
X42402Y61711D01*
Y17184D01*
X42284Y17175D01*
X42170Y17147D01*
X42060Y17102D01*
X41960Y17041D01*
X41870Y16964D01*
X41793Y16874D01*
X41732Y16774D01*
X41687Y16664D01*
X41659Y16550D01*
X41652Y16432D01*
Y11432D01*
X41659Y11314D01*
X41687Y11200D01*
X41732Y11090D01*
X41793Y10990D01*
X41870Y10900D01*
X41960Y10823D01*
X42060Y10762D01*
X42170Y10717D01*
X42284Y10689D01*
X42402Y10680D01*
Y991D01*
X37652D01*
Y8432D01*
X40152D01*
X40270Y8439D01*
X40384Y8467D01*
X40494Y8512D01*
X40594Y8573D01*
X40684Y8650D01*
X40761Y8740D01*
X40822Y8840D01*
X40867Y8950D01*
X40895Y9064D01*
X40904Y9182D01*
X40895Y9300D01*
X40867Y9414D01*
X40822Y9524D01*
X40761Y9624D01*
X40684Y9714D01*
X40594Y9791D01*
X40494Y9852D01*
X40384Y9897D01*
X40270Y9925D01*
X40152Y9932D01*
X37652D01*
Y17932D01*
X40152D01*
X40270Y17939D01*
X40384Y17967D01*
X40494Y18012D01*
X40594Y18073D01*
X40684Y18150D01*
X40761Y18240D01*
X40822Y18340D01*
X40867Y18450D01*
X40895Y18564D01*
X40904Y18682D01*
X40895Y18800D01*
X40867Y18914D01*
X40822Y19024D01*
X40761Y19124D01*
X40684Y19214D01*
X40594Y19291D01*
X40494Y19352D01*
X40384Y19397D01*
X40270Y19425D01*
X40152Y19432D01*
X37652D01*
Y47619D01*
X38044Y48565D01*
X38356Y49866D01*
X38435Y51200D01*
X38356Y52534D01*
X38044Y53835D01*
X37652Y54781D01*
Y62856D01*
G37*
G36*
Y78991D02*X45711D01*
Y77836D01*
X44570Y78309D01*
X43269Y78621D01*
X41935Y78726D01*
X40601Y78621D01*
X39300Y78309D01*
X38064Y77797D01*
X37652Y77544D01*
Y78991D01*
G37*
G36*
Y991D02*X32902D01*
Y10680D01*
X33020Y10689D01*
X33134Y10717D01*
X33244Y10762D01*
X33344Y10823D01*
X33434Y10900D01*
X33511Y10990D01*
X33572Y11090D01*
X33617Y11200D01*
X33645Y11314D01*
X33652Y11432D01*
Y16432D01*
X33645Y16550D01*
X33617Y16664D01*
X33572Y16774D01*
X33511Y16874D01*
X33434Y16964D01*
X33344Y17041D01*
X33244Y17102D01*
X33134Y17147D01*
X33020Y17175D01*
X32902Y17184D01*
Y43229D01*
X33806Y43603D01*
X34947Y44302D01*
X35964Y45171D01*
X36833Y46188D01*
X37532Y47329D01*
X37652Y47619D01*
Y19432D01*
X35152D01*
X35034Y19425D01*
X34920Y19397D01*
X34810Y19352D01*
X34710Y19291D01*
X34620Y19214D01*
X34543Y19124D01*
X34482Y19024D01*
X34437Y18914D01*
X34409Y18800D01*
X34400Y18682D01*
X34409Y18564D01*
X34437Y18450D01*
X34482Y18340D01*
X34543Y18240D01*
X34620Y18150D01*
X34710Y18073D01*
X34810Y18012D01*
X34920Y17967D01*
X35034Y17939D01*
X35152Y17932D01*
X37652D01*
Y9932D01*
X35152D01*
X35034Y9925D01*
X34920Y9897D01*
X34810Y9852D01*
X34710Y9791D01*
X34620Y9714D01*
X34543Y9624D01*
X34482Y9524D01*
X34437Y9414D01*
X34409Y9300D01*
X34400Y9182D01*
X34409Y9064D01*
X34437Y8950D01*
X34482Y8840D01*
X34543Y8740D01*
X34620Y8650D01*
X34710Y8573D01*
X34810Y8512D01*
X34920Y8467D01*
X35034Y8439D01*
X35152Y8432D01*
X37652D01*
Y991D01*
G37*
G36*
X32902D02*X29922D01*
Y42675D01*
X29935Y42674D01*
X31269Y42779D01*
X32570Y43091D01*
X32902Y43229D01*
Y17184D01*
X32784Y17175D01*
X32670Y17147D01*
X32560Y17102D01*
X32460Y17041D01*
X32370Y16964D01*
X32293Y16874D01*
X32232Y16774D01*
X32187Y16664D01*
X32159Y16550D01*
X32152Y16432D01*
Y11432D01*
X32159Y11314D01*
X32187Y11200D01*
X32232Y11090D01*
X32293Y10990D01*
X32370Y10900D01*
X32460Y10823D01*
X32560Y10762D01*
X32670Y10717D01*
X32784Y10689D01*
X32902Y10680D01*
Y991D01*
G37*
G36*
X29922Y78991D02*X37652D01*
Y77544D01*
X36923Y77098D01*
X35906Y76229D01*
X35037Y75212D01*
X34338Y74071D01*
X33826Y72835D01*
X33514Y71534D01*
X33409Y70200D01*
X33514Y68866D01*
X33826Y67565D01*
X34338Y66329D01*
X35037Y65188D01*
X35906Y64171D01*
X36923Y63302D01*
X37652Y62856D01*
Y54781D01*
X37532Y55071D01*
X36833Y56212D01*
X35964Y57229D01*
X34947Y58098D01*
X33806Y58797D01*
X32570Y59309D01*
X31269Y59621D01*
X29935Y59726D01*
X29922Y59725D01*
Y78991D01*
G37*
G36*
X22145Y47796D02*X22338Y47329D01*
X23037Y46188D01*
X23906Y45171D01*
X24923Y44302D01*
X26064Y43603D01*
X27300Y43091D01*
X28601Y42779D01*
X29922Y42675D01*
Y991D01*
X22145D01*
Y11077D01*
X22230Y11113D01*
X22331Y11175D01*
X22421Y11251D01*
X22497Y11341D01*
X22557Y11443D01*
X22774Y11912D01*
X22941Y12401D01*
X23061Y12904D01*
X23134Y13416D01*
X23158Y13932D01*
X23134Y14448D01*
X23061Y14960D01*
X22941Y15463D01*
X22774Y15952D01*
X22562Y16424D01*
X22501Y16525D01*
X22424Y16616D01*
X22334Y16693D01*
X22232Y16755D01*
X22145Y16792D01*
Y47796D01*
G37*
G36*
Y78991D02*X29922D01*
Y59725D01*
X28601Y59621D01*
X27300Y59309D01*
X26064Y58797D01*
X24923Y58098D01*
X23906Y57229D01*
X23037Y56212D01*
X22338Y55071D01*
X22145Y54604D01*
Y78991D01*
G37*
G36*
X17654D02*X22145D01*
Y54604D01*
X21826Y53835D01*
X21514Y52534D01*
X21409Y51200D01*
X21514Y49866D01*
X21826Y48565D01*
X22145Y47796D01*
Y16792D01*
X22123Y16801D01*
X22007Y16829D01*
X21889Y16838D01*
X21771Y16829D01*
X21655Y16802D01*
X21545Y16756D01*
X21444Y16694D01*
X21354Y16618D01*
X21276Y16527D01*
X21214Y16426D01*
X21168Y16317D01*
X21141Y16201D01*
X21131Y16083D01*
X21140Y15964D01*
X21168Y15849D01*
X21215Y15740D01*
X21373Y15400D01*
X21494Y15044D01*
X21582Y14679D01*
X21634Y14307D01*
X21652Y13932D01*
X21634Y13557D01*
X21582Y13185D01*
X21494Y12820D01*
X21373Y12464D01*
X21219Y12122D01*
X21172Y12014D01*
X21145Y11899D01*
X21135Y11781D01*
X21145Y11664D01*
X21173Y11549D01*
X21218Y11440D01*
X21280Y11339D01*
X21357Y11250D01*
X21447Y11173D01*
X21547Y11112D01*
X21656Y11067D01*
X21771Y11039D01*
X21889Y11030D01*
X22007Y11040D01*
X22121Y11067D01*
X22145Y11077D01*
Y991D01*
X17654D01*
Y8426D01*
X18168Y8450D01*
X18680Y8523D01*
X19183Y8643D01*
X19672Y8810D01*
X20144Y9022D01*
X20245Y9083D01*
X20336Y9160D01*
X20413Y9250D01*
X20475Y9352D01*
X20521Y9461D01*
X20549Y9577D01*
X20558Y9695D01*
X20549Y9813D01*
X20522Y9929D01*
X20476Y10039D01*
X20414Y10140D01*
X20338Y10230D01*
X20247Y10308D01*
X20146Y10370D01*
X20037Y10416D01*
X19921Y10443D01*
X19803Y10453D01*
X19684Y10444D01*
X19569Y10416D01*
X19460Y10369D01*
X19120Y10211D01*
X18764Y10090D01*
X18399Y10002D01*
X18027Y9950D01*
X17654Y9932D01*
Y17932D01*
X18027Y17914D01*
X18399Y17862D01*
X18764Y17774D01*
X19120Y17653D01*
X19462Y17499D01*
X19570Y17452D01*
X19685Y17425D01*
X19803Y17415D01*
X19920Y17425D01*
X20035Y17453D01*
X20144Y17498D01*
X20245Y17560D01*
X20334Y17637D01*
X20411Y17727D01*
X20472Y17827D01*
X20517Y17936D01*
X20545Y18051D01*
X20554Y18169D01*
X20544Y18287D01*
X20517Y18401D01*
X20471Y18510D01*
X20409Y18611D01*
X20333Y18701D01*
X20243Y18777D01*
X20141Y18837D01*
X19672Y19054D01*
X19183Y19221D01*
X18680Y19341D01*
X18168Y19414D01*
X17654Y19438D01*
Y78991D01*
G37*
G36*
X13159D02*X17654D01*
Y19438D01*
X17652Y19438D01*
X17136Y19414D01*
X16624Y19341D01*
X16121Y19221D01*
X15632Y19054D01*
X15160Y18842D01*
X15059Y18781D01*
X14968Y18704D01*
X14891Y18614D01*
X14829Y18512D01*
X14783Y18403D01*
X14755Y18287D01*
X14746Y18169D01*
X14755Y18051D01*
X14782Y17935D01*
X14828Y17825D01*
X14890Y17724D01*
X14966Y17634D01*
X15057Y17556D01*
X15158Y17494D01*
X15267Y17448D01*
X15383Y17421D01*
X15501Y17411D01*
X15620Y17420D01*
X15735Y17448D01*
X15844Y17495D01*
X16184Y17653D01*
X16540Y17774D01*
X16905Y17862D01*
X17277Y17914D01*
X17652Y17932D01*
X17654Y17932D01*
Y9932D01*
X17652Y9932D01*
X17277Y9950D01*
X16905Y10002D01*
X16540Y10090D01*
X16184Y10211D01*
X15842Y10365D01*
X15734Y10412D01*
X15619Y10439D01*
X15501Y10449D01*
X15384Y10439D01*
X15269Y10411D01*
X15160Y10366D01*
X15059Y10304D01*
X14970Y10227D01*
X14893Y10137D01*
X14832Y10037D01*
X14787Y9928D01*
X14759Y9813D01*
X14750Y9695D01*
X14760Y9577D01*
X14787Y9463D01*
X14833Y9354D01*
X14895Y9253D01*
X14971Y9163D01*
X15061Y9087D01*
X15163Y9027D01*
X15632Y8810D01*
X16121Y8643D01*
X16624Y8523D01*
X17136Y8450D01*
X17652Y8426D01*
X17654Y8426D01*
Y991D01*
X13159D01*
Y11072D01*
X13181Y11063D01*
X13297Y11035D01*
X13415Y11026D01*
X13533Y11035D01*
X13649Y11062D01*
X13759Y11108D01*
X13860Y11170D01*
X13950Y11246D01*
X14028Y11337D01*
X14090Y11438D01*
X14136Y11547D01*
X14163Y11663D01*
X14173Y11781D01*
X14164Y11900D01*
X14136Y12015D01*
X14089Y12124D01*
X13931Y12464D01*
X13810Y12820D01*
X13722Y13185D01*
X13670Y13557D01*
X13652Y13932D01*
X13670Y14307D01*
X13722Y14679D01*
X13810Y15044D01*
X13931Y15400D01*
X14085Y15742D01*
X14132Y15850D01*
X14159Y15965D01*
X14169Y16083D01*
X14159Y16200D01*
X14131Y16315D01*
X14086Y16424D01*
X14024Y16525D01*
X13947Y16614D01*
X13857Y16691D01*
X13757Y16752D01*
X13648Y16797D01*
X13533Y16825D01*
X13415Y16834D01*
X13297Y16824D01*
X13183Y16797D01*
X13159Y16787D01*
Y78991D01*
G37*
G36*
X1113Y991D02*Y78991D01*
X13159D01*
Y16787D01*
X13074Y16751D01*
X12973Y16689D01*
X12883Y16613D01*
X12807Y16523D01*
X12747Y16421D01*
X12530Y15952D01*
X12363Y15463D01*
X12243Y14960D01*
X12170Y14448D01*
X12146Y13932D01*
X12170Y13416D01*
X12243Y12904D01*
X12363Y12401D01*
X12530Y11912D01*
X12742Y11440D01*
X12803Y11339D01*
X12880Y11248D01*
X12970Y11171D01*
X13072Y11109D01*
X13159Y11072D01*
Y991D01*
X1113D01*
G37*
G54D12*X88013Y65991D02*Y54301D01*
X80013Y45991D02*Y70491D01*
X82513Y72991D01*
X106513D01*
X108013Y71491D01*
Y65991D01*
X98513Y52991D02*X110013D01*
X111513Y54491D01*
X121513Y45991D02*Y57991D01*
X113513Y65991D01*
X108013D01*
X128013Y68591D02*X119113Y77491D01*
X80613D01*
X75613Y72491D01*
X41113Y51991D02*X66613D01*
X54113Y39491D02*Y64491D01*
X45613Y43491D02*X62613Y60491D01*
X62113Y44491D02*X61613D01*
X46113Y59991D01*
X149513Y34491D02*X141513D01*
X139513Y32491D01*
Y15991D01*
X128013Y8991D02*X130013Y6991D01*
X118513Y13991D02*X130013Y25491D01*
Y6991D02*X153513D01*
X155013Y8491D01*
X139513Y15991D02*X141513Y13991D01*
X148013D01*
X128013D02*Y8991D01*
X155013Y8491D02*Y18991D01*
Y17491D02*Y25491D01*
X135113Y21091D02*X128013Y13991D01*
X98513Y52991D02*Y45196D01*
X96713Y35596D02*X97408D01*
X100513Y32491D01*
Y25991D01*
X102013Y24491D01*
X111013D01*
X108013Y13991D02*X118513D01*
X110713Y24591D02*X110613Y24491D01*
X122113Y24591D02*X110713D01*
X102113Y39491D02*X106613Y34991D01*
X122013Y24491D02*X125513Y27991D01*
Y55491D01*
X130013Y25491D02*Y51991D01*
X125513Y55491D02*X129013Y58991D01*
X135013D01*
X142013Y65991D01*
X148013D01*
X128013D02*Y68591D01*
X130013Y51991D02*X132513Y54491D01*
X149513D01*
X140013Y44491D02*X149513D01*
X140613D02*X137613D01*
X135113Y41991D01*
Y21091D01*
X88013Y54301D02*X86703Y52991D01*
X75613Y72491D02*Y27991D01*
X98513Y45196D02*X96713Y43396D01*
X112013Y44491D02*X120013D01*
X121513Y45991D01*
X88513Y43396D02*X82608D01*
X80013Y45991D01*
X75613Y27991D02*X78113Y25491D01*
X82608D01*
X82113Y34991D02*X87908D01*
X88513Y35596D01*
Y27091D01*
X90113Y25491D01*
X94418D01*
X212500Y54500D02*X229500D01*
X210000Y52000D02*X212500Y54500D01*
X222000Y66000D02*X228000D01*
X215000Y59000D02*X222000Y66000D01*
X209000Y59000D02*X215000D01*
X205500Y55500D02*X209000Y59000D01*
X201500Y46000D02*Y58000D01*
X200000Y44500D02*X201500Y46000D01*
X192000Y44500D02*X200000D01*
X190000Y53000D02*X191500Y54500D01*
X193500Y66000D02*X188000D01*
X201500Y58000D02*X193500Y66000D01*
X198500Y14000D02*X210000Y25500D01*
X188000Y14000D02*X198500D01*
X182000Y24500D02*X191000D01*
X191500D02*X202000D01*
X180500Y26000D02*X182000Y24500D01*
X202000D02*X205500Y28000D01*
X235000Y17500D02*Y25500D01*
Y8500D02*Y19000D01*
X233500Y7000D02*X235000Y8500D01*
X210000Y7000D02*X233500D01*
X208000Y9000D02*X210000Y7000D01*
X208000Y14000D02*Y9000D01*
X215113Y21104D02*X208000Y13991D01*
X221500Y14000D02*X228000D01*
X219500Y16000D02*X221500Y14000D01*
X219500Y32500D02*Y16000D01*
X180500Y32500D02*Y26000D01*
X163113Y25491D02*Y32491D01*
X160613Y34991D01*
X168613Y27991D02*X175113D01*
X177395Y35605D02*X180500Y32500D01*
X182113Y39991D02*X187113Y34991D01*
X192613D01*
X176700Y35605D02*X177395D01*
X168613Y35491D02*Y27491D01*
X220000Y44500D02*X229500D01*
Y34500D02*X221500D01*
X221604Y44500D02*X220122D01*
X215113Y39491D01*
X205500Y28000D02*Y55500D01*
X210000Y25500D02*Y52000D01*
X221500Y34500D02*X219500Y32500D01*
X215113Y39491D02*Y21104D01*
X178500Y45205D02*X176700Y43405D01*
X178500Y53000D02*Y45205D01*
X168613Y43491D02*X172613Y47491D01*
X160613Y34991D02*Y70991D01*
X164113Y74491D01*
X178500Y53000D02*X190000D01*
X168000Y54310D02*X166690Y53000D01*
X172613Y47491D02*Y58491D01*
X168000Y66000D02*Y54310D01*
X172613Y58491D02*X175613Y61491D01*
X183613D01*
X188113Y65991D01*
X164113Y74491D02*X205113D01*
X208113Y71491D01*
Y65491D01*
G54D11*G36*
X224000Y18000D02*Y10000D01*
X232000D01*
Y18000D01*
X224000D01*
G37*
G54D13*X208000Y14000D03*
G54D11*G36*
X184000Y18000D02*Y10000D01*
X192000D01*
Y18000D01*
X184000D01*
G37*
G54D13*X168000Y14000D03*
G54D11*G36*
X144013Y17991D02*Y9991D01*
X152013D01*
Y17991D01*
X144013D01*
G37*
G36*
X204000Y70000D02*Y62000D01*
X212000D01*
Y70000D01*
X204000D01*
G37*
G54D13*X228000Y66000D03*
G54D11*G36*
X164000Y70000D02*Y62000D01*
X172000D01*
Y70000D01*
X164000D01*
G37*
G54D13*X188000Y66000D03*
G54D11*G36*
X124013Y69991D02*Y61991D01*
X132013D01*
Y69991D01*
X124013D01*
G37*
G36*
X84013D02*Y61991D01*
X92013D01*
Y69991D01*
X84013D01*
G37*
G54D13*X108013Y65991D03*
G54D14*X53935Y51200D03*
G54D15*X29935D03*
X41935Y70200D03*
G54D13*X148013Y65991D03*
G54D11*G36*
X104013Y17991D02*Y9991D01*
X112013D01*
Y17991D01*
X104013D01*
G37*
G54D13*X128013Y13991D03*
X88013D03*
G54D11*G36*
X33652Y17932D02*Y9932D01*
X41652D01*
Y17932D01*
X33652D01*
G37*
G54D13*X17652Y13932D03*
G54D16*X187500Y55000D02*X195500D01*
X225500D02*X233500D01*
X225500Y45000D02*X233500D01*
X225500Y35000D02*X233500D01*
X225500Y25000D02*X233500D01*
X187500Y45000D02*X195500D01*
X187500Y35000D02*X195500D01*
X187500Y25000D02*X195500D01*
G54D17*X166595Y55755D02*Y50245D01*
X162595Y28255D02*Y22745D01*
G54D18*X167700Y43500D02*X169300D01*
X167700Y39600D02*X169300D01*
X167700Y35700D02*X169300D01*
X175900Y39600D02*X177500D01*
X175900Y43500D02*X177500D01*
G54D17*X178405Y55755D02*Y50245D01*
G54D18*X175900Y35700D02*X177500D01*
G54D17*X174405Y28255D02*Y22745D01*
G54D16*X145513Y54491D02*X153513D01*
X145513Y44491D02*X153513D01*
X145513Y34491D02*X153513D01*
X145513Y24491D02*X153513D01*
X107513Y54491D02*X115513D01*
X107513Y44491D02*X115513D01*
G54D17*X86703Y55746D02*Y50236D01*
X98513Y55746D02*Y50236D01*
G54D18*X87713Y43396D02*X89313D01*
X95913D02*X97513D01*
G54D16*X107513Y34491D02*X115513D01*
X107513Y24491D02*X115513D01*
G54D18*X87713Y39496D02*X89313D01*
X87713Y35596D02*X89313D01*
G54D17*X82608Y28246D02*Y22736D01*
X94418Y28246D02*Y22736D01*
G54D18*X95913Y35596D02*X97513D01*
X95913Y39496D02*X97513D01*
G54D19*X102113Y39491D03*
X82113Y34991D03*
X48613Y3991D03*
X52113Y20491D03*
Y15491D03*
X182000Y40000D03*
X168613Y27991D03*
X42613Y3991D03*
X36613D03*
X30613D03*
X24613D03*
X18613D03*
G54D20*G54D21*G54D22*G54D23*G54D21*M02*
