G04 start of page 9 for group -4015 idx -4015 *
G04 Title: (unknown), toppaste *
G04 Creator: pcb 20110918 *
G04 CreationDate: Mon 25 Mar 2013 04:24:27 AM GMT UTC *
G04 For: ndholmes *
G04 Format: Gerber/RS-274X *
G04 PCB-Dimensions: 240000 80000 *
G04 PCB-Coordinate-Origin: lower left *
%MOIN*%
%FSLAX25Y25*%
%LNTOPPASTE*%
%ADD55R,0.0600X0.0600*%
%ADD54R,0.0512X0.0512*%
%ADD53R,0.0240X0.0240*%
G54D53*X167700Y43500D02*X169300D01*
X167700Y39600D02*X169300D01*
X167700Y35700D02*X169300D01*
X175900D02*X177500D01*
X175900Y39600D02*X177500D01*
X175900Y43500D02*X177500D01*
G54D54*X166595Y55755D02*Y50245D01*
X178405Y55755D02*Y50245D01*
G54D55*X187500Y55000D02*X195500D01*
X225500D02*X233500D01*
X187500Y45000D02*X195500D01*
X225500D02*X233500D01*
X187500Y35000D02*X195500D01*
X225500D02*X233500D01*
X187500Y25000D02*X195500D01*
X225500D02*X233500D01*
G54D54*X162595Y28255D02*Y22745D01*
X174405Y28255D02*Y22745D01*
G54D55*X107513Y54491D02*X115513D01*
X145513D02*X153513D01*
X107513Y44491D02*X115513D01*
X145513D02*X153513D01*
X107513Y34491D02*X115513D01*
X145513D02*X153513D01*
X107513Y24491D02*X115513D01*
X145513D02*X153513D01*
G54D54*X86703Y55746D02*Y50236D01*
X98513Y55746D02*Y50236D01*
G54D53*X87713Y43396D02*X89313D01*
X87713Y39496D02*X89313D01*
X87713Y35596D02*X89313D01*
X95913D02*X97513D01*
X95913Y39496D02*X97513D01*
X95913Y43396D02*X97513D01*
G54D54*X82608Y28246D02*Y22736D01*
X94418Y28246D02*Y22736D01*
M02*
