G04 start of page 8 for group -4078 idx -4078 *
G04 Title: (unknown), bottomsilk *
G04 Creator: pcb 20110918 *
G04 CreationDate: Mon 25 Mar 2013 04:24:27 AM GMT UTC *
G04 For: ndholmes *
G04 Format: Gerber/RS-274X *
G04 PCB-Dimensions: 240000 80000 *
G04 PCB-Coordinate-Origin: lower left *
%MOIN*%
%FSLAX25Y25*%
%LNBOTTOMSILK*%
%ADD52C,0.0100*%
G54D52*X613Y79491D02*Y491D01*
X239113D01*
Y79491D01*
X613D01*
X186000Y44300D02*X190200D01*
X165000Y44400D02*X169600D01*
X167300Y42100D02*Y46700D01*
X191500Y33000D02*X192800D01*
X193500Y33700D02*X192800Y33000D01*
X193500Y33700D02*Y36300D01*
X192800Y37000D01*
X191500D02*X192800D01*
X188300D02*X190300D01*
X189300Y33000D02*Y37000D01*
X185100D02*X187100D01*
X185100D02*X184600Y36500D01*
Y35500D02*Y36500D01*
X185100Y35000D02*X184600Y35500D01*
X185100Y35000D02*X186600D01*
Y33000D02*Y37000D01*
X185800Y35000D02*X184600Y33000D01*
X183400D02*Y37000D01*
X181400Y33000D02*X183400D01*
X173313Y46491D02*X174613D01*
X172613Y45791D02*X173313Y46491D01*
X172613Y43191D02*Y45791D01*
Y43191D02*X173313Y42491D01*
X174613D01*
X175813D02*Y46491D01*
Y44991D02*X176313Y44491D01*
X177313D01*
X177813Y44991D01*
Y46491D01*
X180813Y42991D02*X181313Y42491D01*
X182313D01*
X182813Y42991D01*
X182313Y46491D02*X182813Y45991D01*
X181313Y46491D02*X182313D01*
X180813Y45991D02*X181313Y46491D01*
Y44291D02*X182313D01*
X182813Y42991D02*Y43791D01*
Y44791D02*Y45991D01*
Y44791D02*X182313Y44291D01*
X182813Y43791D02*X182313Y44291D01*
X226500Y44300D02*X230700D01*
X232000Y33000D02*X233300D01*
X234000Y33700D02*X233300Y33000D01*
X234000Y33700D02*Y36300D01*
X233300Y37000D01*
X232000D02*X233300D01*
X228800D02*X230800D01*
X229800Y33000D02*Y37000D01*
X225600D02*X227600D01*
X225600D02*X225100Y36500D01*
Y35500D02*Y36500D01*
X225600Y35000D02*X225100Y35500D01*
X225600Y35000D02*X227100D01*
Y33000D02*Y37000D01*
X226300Y35000D02*X225100Y33000D01*
X223900D02*Y37000D01*
X221900Y33000D02*X223900D01*
X171000Y37000D02*X170500Y36500D01*
X171000Y37000D02*X172500D01*
X173000Y36500D02*X172500Y37000D01*
X173000Y33500D02*Y36500D01*
Y33500D02*X172500Y33000D01*
X171000D02*X172500D01*
X171000D02*X170500Y33500D01*
Y34500D01*
X171000Y35000D02*X170500Y34500D01*
X171000Y35000D02*X172000D01*
X169300Y33000D02*Y37000D01*
X166800Y33000D01*
Y37000D01*
X165100Y33000D02*Y37000D01*
X163800D02*X163100Y36300D01*
Y33700D02*Y36300D01*
X163800Y33000D02*X163100Y33700D01*
X163800Y33000D02*X165600D01*
X163800Y37000D02*X165600D01*
X131513Y36991D02*X131013Y36491D01*
X131513Y36991D02*X133013D01*
X133513Y36491D02*X133013Y36991D01*
X133513Y33491D02*Y36491D01*
Y33491D02*X133013Y32991D01*
X131513D02*X133013D01*
X131513D02*X131013Y33491D01*
Y34491D01*
X131513Y34991D02*X131013Y34491D01*
X131513Y34991D02*X132513D01*
X129813Y32991D02*Y36991D01*
X127313Y32991D01*
Y36991D01*
X125613Y32991D02*Y36991D01*
X124313D02*X123613Y36291D01*
Y33691D02*Y36291D01*
X124313Y32991D02*X123613Y33691D01*
X124313Y32991D02*X126113D01*
X124313Y36991D02*X126113D01*
X152013Y32991D02*X153313D01*
X154013Y33691D02*X153313Y32991D01*
X154013Y33691D02*Y36291D01*
X153313Y36991D01*
X152013D02*X153313D01*
X148813D02*X150813D01*
X149813Y32991D02*Y36991D01*
X145613D02*X147613D01*
X145613D02*X145113Y36491D01*
Y35491D02*Y36491D01*
X145613Y34991D02*X145113Y35491D01*
X145613Y34991D02*X147113D01*
Y32991D02*Y36991D01*
X146313Y34991D02*X145113Y32991D01*
X143913D02*Y36991D01*
X141913Y32991D02*X143913D01*
X205500Y44400D02*X210100D01*
X207800Y42100D02*Y46700D01*
X211500Y37000D02*X211000Y36500D01*
X211500Y37000D02*X213000D01*
X213500Y36500D02*X213000Y37000D01*
X213500Y33500D02*Y36500D01*
Y33500D02*X213000Y33000D01*
X211500D02*X213000D01*
X211500D02*X211000Y33500D01*
Y34500D01*
X211500Y35000D02*X211000Y34500D01*
X211500Y35000D02*X212500D01*
X209800Y33000D02*Y37000D01*
X207300Y33000D01*
Y37000D01*
X205600Y33000D02*Y37000D01*
X204300D02*X203600Y36300D01*
Y33700D02*Y36300D01*
X204300Y33000D02*X203600Y33700D01*
X204300Y33000D02*X206100D01*
X204300Y37000D02*X206100D01*
X213813Y46491D02*X215113D01*
X213113Y45791D02*X213813Y46491D01*
X213113Y43191D02*Y45791D01*
Y43191D02*X213813Y42491D01*
X215113D01*
X216313D02*Y46491D01*
Y44991D02*X216813Y44491D01*
X217813D01*
X218313Y44991D01*
Y46491D01*
X221313Y44991D02*X223313Y42491D01*
X221313Y44991D02*X223813D01*
X223313Y42491D02*Y46491D01*
X91013Y36991D02*X90513Y36491D01*
X91013Y36991D02*X92513D01*
X93013Y36491D02*X92513Y36991D01*
X93013Y33491D02*Y36491D01*
Y33491D02*X92513Y32991D01*
X91013D02*X92513D01*
X91013D02*X90513Y33491D01*
Y34491D01*
X91013Y34991D02*X90513Y34491D01*
X91013Y34991D02*X92013D01*
X89313Y32991D02*Y36991D01*
X86813Y32991D01*
Y36991D01*
X85113Y32991D02*Y36991D01*
X83813D02*X83113Y36291D01*
Y33691D02*Y36291D01*
X83813Y32991D02*X83113Y33691D01*
X83813Y32991D02*X85613D01*
X83813Y36991D02*X85613D01*
X4113Y8691D02*Y10691D01*
X3113Y9691D02*X5113D01*
X5313Y11891D02*X6113Y12691D01*
X2113D02*X6113D01*
X2113Y11891D02*Y13391D01*
X5613Y14591D02*X6113Y15091D01*
Y16591D01*
X5613Y17091D01*
X4613D02*X5613D01*
X2113Y14591D02*X4613Y17091D01*
X2113Y14591D02*Y17091D01*
X6113Y18291D02*X2113Y19291D01*
X6113Y20291D01*
X111513Y32991D02*X112813D01*
X113513Y33691D02*X112813Y32991D01*
X113513Y33691D02*Y36291D01*
X112813Y36991D01*
X111513D02*X112813D01*
X108313D02*X110313D01*
X109313Y32991D02*Y36991D01*
X105113D02*X107113D01*
X105113D02*X104613Y36491D01*
Y35491D02*Y36491D01*
X105113Y34991D02*X104613Y35491D01*
X105113Y34991D02*X106613D01*
Y32991D02*Y36991D01*
X105813Y34991D02*X104613Y32991D01*
X103413D02*Y36991D01*
X101413Y32991D02*X103413D01*
X106013Y44291D02*X110213D01*
X85013Y44391D02*X89613D01*
X87313Y42091D02*Y46691D01*
X94313Y46491D02*X95613D01*
X93613Y45791D02*X94313Y46491D01*
X93613Y43191D02*Y45791D01*
Y43191D02*X94313Y42491D01*
X95613D01*
X96813D02*Y46491D01*
Y44991D02*X97313Y44491D01*
X98313D01*
X98813Y44991D01*
Y46491D01*
X101813Y43291D02*X102613Y42491D01*
Y46491D01*
X101813D02*X103313D01*
X125513Y44391D02*X130113D01*
X127813Y42091D02*Y46691D01*
X146513Y44291D02*X150713D01*
X133713Y46491D02*X135013D01*
X133013Y45791D02*X133713Y46491D01*
X133013Y43191D02*Y45791D01*
Y43191D02*X133713Y42491D01*
X135013D01*
X136213D02*Y46491D01*
Y44991D02*X136713Y44491D01*
X137713D01*
X138213Y44991D01*
Y46491D01*
X141213Y42991D02*X141713Y42491D01*
X143213D01*
X143713Y42991D01*
Y43991D01*
X141213Y46491D02*X143713Y43991D01*
X141213Y46491D02*X143713D01*
X198000Y1200D02*X238000D01*
X198000Y31200D02*X238000D01*
X198000Y26800D02*X238000D01*
Y31200D02*Y1200D01*
X198000Y31200D02*Y1200D01*
X158000D02*X198000D01*
X158000Y31200D02*X198000D01*
X158000Y26800D02*X198000D01*
Y31200D02*Y1200D01*
X158000Y31200D02*Y1200D01*
X198000Y78800D02*X238000D01*
X198000Y48800D02*X238000D01*
X198000Y53200D02*X238000D01*
X198000Y78800D02*Y48800D01*
X238000Y78800D02*Y48800D01*
X158000Y78800D02*X198000D01*
X158000Y48800D02*X198000D01*
X158000Y53200D02*X198000D01*
X158000Y78800D02*Y48800D01*
X198000Y78800D02*Y48800D01*
X118013Y78791D02*X158013D01*
X118013Y48791D02*X158013D01*
X118013Y53191D02*X158013D01*
X118013Y48791D02*Y78791D01*
X158013Y48791D02*Y78791D01*
X118013Y1191D02*X158013D01*
X118013Y31191D02*X158013D01*
X118013Y26791D02*X158013D01*
Y1191D02*Y31191D01*
X118013Y1191D02*Y31191D01*
X78013Y1191D02*X118013D01*
X78013Y31191D02*X118013D01*
X78013Y26791D02*X118013D01*
Y1191D02*Y31191D01*
X78013Y1191D02*Y31191D01*
X49064Y30648D02*X55560D01*
X68552D02*X75048D01*
Y11160D01*
X49064Y30648D02*Y11160D01*
X75048D02*X68552Y4664D01*
X49064Y11160D02*X55560Y4664D01*
X52056Y11656D02*X56056D01*
X54056Y13656D02*Y9656D01*
X7652Y1132D02*X47652D01*
X7652Y31132D02*X47652D01*
X7652Y26732D02*X47652D01*
Y31132D02*Y1132D01*
X7652Y31132D02*Y1132D01*
X78013Y78791D02*X118013D01*
X78013Y48791D02*X118013D01*
X78013Y53191D02*X118013D01*
X78013Y48791D02*Y78791D01*
X118013Y48791D02*Y78791D01*
X435Y68200D02*X29935D01*
X435D02*Y34200D01*
X56435D01*
Y39200D02*Y34200D01*
X52435Y68200D02*X56435D01*
Y63200D01*
X435Y68200D02*Y34200D01*
X935Y68200D02*Y34200D01*
X1435Y68200D02*Y34200D01*
X1935Y68200D02*Y34200D01*
X2435Y68200D02*Y34200D01*
X2935Y68200D02*Y34200D01*
X3435Y68200D02*Y34200D01*
X3935Y68200D02*Y34200D01*
X13435Y68200D02*Y34200D01*
X12935Y68200D02*Y34200D01*
X12435Y68200D02*Y34200D01*
X11935Y68200D02*Y34200D01*
X11435Y68200D02*Y34200D01*
X10935Y68200D02*Y34200D01*
X10435Y68200D02*Y34200D01*
X9935Y68200D02*Y34200D01*
X60044Y18312D02*X61344D01*
X59344Y17612D02*X60044Y18312D01*
X59344Y15012D02*Y17612D01*
Y15012D02*X60044Y14312D01*
X61344D01*
X62544Y15112D02*X63344Y14312D01*
Y18312D01*
X62544D02*X64044D01*
M02*
